<svg xmlns="http://www.w3.org/2000/svg" viewBox="0 0 828.02 466.29"><defs><style>.cls-1{fill:#81b29a;}.cls-1,.cls-3,.cls-6,.cls-7{stroke:#231f20;stroke-miterlimit:10;stroke-width:2px;}.cls-2{fill:#231f20;}.cls-3{fill:#f2cc8f;}.cls-4{fill:#b4b4b5;}.cls-5{fill:#010101;}.cls-6{fill:none;}.cls-7{fill:#e07a5f;}</style></defs><g id="Layer_2" data-name="Layer 2"><g id="Layer_1-2" data-name="Layer 1"><rect class="cls-1" x="1" y="331.75" width="99.35" height="92.48"/><rect class="cls-1" x="1" y="180.72" width="99.35" height="92.48"/><rect class="cls-1" x="1" y="29.52" width="99.35" height="92.48"/><path class="cls-2" d="M18.67,70.17a1.2,1.2,0,0,1-.81-.31,1,1,0,0,1-.33-.79,1,1,0,0,1,.33-.77,1.24,1.24,0,0,1,.81-.29h13a1.16,1.16,0,0,1,.82.31,1,1,0,0,1,.33.78,1,1,0,0,1-.33.77,1.2,1.2,0,0,1-.82.3Zm6.5,17.44A1.14,1.14,0,0,1,24,86.46V69.19h2.38V86.46a1.1,1.1,0,0,1-.33.81A1.16,1.16,0,0,1,25.17,87.61Z" transform="translate(0 -3.08)"/><path class="cls-2" d="M35.25,87.61a1.05,1.05,0,0,1-.8-.34,1.13,1.13,0,0,1-.32-.81V74.28a1.12,1.12,0,0,1,.32-.82,1.08,1.08,0,0,1,.8-.33,1,1,0,0,1,.81.33,1.12,1.12,0,0,1,.31.82V78L36,77.36a6.36,6.36,0,0,1,.61-1.69,5.7,5.7,0,0,1,1.1-1.48,5,5,0,0,1,1.54-1,4.79,4.79,0,0,1,1.91-.38,2.32,2.32,0,0,1,1.13.29.92.92,0,0,1,.52.83,1.14,1.14,0,0,1-.31.88,1,1,0,0,1-.7.3,1.57,1.57,0,0,1-.7-.17,1.87,1.87,0,0,0-.84-.17,2.79,2.79,0,0,0-1.39.39,4.84,4.84,0,0,0-1.26,1.08,5.69,5.69,0,0,0-.92,1.57,5.16,5.16,0,0,0-.35,1.89v6.8a1.13,1.13,0,0,1-.32.81A1.05,1.05,0,0,1,35.25,87.61Z" transform="translate(0 -3.08)"/><path class="cls-2" d="M56.81,73a1,1,0,0,1,.81.33,1.08,1.08,0,0,1,.31.79V86.46a1.13,1.13,0,0,1-.32.81,1.05,1.05,0,0,1-.8.34,1,1,0,0,1-.81-.34,1.12,1.12,0,0,1-.31-.81V83.8l.53,0a2.65,2.65,0,0,1-.42,1.35,5.3,5.3,0,0,1-1.15,1.35,6,6,0,0,1-1.72,1,5.36,5.36,0,0,1-2.11.41,6.17,6.17,0,0,1-3.45-1A7.15,7.15,0,0,1,45,84.19a9.06,9.06,0,0,1,0-7.79,6.86,6.86,0,0,1,2.39-2.66,6.08,6.08,0,0,1,3.36-1,6.28,6.28,0,0,1,2.24.39,5.82,5.82,0,0,1,1.81,1.07A5.22,5.22,0,0,1,56,75.71a3.41,3.41,0,0,1,.44,1.62l-.73-.16V74.11a1.08,1.08,0,0,1,.31-.79A1,1,0,0,1,56.81,73ZM51,85.82a4.28,4.28,0,0,0,2.48-.73,4.84,4.84,0,0,0,1.68-2,6.41,6.41,0,0,0,.6-2.82,6.26,6.26,0,0,0-.6-2.77,4.94,4.94,0,0,0-1.68-2,4.55,4.55,0,0,0-4.93,0A4.84,4.84,0,0,0,46.9,77.5a6.2,6.2,0,0,0-.62,2.8,6.28,6.28,0,0,0,.62,2.82,4.93,4.93,0,0,0,1.69,2A4.26,4.26,0,0,0,51,85.82Z" transform="translate(0 -3.08)"/><path class="cls-2" d="M63.08,71a1.56,1.56,0,0,1-1-.28,1,1,0,0,1-.34-.86v-.4a1,1,0,0,1,.36-.86,1.67,1.67,0,0,1,1-.28,1.54,1.54,0,0,1,1,.28,1.05,1.05,0,0,1,.33.86v.4a1,1,0,0,1-.35.86A1.57,1.57,0,0,1,63.08,71Zm1.15,15.43a1.13,1.13,0,0,1-.32.81,1.05,1.05,0,0,1-.8.34,1.09,1.09,0,0,1-.83-.34,1.13,1.13,0,0,1-.32-.81V74.06a1.13,1.13,0,0,1,.32-.81,1.09,1.09,0,0,1,.83-.34,1.05,1.05,0,0,1,.8.34,1.13,1.13,0,0,1,.32.81Z" transform="translate(0 -3.08)"/><path class="cls-2" d="M75.46,72.77a5,5,0,0,1,3,.78A4.33,4.33,0,0,1,80,75.65a8.9,8.9,0,0,1,.46,3v7.84a1.13,1.13,0,0,1-.32.81,1.05,1.05,0,0,1-.8.34,1,1,0,0,1-.81-.34,1.12,1.12,0,0,1-.31-.81V78.68a5.62,5.62,0,0,0-.32-1.93,2.92,2.92,0,0,0-1.08-1.39,3.55,3.55,0,0,0-2-.52,4.58,4.58,0,0,0-2.15.52,4.24,4.24,0,0,0-1.57,1.39,3.38,3.38,0,0,0-.59,1.93v7.78a1.13,1.13,0,0,1-.32.81,1,1,0,0,1-.8.34,1.05,1.05,0,0,1-.8-.34,1.13,1.13,0,0,1-.32-.81V74.28a1.12,1.12,0,0,1,.32-.82,1.08,1.08,0,0,1,.8-.33,1,1,0,0,1,.81.33,1.12,1.12,0,0,1,.31.82v2l-.56.62a3.8,3.8,0,0,1,.65-1.47,5.46,5.46,0,0,1,1.26-1.33,6.27,6.27,0,0,1,1.68-.94A5.46,5.46,0,0,1,75.46,72.77Z" transform="translate(0 -3.08)"/><rect class="cls-3" x="1" y="125.81" width="99.35" height="37.25"/><path class="cls-2" d="M23.61,139.35a1.12,1.12,0,0,1-.81-.31,1,1,0,0,1-.34-.78,1,1,0,0,1,.34-.77,1.15,1.15,0,0,1,.81-.29h13a1.16,1.16,0,0,1,.81.3,1,1,0,0,1,.34.79,1,1,0,0,1-.34.77,1.2,1.2,0,0,1-.81.29Zm6.5,17.45a1.16,1.16,0,0,1-.86-.34,1.13,1.13,0,0,1-.32-.81V138.37h2.38v17.28a1.1,1.1,0,0,1-.33.81A1.22,1.22,0,0,1,30.11,156.8Z" transform="translate(0 -3.08)"/><path class="cls-2" d="M43.94,157.08a7.77,7.77,0,0,1-3.92-1,6.78,6.78,0,0,1-2.62-2.61,7.78,7.78,0,0,1-.94-3.85,8.42,8.42,0,0,1,1-4.16A6.73,6.73,0,0,1,40,142.87a6.38,6.38,0,0,1,3.29-.91,6.66,6.66,0,0,1,2.51.47,6.47,6.47,0,0,1,2.12,1.4,7,7,0,0,1,1.5,2.19,7.35,7.35,0,0,1,.59,2.85,1,1,0,0,1-.36.74,1.16,1.16,0,0,1-.79.3H37.75l-.5-1.93H48l-.45.39v-.62a3.7,3.7,0,0,0-.77-2,4.52,4.52,0,0,0-1.6-1.28,4.61,4.61,0,0,0-2-.44,4.87,4.87,0,0,0-1.67.3,4.29,4.29,0,0,0-1.48,1A4.55,4.55,0,0,0,39,147a7.08,7.08,0,0,0-.39,2.49,5.94,5.94,0,0,0,.66,2.85,4.91,4.91,0,0,0,1.83,1.95,5.09,5.09,0,0,0,2.72.71,4.82,4.82,0,0,0,3-.88,5.46,5.46,0,0,0,.9-.77,1.22,1.22,0,0,1,.7-.25.94.94,0,0,1,.7.28.91.91,0,0,1,.28.67,1.12,1.12,0,0,1-.48.87,6.74,6.74,0,0,1-2.12,1.51A6.55,6.55,0,0,1,43.94,157.08Z" transform="translate(0 -3.08)"/><path class="cls-2" d="M52.34,154.5a1.34,1.34,0,0,1-.21-.77.89.89,0,0,1,.46-.71,1.11,1.11,0,0,1,.69-.17,1,1,0,0,1,.68.36,6.13,6.13,0,0,0,1.8,1.47,5,5,0,0,0,2.46.55,5.9,5.9,0,0,0,1.33-.23,2.52,2.52,0,0,0,1.15-.68,1.81,1.81,0,0,0,.46-1.3,1.65,1.65,0,0,0-.48-1.25,3.58,3.58,0,0,0-1.24-.76c-.52-.19-1.06-.36-1.64-.51s-1.22-.36-1.82-.56a7.12,7.12,0,0,1-1.61-.8,3.86,3.86,0,0,1-1.15-1.23,4,4,0,0,1,.25-4,4.48,4.48,0,0,1,1.84-1.43,6.17,6.17,0,0,1,2.55-.5,7.89,7.89,0,0,1,1.63.18,6.23,6.23,0,0,1,1.67.61,4.76,4.76,0,0,1,1.43,1.19,1.13,1.13,0,0,1,.28.7.91.91,0,0,1-.37.76,1,1,0,0,1-.68.21.91.91,0,0,1-.63-.27,4,4,0,0,0-1.5-1.1,5,5,0,0,0-1.95-.38,4,4,0,0,0-1.28.21,2.59,2.59,0,0,0-1.08.66,1.74,1.74,0,0,0-.44,1.26,1.77,1.77,0,0,0,.51,1.23,3.35,3.35,0,0,0,1.29.77c.54.2,1.13.39,1.79.57s1.17.33,1.72.52a6.24,6.24,0,0,1,1.5.77,3.46,3.46,0,0,1,1.06,1.22,4,4,0,0,1,.39,1.86,3.57,3.57,0,0,1-.72,2.23,4.71,4.71,0,0,1-1.92,1.43,6.82,6.82,0,0,1-2.56.49,8.64,8.64,0,0,1-3.06-.58A5.93,5.93,0,0,1,52.34,154.5Z" transform="translate(0 -3.08)"/><path class="cls-2" d="M65.89,142.4h6.58a1,1,0,0,1,.74.31,1.06,1.06,0,0,1,.3.76.94.94,0,0,1-.3.71,1,1,0,0,1-.74.3H65.89a1.05,1.05,0,0,1-.74-.31,1,1,0,0,1-.32-.73.93.93,0,0,1,.32-.74A1,1,0,0,1,65.89,142.4Zm2.94-3.8a1,1,0,0,1,.79.33,1.2,1.2,0,0,1,.3.81v13.5a2.07,2.07,0,0,0,.2,1,1,1,0,0,0,.52.46,1.77,1.77,0,0,0,.63.13,1.26,1.26,0,0,0,.49-.1,1.07,1.07,0,0,1,.49-.1.7.7,0,0,1,.52.27,1,1,0,0,1,.23.68,1,1,0,0,1-.58.86,2.61,2.61,0,0,1-1.32.35c-.26,0-.58,0-1-.06a3,3,0,0,1-1.13-.36,2.44,2.44,0,0,1-.94-1,4.33,4.33,0,0,1-.38-2V139.74a1.14,1.14,0,0,1,.34-.81A1.1,1.1,0,0,1,68.83,138.6Z" transform="translate(0 -3.08)"/><rect class="cls-1" x="104.37" y="29.52" width="27.12" height="27.12"/><rect class="cls-3" x="104.37" y="94.88" width="27.12" height="27.12"/><rect class="cls-1" x="104.37" y="62.2" width="27.12" height="27.12"/><rect class="cls-1" x="136.43" y="29.52" width="27.12" height="27.12"/><rect class="cls-1" x="136.43" y="94.88" width="27.12" height="27.12"/><rect class="cls-3" x="136.43" y="62.2" width="27.12" height="27.12"/><rect class="cls-3" x="168.49" y="29.52" width="27.12" height="27.12"/><rect class="cls-1" x="168.49" y="94.88" width="27.12" height="27.12"/><rect class="cls-1" x="168.49" y="62.2" width="27.12" height="27.12"/><g id="_375176344" data-name=" 375176344"><polygon class="cls-4" points="309.27 40.8 309.27 110.25 307.52 112.02 238.42 112.02 236.67 110.25 236.67 40.8 238.42 39.05 307.52 39.05 309.27 40.8"/><path class="cls-5" d="M312.36,114v.64l-.44.45-2.67,2.68-.44.45H237.14l-.45-.45L234,115.05l-.45-.45v-72l.45-.45,2.66-2.67.45-.45h71.67l.44.45,2.67,2.67.44.45V114Zm-3.09-.63V43.88l-1.75-1.76h-69.1l-1.75,1.76v69.45l1.75,1.76h69.1Z" transform="translate(0 -3.08)"/><path class="cls-5" d="M244.46,45.13a5.21,5.21,0,1,1-3.67,1.53A5.17,5.17,0,0,1,244.46,45.13Zm1.48,3.73a2.08,2.08,0,0,0-1.48-.6A2.09,2.09,0,0,0,243,51.83a2.08,2.08,0,0,0,1.47.61,2.16,2.16,0,0,0,1.48-.61,2.09,2.09,0,0,0,.6-1.48A2.17,2.17,0,0,0,245.94,48.86Z" transform="translate(0 -3.08)"/><path class="cls-5" d="M249.77,30.41a1.56,1.56,0,1,0-3.11,0V40.56a1.56,1.56,0,1,0,3.11,0Z" transform="translate(0 -3.08)"/><path class="cls-5" d="M249.77,117.13a1.56,1.56,0,1,0-3.11,0v10.15a1.56,1.56,0,1,0,3.11,0Z" transform="translate(0 -3.08)"/><path class="cls-5" d="M261.56,30.41a1.56,1.56,0,1,0-3.11,0V40.56a1.56,1.56,0,1,0,3.11,0Z" transform="translate(0 -3.08)"/><path class="cls-5" d="M261.56,117.13a1.56,1.56,0,1,0-3.11,0v10.15a1.56,1.56,0,1,0,3.11,0Z" transform="translate(0 -3.08)"/><path class="cls-5" d="M273.36,30.41a1.56,1.56,0,1,0-3.11,0V40.56a1.56,1.56,0,1,0,3.11,0Z" transform="translate(0 -3.08)"/><path class="cls-5" d="M273.36,117.13a1.56,1.56,0,1,0-3.11,0v10.15a1.56,1.56,0,1,0,3.11,0Z" transform="translate(0 -3.08)"/><path class="cls-5" d="M285.16,30.41a1.56,1.56,0,1,0-3.11,0V40.56a1.56,1.56,0,1,0,3.11,0Z" transform="translate(0 -3.08)"/><path class="cls-5" d="M285.16,117.13a1.56,1.56,0,1,0-3.11,0v10.15a1.56,1.56,0,1,0,3.11,0Z" transform="translate(0 -3.08)"/><path class="cls-5" d="M297,30.41a1.56,1.56,0,1,0-3.11,0V40.56a1.56,1.56,0,1,0,3.11,0Z" transform="translate(0 -3.08)"/><path class="cls-5" d="M297,117.13a1.56,1.56,0,1,0-3.11,0v10.15a1.56,1.56,0,1,0,3.11,0Z" transform="translate(0 -3.08)"/><path class="cls-5" d="M234.42,56.4a1.56,1.56,0,0,0,0-3.12H224.31a1.56,1.56,0,0,0,0,3.12Z" transform="translate(0 -3.08)"/><path class="cls-5" d="M234.42,68.26a1.57,1.57,0,0,0,0-3.13H224.31a1.57,1.57,0,0,0,0,3.13Z" transform="translate(0 -3.08)"/><path class="cls-5" d="M234.42,80.11a1.56,1.56,0,0,0,0-3.12H224.31a1.56,1.56,0,0,0,0,3.12Z" transform="translate(0 -3.08)"/><path class="cls-5" d="M234.42,92a1.57,1.57,0,0,0,0-3.13H224.31a1.57,1.57,0,0,0,0,3.13Z" transform="translate(0 -3.08)"/><path class="cls-5" d="M234.42,103.83a1.57,1.57,0,0,0,0-3.13H224.31a1.57,1.57,0,0,0,0,3.13Z" transform="translate(0 -3.08)"/><path class="cls-5" d="M321.2,56.4a1.56,1.56,0,1,0,0-3.12H311.1a1.56,1.56,0,0,0,0,3.12Z" transform="translate(0 -3.08)"/><path class="cls-5" d="M321.2,68.26a1.57,1.57,0,0,0,0-3.13H311.1a1.57,1.57,0,0,0,0,3.13Z" transform="translate(0 -3.08)"/><path class="cls-5" d="M321.2,80.11a1.56,1.56,0,1,0,0-3.12H311.1a1.56,1.56,0,0,0,0,3.12Z" transform="translate(0 -3.08)"/><path class="cls-5" d="M321.2,92a1.57,1.57,0,0,0,0-3.13H311.1a1.57,1.57,0,0,0,0,3.13Z" transform="translate(0 -3.08)"/><path class="cls-5" d="M321.2,103.83a1.57,1.57,0,0,0,0-3.13H311.1a1.57,1.57,0,0,0,0,3.13Z" transform="translate(0 -3.08)"/></g><path class="cls-2" d="M268.36,65.21a1.25,1.25,0,0,1,1,.39,1.41,1.41,0,0,1,.36,1V88.9a1.42,1.42,0,0,1-.43,1.09,1.49,1.49,0,0,1-1.08.42,1.56,1.56,0,0,1-.61-.13,1.2,1.2,0,0,1-.51-.34L251.65,69.56l.72-.39V89.08a1.29,1.29,0,0,1-.37,1,1.37,1.37,0,0,1-1,.38,1.3,1.3,0,0,1-1-.38,1.32,1.32,0,0,1-.36-1V66.68a1.41,1.41,0,0,1,.44-1.08,1.43,1.43,0,0,1,1-.39,2,2,0,0,1,.67.12,1,1,0,0,1,.52.42l15.16,20-.43.58V66.58a1.38,1.38,0,0,1,.37-1A1.29,1.29,0,0,1,268.36,65.21Z" transform="translate(0 -3.08)"/><path class="cls-2" d="M294.64,65.21a1.25,1.25,0,0,1,1,.39,1.41,1.41,0,0,1,.36,1V88.9a1.42,1.42,0,0,1-.43,1.09,1.49,1.49,0,0,1-1.08.42,1.56,1.56,0,0,1-.61-.13,1.2,1.2,0,0,1-.51-.34L277.93,69.56l.72-.39V89.08a1.29,1.29,0,0,1-.37,1,1.37,1.37,0,0,1-1,.38,1.3,1.3,0,0,1-1-.38,1.32,1.32,0,0,1-.36-1V66.68a1.41,1.41,0,0,1,.44-1.08,1.43,1.43,0,0,1,1-.39,2,2,0,0,1,.67.12,1,1,0,0,1,.52.42l15.16,20-.43.58V66.58a1.38,1.38,0,0,1,.37-1A1.29,1.29,0,0,1,294.64,65.21Z" transform="translate(0 -3.08)"/><line class="cls-6" x1="197.76" y1="75.77" x2="220.59" y2="75.5"/><polygon class="cls-2" points="214.06 83.75 212.68 82.31 219.82 75.51 212.52 68.88 213.87 67.4 222.76 75.47 214.06 83.75"/><line class="cls-6" x1="100.35" y1="144.43" x2="248.21" y2="144.43"/><line class="cls-6" x1="248.21" y1="127.93" x2="248.21" y2="144.43"/><polygon class="cls-2" points="240.03 134.56 241.5 135.93 248.21 128.7 254.93 135.93 256.39 134.56 248.21 125.77 240.03 134.56"/><rect class="cls-7" x="377.12" y="29.52" width="30.35" height="92.48"/><path class="cls-2" d="M329.89,4.2a5.19,5.19,0,0,1,2.76.76,5.35,5.35,0,0,1,2,2.07,6.23,6.23,0,0,1,.71,3,6.36,6.36,0,0,1-.71,3,5.62,5.62,0,0,1-2,2.14,5.05,5.05,0,0,1-2.76.8H324.2l.2-.36v7a1.12,1.12,0,0,1-.31.81,1,1,0,0,1-.78.34,1,1,0,0,1-.81-.34,1.12,1.12,0,0,1-.31-.81V5.35a1.14,1.14,0,0,1,1.15-1.15Zm0,9.58a2.73,2.73,0,0,0,1.61-.51,3.53,3.53,0,0,0,1.13-1.36,4.23,4.23,0,0,0,.42-1.89,4,4,0,0,0-.42-1.86,3.41,3.41,0,0,0-1.13-1.3,2.85,2.85,0,0,0-1.61-.48H324.2l.2-.33v8l-.2-.28Z" transform="translate(0 -3.08)"/><path class="cls-2" d="M339.72,23.8a1,1,0,0,1-.8-.34,1.09,1.09,0,0,1-.32-.81V10.47a1.08,1.08,0,0,1,.32-.82,1.15,1.15,0,0,1,1.61,0,1.16,1.16,0,0,1,.31.82v3.67l-.34-.59a6.13,6.13,0,0,1,1.71-3.18,5.2,5.2,0,0,1,1.54-1,4.74,4.74,0,0,1,1.9-.38,2.36,2.36,0,0,1,1.14.29.93.93,0,0,1,.51.83,1.17,1.17,0,0,1-.3.88,1,1,0,0,1-.7.3,1.54,1.54,0,0,1-.7-.17,1.93,1.93,0,0,0-.84-.17,2.79,2.79,0,0,0-1.39.39,4.54,4.54,0,0,0-1.26,1.08,5.69,5.69,0,0,0-.92,1.57,5,5,0,0,0-.35,1.89v6.8a1.1,1.1,0,0,1-.33.81A1,1,0,0,1,339.72,23.8Z" transform="translate(0 -3.08)"/><path class="cls-2" d="M355.76,24.08a7.87,7.87,0,0,1-3.92-.95,6.87,6.87,0,0,1-2.62-2.62,7.76,7.76,0,0,1-.94-3.85,8.44,8.44,0,0,1,1-4.16,6.8,6.8,0,0,1,2.52-2.63A6.38,6.38,0,0,1,355.06,9a6.67,6.67,0,0,1,2.51.48,6.17,6.17,0,0,1,2.12,1.4,6.84,6.84,0,0,1,1.5,2.18,7.36,7.36,0,0,1,.59,2.86,1.07,1.07,0,0,1-.36.74,1.2,1.2,0,0,1-.79.29H349.57l-.5-1.93h10.78l-.45.39v-.61a3.7,3.7,0,0,0-.77-2,4.59,4.59,0,0,0-3.57-1.72,4.66,4.66,0,0,0-1.67.31,4.12,4.12,0,0,0-1.48,1A4.55,4.55,0,0,0,350.86,14a7.08,7.08,0,0,0-.39,2.49,6,6,0,0,0,.66,2.86A4.88,4.88,0,0,0,353,21.29a5.09,5.09,0,0,0,2.72.72,5.43,5.43,0,0,0,1.72-.25,5.15,5.15,0,0,0,1.24-.63,6,6,0,0,0,.9-.77,1.22,1.22,0,0,1,.7-.26,1,1,0,0,1,.7.28.91.91,0,0,1,.28.68,1.11,1.11,0,0,1-.48.86,6.76,6.76,0,0,1-2.12,1.52A6.54,6.54,0,0,1,355.76,24.08Z" transform="translate(0 -3.08)"/><path class="cls-2" d="M376.79,3.08a1.1,1.1,0,0,1,.81.32,1.18,1.18,0,0,1,.31.83V22.65a1.13,1.13,0,0,1-.32.81,1.07,1.07,0,0,1-.8.34,1.05,1.05,0,0,1-.82-.34,1.16,1.16,0,0,1-.3-.81V20l.53-.17a2.84,2.84,0,0,1-.42,1.39,5.67,5.67,0,0,1-1.15,1.4,5.73,5.73,0,0,1-1.72,1.06,5.55,5.55,0,0,1-2.11.41,6.22,6.22,0,0,1-3.43-1A6.84,6.84,0,0,1,365,20.41a8.32,8.32,0,0,1-.88-3.89A8.41,8.41,0,0,1,365,12.6a6.74,6.74,0,0,1,2.39-2.67,6.08,6.08,0,0,1,3.36-1,6.19,6.19,0,0,1,2.21.39,5.82,5.82,0,0,1,1.81,1.07A5.47,5.47,0,0,1,376,11.9a3.29,3.29,0,0,1,.44,1.62l-.72-.16V4.23a1.16,1.16,0,0,1,.3-.81A1.05,1.05,0,0,1,376.79,3.08ZM371,22a4.34,4.34,0,0,0,2.49-.72,4.79,4.79,0,0,0,1.67-2,6.37,6.37,0,0,0,.6-2.81,6.37,6.37,0,0,0-.6-2.81,4.74,4.74,0,0,0-1.68-2A4.37,4.37,0,0,0,371,11a4.3,4.3,0,0,0-2.45.72,4.84,4.84,0,0,0-1.69,2,6.11,6.11,0,0,0-.62,2.81,6.09,6.09,0,0,0,.62,2.79,5,5,0,0,0,1.69,2A4.23,4.23,0,0,0,371,22Z" transform="translate(0 -3.08)"/><path class="cls-2" d="M383.06,7.22a1.59,1.59,0,0,1-1-.28,1.05,1.05,0,0,1-.33-.86v-.4a1,1,0,0,1,.36-.86,1.65,1.65,0,0,1,1-.28,1.56,1.56,0,0,1,1,.28,1.05,1.05,0,0,1,.33.86v.4a1,1,0,0,1-.35.86A1.57,1.57,0,0,1,383.06,7.22Zm1.15,15.43a1.13,1.13,0,0,1-.32.81,1.15,1.15,0,0,1-1.63,0,1.13,1.13,0,0,1-.32-.81V10.25a1.13,1.13,0,0,1,.32-.81,1.15,1.15,0,0,1,1.63,0,1.13,1.13,0,0,1,.32.81Z" transform="translate(0 -3.08)"/><path class="cls-2" d="M394.54,9a9.68,9.68,0,0,1,2.57.31,4.74,4.74,0,0,1,1.82.84,1.51,1.51,0,0,1,.68,1.2,1.23,1.23,0,0,1-.24.73.81.81,0,0,1-.69.34,1.17,1.17,0,0,1-.63-.16,2.54,2.54,0,0,1-.45-.36,2.47,2.47,0,0,0-.57-.41,3.88,3.88,0,0,0-1-.29,6.27,6.27,0,0,0-1.29-.13,5,5,0,0,0-2.69.73,5.15,5.15,0,0,0-1.83,2,5.82,5.82,0,0,0-.66,2.8,5.93,5.93,0,0,0,.65,2.8,5,5,0,0,0,1.79,2,4.8,4.8,0,0,0,2.66.73,5.85,5.85,0,0,0,1.54-.17,4.34,4.34,0,0,0,1-.39,3.75,3.75,0,0,0,.77-.56,1.06,1.06,0,0,1,1.47,0,1.11,1.11,0,0,1,.25.75,1.48,1.48,0,0,1-.7,1.09,5.75,5.75,0,0,1-1.89.94,8.94,8.94,0,0,1-2.7.38,7,7,0,0,1-3.73-1,6.76,6.76,0,0,1-2.47-2.72,8.3,8.3,0,0,1-.89-3.85,8.12,8.12,0,0,1,.91-3.84A7.12,7.12,0,0,1,390.76,10,7,7,0,0,1,394.54,9Z" transform="translate(0 -3.08)"/><path class="cls-2" d="M402.07,9.41h6.58a1,1,0,0,1,.74.31,1,1,0,0,1,.3.75,1,1,0,0,1-.3.72,1,1,0,0,1-.74.29h-6.58a1,1,0,0,1-.74-.31,1,1,0,0,1,0-1.47A1.08,1.08,0,0,1,402.07,9.41ZM405,5.6a1,1,0,0,1,.79.34,1.16,1.16,0,0,1,.3.81V20.24a2,2,0,0,0,.2,1,1,1,0,0,0,.52.46,1.58,1.58,0,0,0,.63.13,1.1,1.1,0,0,0,.49-.1,1.22,1.22,0,0,1,.49-.1.67.67,0,0,1,.51.27,1,1,0,0,1-.34,1.54,2.61,2.61,0,0,1-1.32.35c-.26,0-.58,0-1-.06a2.72,2.72,0,0,1-1.13-.36,2.47,2.47,0,0,1-.94-1,4.39,4.39,0,0,1-.38-2V6.75A1.16,1.16,0,0,1,405,5.6Z" transform="translate(0 -3.08)"/><path class="cls-2" d="M413.8,7.22a1.56,1.56,0,0,1-1-.28,1,1,0,0,1-.34-.86v-.4a1,1,0,0,1,.36-.86,1.67,1.67,0,0,1,1-.28,1.54,1.54,0,0,1,1,.28,1.05,1.05,0,0,1,.33.86v.4a1,1,0,0,1-.35.86A1.57,1.57,0,0,1,413.8,7.22ZM415,22.65a1.13,1.13,0,0,1-.32.81,1.05,1.05,0,0,1-.8.34,1.09,1.09,0,0,1-.83-.34,1.13,1.13,0,0,1-.32-.81V10.25a1.13,1.13,0,0,1,.32-.81,1.09,1.09,0,0,1,.83-.34,1.05,1.05,0,0,1,.8.34,1.13,1.13,0,0,1,.32.81Z" transform="translate(0 -3.08)"/><path class="cls-2" d="M432.59,16.52a7.89,7.89,0,0,1-.95,3.89,7.32,7.32,0,0,1-10,2.69A7.2,7.2,0,0,1,419,20.41a7.79,7.79,0,0,1-1-3.89,7.79,7.79,0,0,1,1-3.89A7.11,7.11,0,0,1,425.34,9a7,7,0,0,1,6.3,3.67A7.89,7.89,0,0,1,432.59,16.52Zm-2.24,0a5.87,5.87,0,0,0-.66-2.84,5,5,0,0,0-1.79-1.93,4.89,4.89,0,0,0-5.11,0A5,5,0,0,0,421,13.68a6,6,0,0,0-.65,2.84,6,6,0,0,0,.65,2.83,5,5,0,0,0,1.81,1.94,4.89,4.89,0,0,0,5.11,0,5,5,0,0,0,1.79-1.94A5.91,5.91,0,0,0,430.35,16.52Z" transform="translate(0 -3.08)"/><path class="cls-2" d="M443,9a5.09,5.09,0,0,1,3,.78,4.25,4.25,0,0,1,1.55,2.1,8.9,8.9,0,0,1,.47,3v7.84a1.1,1.1,0,0,1-.33.81,1,1,0,0,1-.79.34,1.05,1.05,0,0,1-.82-.34,1.16,1.16,0,0,1-.3-.81V14.87a5.35,5.35,0,0,0-.33-1.93,2.84,2.84,0,0,0-1.07-1.39,3.5,3.5,0,0,0-2-.52,4.54,4.54,0,0,0-2.16.52,4.29,4.29,0,0,0-1.56,1.39,3.29,3.29,0,0,0-.59,1.93v7.78a1.13,1.13,0,0,1-.32.81,1.07,1.07,0,0,1-.8.34,1,1,0,0,1-.8-.34,1.09,1.09,0,0,1-.32-.81V10.47a1.08,1.08,0,0,1,.32-.82,1.15,1.15,0,0,1,1.61,0,1.16,1.16,0,0,1,.31.82v2l-.56.62a3.93,3.93,0,0,1,.64-1.47,5.87,5.87,0,0,1,1.26-1.33,6.59,6.59,0,0,1,1.68-.94A5.5,5.5,0,0,1,443,9Z" transform="translate(0 -3.08)"/><path class="cls-2" d="M451.35,21.5a1.34,1.34,0,0,1-.21-.77.91.91,0,0,1,.46-.71,1.11,1.11,0,0,1,.69-.17,1,1,0,0,1,.68.37,6.46,6.46,0,0,0,1.8,1.47,5.14,5.14,0,0,0,2.46.54,5.86,5.86,0,0,0,1.33-.22,2.46,2.46,0,0,0,1.15-.69,1.8,1.8,0,0,0,.46-1.3,1.66,1.66,0,0,0-.48-1.25,3.57,3.57,0,0,0-1.24-.75,15,15,0,0,0-1.64-.52c-.62-.17-1.22-.35-1.82-.56a6.72,6.72,0,0,1-1.61-.8,3.76,3.76,0,0,1-1.15-1.23,3.57,3.57,0,0,1-.43-1.83,3.63,3.63,0,0,1,.68-2.19,4.56,4.56,0,0,1,1.84-1.43,6.34,6.34,0,0,1,2.55-.5,7.89,7.89,0,0,1,1.63.18,6.26,6.26,0,0,1,1.67.62A4.62,4.62,0,0,1,461.6,11a1.11,1.11,0,0,1,.28.7.89.89,0,0,1-.37.75,1,1,0,0,1-.68.21.9.9,0,0,1-.63-.26,3.93,3.93,0,0,0-1.5-1.11,5,5,0,0,0-1.95-.38,4,4,0,0,0-1.28.21,2.59,2.59,0,0,0-1.08.66,1.87,1.87,0,0,0,.07,2.49,3.24,3.24,0,0,0,1.29.77c.54.2,1.13.39,1.79.58a17.28,17.28,0,0,1,1.72.52,5.9,5.9,0,0,1,1.5.77,3.35,3.35,0,0,1,1.06,1.21,4,4,0,0,1,.39,1.87,3.54,3.54,0,0,1-.72,2.22,4.63,4.63,0,0,1-1.92,1.43,6.63,6.63,0,0,1-2.56.49,8.63,8.63,0,0,1-3.06-.57A6,6,0,0,1,451.35,21.5Z" transform="translate(0 -3.08)"/><line class="cls-6" x1="322.76" y1="75.47" x2="374.95" y2="75.47"/><polygon class="cls-2" points="368.32 83.65 366.95 82.19 374.18 75.47 366.95 68.76 368.32 67.29 377.12 75.47 368.32 83.65"/><rect class="cls-7" x="377.12" y="125.81" width="30.35" height="37.25"/><line class="cls-6" x1="322.76" y1="99.18" x2="322.76" y2="144.43"/><line class="cls-6" x1="374.95" y1="144.43" x2="322.76" y2="144.43"/><polygon class="cls-2" points="368.32 136.25 366.95 137.72 374.18 144.43 366.95 151.15 368.32 152.61 377.12 144.43 368.32 136.25"/><path class="cls-2" d="M18.67,221.36a1.2,1.2,0,0,1-.81-.3,1,1,0,0,1-.33-.79,1,1,0,0,1,.33-.77,1.24,1.24,0,0,1,.81-.29h13a1.16,1.16,0,0,1,.82.31,1,1,0,0,1,.33.78,1,1,0,0,1-.33.77,1.19,1.19,0,0,1-.82.29Zm6.5,17.45A1.14,1.14,0,0,1,24,237.66V220.38h2.38v17.28a1.1,1.1,0,0,1-.33.81A1.16,1.16,0,0,1,25.17,238.81Z" transform="translate(0 -3.08)"/><path class="cls-2" d="M35.25,238.81a1.05,1.05,0,0,1-.8-.34,1.13,1.13,0,0,1-.32-.81V225.48a1.15,1.15,0,0,1,.32-.83,1.11,1.11,0,0,1,.8-.32,1.07,1.07,0,0,1,.81.32,1.14,1.14,0,0,1,.31.83v3.67l-.34-.59a6.36,6.36,0,0,1,.61-1.69,5.75,5.75,0,0,1,1.1-1.49,5,5,0,0,1,1.54-1,4.62,4.62,0,0,1,1.91-.38,2.21,2.21,0,0,1,1.13.29.91.91,0,0,1,.52.83,1.15,1.15,0,0,1-.31.88,1,1,0,0,1-.7.29,1.56,1.56,0,0,1-.7-.16,1.75,1.75,0,0,0-.84-.17,2.79,2.79,0,0,0-1.39.39,4.84,4.84,0,0,0-1.26,1.08,5.55,5.55,0,0,0-.92,1.57,5.07,5.07,0,0,0-.35,1.88v6.81a1.13,1.13,0,0,1-.32.81A1.05,1.05,0,0,1,35.25,238.81Z" transform="translate(0 -3.08)"/><path class="cls-2" d="M56.81,224.19a1.07,1.07,0,0,1,.81.32,1.1,1.1,0,0,1,.31.8v12.35a1.13,1.13,0,0,1-.32.81,1.05,1.05,0,0,1-.8.34,1,1,0,0,1-.81-.34,1.12,1.12,0,0,1-.31-.81V235l.53-.06a2.68,2.68,0,0,1-.42,1.36,5.3,5.3,0,0,1-1.15,1.35,6.19,6.19,0,0,1-1.72,1,5.55,5.55,0,0,1-2.11.41,6.09,6.09,0,0,1-3.45-1,7,7,0,0,1-2.39-2.7,9.08,9.08,0,0,1,0-7.8,6.93,6.93,0,0,1,2.39-2.66,6.15,6.15,0,0,1,3.36-1,6.28,6.28,0,0,1,2.24.39,6,6,0,0,1,1.81,1.06,5.39,5.39,0,0,1,1.2,1.49,3.41,3.41,0,0,1,.44,1.62l-.73-.17v-3.05a1.1,1.1,0,0,1,.31-.8A1.07,1.07,0,0,1,56.81,224.19ZM51,237a4.36,4.36,0,0,0,2.48-.73,4.93,4.93,0,0,0,1.68-2,6.4,6.4,0,0,0,.6-2.81,6.23,6.23,0,0,0-.6-2.77,4.87,4.87,0,0,0-1.68-2A4.28,4.28,0,0,0,51,226a4.39,4.39,0,0,0-2.45.71,4.94,4.94,0,0,0-1.69,1.95,6.17,6.17,0,0,0-.62,2.8,6.27,6.27,0,0,0,.62,2.81,5,5,0,0,0,1.69,2A4.33,4.33,0,0,0,51,237Z" transform="translate(0 -3.08)"/><path class="cls-2" d="M63.08,222.23a1.56,1.56,0,0,1-1-.28,1,1,0,0,1-.34-.87v-.39a1,1,0,0,1,.36-.87,1.74,1.74,0,0,1,1-.28,1.6,1.6,0,0,1,1,.28,1.09,1.09,0,0,1,.33.87v.39a1,1,0,0,1-.35.87A1.57,1.57,0,0,1,63.08,222.23Zm1.15,15.43a1.13,1.13,0,0,1-.32.81,1.05,1.05,0,0,1-.8.34,1.09,1.09,0,0,1-.83-.34,1.13,1.13,0,0,1-.32-.81v-12.4a1.17,1.17,0,0,1,.32-.82,1.12,1.12,0,0,1,.83-.33,1.08,1.08,0,0,1,.8.33,1.17,1.17,0,0,1,.32.82Z" transform="translate(0 -3.08)"/><path class="cls-2" d="M75.46,224a5,5,0,0,1,3,.78,4.24,4.24,0,0,1,1.56,2.1,8.9,8.9,0,0,1,.46,3v7.84a1.13,1.13,0,0,1-.32.81,1.05,1.05,0,0,1-.8.34,1,1,0,0,1-.81-.34,1.12,1.12,0,0,1-.31-.81v-7.78a5.68,5.68,0,0,0-.32-1.94,2.85,2.85,0,0,0-1.08-1.38,3.48,3.48,0,0,0-2-.52,4.47,4.47,0,0,0-2.15.52,4.13,4.13,0,0,0-1.57,1.38,3.41,3.41,0,0,0-.59,1.94v7.78a1.13,1.13,0,0,1-.32.81,1,1,0,0,1-.8.34,1.05,1.05,0,0,1-.8-.34,1.13,1.13,0,0,1-.32-.81V225.48a1.15,1.15,0,0,1,.32-.83,1.11,1.11,0,0,1,.8-.32,1.07,1.07,0,0,1,.81.32,1.14,1.14,0,0,1,.31.83v2l-.56.62a3.91,3.91,0,0,1,.65-1.48,5.61,5.61,0,0,1,1.26-1.32,6,6,0,0,1,1.68-.94A5.24,5.24,0,0,1,75.46,224Z" transform="translate(0 -3.08)"/><rect class="cls-3" x="1" y="277" width="99.35" height="37.25"/><path class="cls-2" d="M23.61,290.55a1.12,1.12,0,0,1-.81-.31,1,1,0,0,1-.34-.78,1,1,0,0,1,.34-.77,1.16,1.16,0,0,1,.81-.3h13a1.12,1.12,0,0,1,.81.31,1,1,0,0,1,.34.78,1,1,0,0,1-.34.77,1.16,1.16,0,0,1-.81.3ZM30.11,308a1.15,1.15,0,0,1-.86-.33,1.17,1.17,0,0,1-.32-.82V289.57h2.38v17.27a1.14,1.14,0,0,1-.33.82A1.21,1.21,0,0,1,30.11,308Z" transform="translate(0 -3.08)"/><path class="cls-2" d="M43.94,308.27a7.87,7.87,0,0,1-3.92-.95,6.8,6.8,0,0,1-2.62-2.62,7.76,7.76,0,0,1-.94-3.85,8.44,8.44,0,0,1,1-4.16A6.87,6.87,0,0,1,40,294.06a6.48,6.48,0,0,1,3.29-.91,6.67,6.67,0,0,1,2.51.48,6.32,6.32,0,0,1,2.12,1.4,6.84,6.84,0,0,1,1.5,2.18,7.36,7.36,0,0,1,.59,2.86,1.05,1.05,0,0,1-.36.74,1.15,1.15,0,0,1-.79.29H37.75l-.5-1.93H48l-.45.39V299a3.7,3.7,0,0,0-.77-2,4.59,4.59,0,0,0-3.57-1.72,4.66,4.66,0,0,0-1.67.31,4.26,4.26,0,0,0-1.48.95A4.55,4.55,0,0,0,39,298.19a7.08,7.08,0,0,0-.39,2.49,6,6,0,0,0,.66,2.86,5,5,0,0,0,1.83,1.95,5.24,5.24,0,0,0,5.68-.17,5.46,5.46,0,0,0,.9-.77,1.22,1.22,0,0,1,.7-.25.94.94,0,0,1,.7.28.89.89,0,0,1,.28.67,1.13,1.13,0,0,1-.48.87,6.9,6.9,0,0,1-2.12,1.51A6.54,6.54,0,0,1,43.94,308.27Z" transform="translate(0 -3.08)"/><path class="cls-2" d="M52.34,305.7a1.36,1.36,0,0,1-.21-.77.92.92,0,0,1,.46-.72,1.18,1.18,0,0,1,.69-.17,1,1,0,0,1,.68.37,6.46,6.46,0,0,0,1.8,1.47,5.14,5.14,0,0,0,2.46.54,5.35,5.35,0,0,0,1.33-.22,2.46,2.46,0,0,0,1.15-.69,1.8,1.8,0,0,0,.46-1.3,1.63,1.63,0,0,0-.48-1.24,3.58,3.58,0,0,0-1.24-.76,15,15,0,0,0-1.64-.52c-.62-.17-1.22-.35-1.82-.56a6.37,6.37,0,0,1-1.61-.8,3.66,3.66,0,0,1-1.15-1.23,3.54,3.54,0,0,1-.43-1.83,3.63,3.63,0,0,1,.68-2.19,4.46,4.46,0,0,1,1.84-1.42,6.18,6.18,0,0,1,2.55-.51,7.89,7.89,0,0,1,1.63.18,6.62,6.62,0,0,1,1.67.62,4.76,4.76,0,0,1,1.43,1.19,1.13,1.13,0,0,1,.28.7.92.92,0,0,1-.37.76,1,1,0,0,1-.68.21.91.91,0,0,1-.63-.27,4.14,4.14,0,0,0-1.5-1.11,5,5,0,0,0-1.95-.37,4,4,0,0,0-1.28.21,2.67,2.67,0,0,0-1.08.65,1.74,1.74,0,0,0-.44,1.26,1.78,1.78,0,0,0,.51,1.24,3.48,3.48,0,0,0,1.29.77c.54.19,1.13.38,1.79.57s1.17.32,1.72.52a5.9,5.9,0,0,1,1.5.77,3.38,3.38,0,0,1,1.06,1.22,3.94,3.94,0,0,1,.39,1.86,3.52,3.52,0,0,1-.72,2.22,4.54,4.54,0,0,1-1.92,1.43,6.63,6.63,0,0,1-2.56.49,8.63,8.63,0,0,1-3.06-.57A5.93,5.93,0,0,1,52.34,305.7Z" transform="translate(0 -3.08)"/><path class="cls-2" d="M65.89,293.6h6.58a1,1,0,0,1,.74.31,1,1,0,0,1,.3.75,1,1,0,0,1-.3.72,1,1,0,0,1-.74.29H65.89a1,1,0,0,1-.74-.31.93.93,0,0,1-.32-.72,1,1,0,0,1,.32-.75A1.08,1.08,0,0,1,65.89,293.6Zm2.94-3.81a1,1,0,0,1,.79.34,1.16,1.16,0,0,1,.3.81v13.5a2,2,0,0,0,.2,1,1,1,0,0,0,.52.47,1.76,1.76,0,0,0,.63.12,1.1,1.1,0,0,0,.49-.1,1.22,1.22,0,0,1,.49-.09.69.69,0,0,1,.52.26,1,1,0,0,1,.23.69,1,1,0,0,1-.58.85,2.51,2.51,0,0,1-1.32.35c-.26,0-.58,0-1-.05a2.89,2.89,0,0,1-1.13-.37,2.35,2.35,0,0,1-.94-1,4.36,4.36,0,0,1-.38-2V290.94a1.11,1.11,0,0,1,.34-.81A1.07,1.07,0,0,1,68.83,289.79Z" transform="translate(0 -3.08)"/><rect class="cls-1" x="104.37" y="180.72" width="27.12" height="27.12"/><rect class="cls-3" x="104.37" y="246.08" width="27.12" height="27.12"/><rect class="cls-1" x="104.37" y="213.4" width="27.12" height="27.12"/><rect class="cls-1" x="136.43" y="180.72" width="27.12" height="27.12"/><rect class="cls-1" x="136.43" y="246.08" width="27.12" height="27.12"/><rect class="cls-3" x="136.43" y="213.4" width="27.12" height="27.12"/><rect class="cls-3" x="168.49" y="180.72" width="27.12" height="27.12"/><rect class="cls-1" x="168.49" y="246.08" width="27.12" height="27.12"/><rect class="cls-1" x="168.49" y="213.4" width="27.12" height="27.12"/><g id="_375176344-2" data-name=" 375176344"><path class="cls-4" d="M243,200.06a2.11,2.11,0,0,1,1.48-.61,2,2,0,0,1,1.47.61,2.15,2.15,0,0,1,.6,1.48,2.08,2.08,0,0,1-.6,1.48,2.11,2.11,0,0,1-1.47.61A2,2,0,0,1,243,203a2.15,2.15,0,0,1-.6-1.48A2.08,2.08,0,0,1,243,200.06Z" transform="translate(0 -3.08)"/><path class="cls-4" d="M236.67,253.45V195.08l1.75-1.76h69.1l1.75,1.76v69.45l-1.75,1.76h-69.1l-1.75-1.76Zm2.61-51.91a5.19,5.19,0,0,0,5.19,5.22,5.17,5.17,0,0,0,3.67-1.53,5.26,5.26,0,0,0,0-7.38,5.2,5.2,0,0,0-7.35,0A5.28,5.28,0,0,0,239.28,201.54Z" transform="translate(0 -3.08)"/><path class="cls-5" d="M321.2,204.47a1.57,1.57,0,0,1,0,3.13h-8.84v-3.13Z" transform="translate(0 -3.08)"/><path class="cls-5" d="M321.2,216.33a1.56,1.56,0,1,1,0,3.12h-8.84v-3.12Z" transform="translate(0 -3.08)"/><path class="cls-5" d="M321.2,228.18a1.57,1.57,0,0,1,0,3.13h-8.84v-3.13Z" transform="translate(0 -3.08)"/><path class="cls-5" d="M321.2,240a1.56,1.56,0,0,1,0,3.12h-8.84V240Z" transform="translate(0 -3.08)"/><path class="cls-5" d="M321.2,251.89a1.57,1.57,0,0,1,0,3.13h-8.84v-3.13Z" transform="translate(0 -3.08)"/><path class="cls-5" d="M312.36,251.89V255H311.1a1.57,1.57,0,0,1,0-3.13Z" transform="translate(0 -3.08)"/><path class="cls-5" d="M312.36,240v3.12H311.1a1.56,1.56,0,0,1,0-3.12Z" transform="translate(0 -3.08)"/><path class="cls-5" d="M312.36,228.18v3.13H311.1a1.57,1.57,0,0,1,0-3.13Z" transform="translate(0 -3.08)"/><path class="cls-5" d="M312.36,216.33v3.12H311.1a1.56,1.56,0,0,1,0-3.12Z" transform="translate(0 -3.08)"/><path class="cls-5" d="M312.36,204.47v3.13H311.1a1.57,1.57,0,0,1,0-3.13Z" transform="translate(0 -3.08)"/><path class="cls-5" d="M312.36,194.41v10.06H311.1a1.55,1.55,0,0,0-1.55,1.56h-.28V195.08l-1.75-1.76H295.4a1.57,1.57,0,0,0,1.55-1.56v-1.57h11.86l.44.45,2.67,2.68.44.45Z" transform="translate(0 -3.08)"/><path class="cls-5" d="M311.1,207.6h1.26v8.73H311.1a1.55,1.55,0,0,0-1.55,1.56h-.28V206h.28A1.56,1.56,0,0,0,311.1,207.6Z" transform="translate(0 -3.08)"/><path class="cls-5" d="M311.1,219.45h1.26v8.73H311.1a1.55,1.55,0,0,0-1.55,1.56h-.28V217.89h.28A1.55,1.55,0,0,0,311.1,219.45Z" transform="translate(0 -3.08)"/><path class="cls-5" d="M311.1,231.31h1.26V240H311.1a1.55,1.55,0,0,0-1.55,1.56h-.28V229.74h.28A1.56,1.56,0,0,0,311.1,231.31Z" transform="translate(0 -3.08)"/><path class="cls-5" d="M311.1,243.16h1.26v8.73H311.1a1.56,1.56,0,0,0-1.55,1.56h-.28V241.6h.28A1.55,1.55,0,0,0,311.1,243.16Z" transform="translate(0 -3.08)"/><path class="cls-5" d="M311.1,255h1.26V265.8l-.44.45-2.67,2.67-.44.45H297v-1.05a1.56,1.56,0,0,0-1.55-1.56v-.47h12.12l1.75-1.76V253.45h.28A1.56,1.56,0,0,0,311.1,255Z" transform="translate(0 -3.08)"/><path class="cls-5" d="M297,269.37v9.1a1.56,1.56,0,1,1-3.11,0v-9.1Z" transform="translate(0 -3.08)"/><path class="cls-5" d="M297,269.37h-3.11v-1.05a1.56,1.56,0,1,1,3.11,0Z" transform="translate(0 -3.08)"/><path class="cls-5" d="M297,190.19v1.57a1.56,1.56,0,1,1-3.11,0v-1.57Z" transform="translate(0 -3.08)"/><path class="cls-5" d="M297,181.6v8.59h-3.11V181.6a1.56,1.56,0,1,1,3.11,0Z" transform="translate(0 -3.08)"/><path class="cls-5" d="M295.4,193.32H283.6a1.57,1.57,0,0,0,1.56-1.56v-1.57h8.68v1.57A1.57,1.57,0,0,0,295.4,193.32Z" transform="translate(0 -3.08)"/><path class="cls-5" d="M285.16,269.37v9.1a1.56,1.56,0,1,1-3.11,0v-9.1Z" transform="translate(0 -3.08)"/><path class="cls-5" d="M285.16,269.37h-3.11v-1.05a1.56,1.56,0,1,1,3.11,0Z" transform="translate(0 -3.08)"/><path class="cls-5" d="M293.84,268.32v1.05h-8.68v-1.05a1.56,1.56,0,0,0-1.56-1.56v-.47h11.8v.47A1.56,1.56,0,0,0,293.84,268.32Z" transform="translate(0 -3.08)"/><path class="cls-5" d="M285.16,190.19v1.57a1.56,1.56,0,1,1-3.11,0v-1.57Z" transform="translate(0 -3.08)"/><path class="cls-5" d="M285.16,181.6v8.59h-3.11V181.6a1.56,1.56,0,1,1,3.11,0Z" transform="translate(0 -3.08)"/><path class="cls-5" d="M283.6,193.32H271.81a1.57,1.57,0,0,0,1.55-1.56v-1.57h8.69v1.57A1.57,1.57,0,0,0,283.6,193.32Z" transform="translate(0 -3.08)"/><path class="cls-5" d="M273.36,269.37v9.1a1.56,1.56,0,1,1-3.11,0v-9.1Z" transform="translate(0 -3.08)"/><path class="cls-5" d="M273.36,269.37h-3.11v-1.05a1.56,1.56,0,1,1,3.11,0Z" transform="translate(0 -3.08)"/><path class="cls-5" d="M271.81,266.29H283.6v.47a1.56,1.56,0,0,0-1.55,1.56v1.05h-8.69v-1.05a1.56,1.56,0,0,0-1.55-1.56Z" transform="translate(0 -3.08)"/><path class="cls-5" d="M273.36,190.19v1.57a1.56,1.56,0,1,1-3.11,0v-1.57Z" transform="translate(0 -3.08)"/><path class="cls-5" d="M273.36,181.6v8.59h-3.11V181.6a1.56,1.56,0,1,1,3.11,0Z" transform="translate(0 -3.08)"/><path class="cls-5" d="M271.81,193.32H260a1.57,1.57,0,0,0,1.56-1.56v-1.57h8.68v1.57A1.57,1.57,0,0,0,271.81,193.32Z" transform="translate(0 -3.08)"/><path class="cls-5" d="M261.57,269.37v9.1a1.56,1.56,0,1,1-3.11,0v-9.1Z" transform="translate(0 -3.08)"/><path class="cls-5" d="M261.57,269.37h-3.11v-1.05a1.56,1.56,0,1,1,3.11,0Z" transform="translate(0 -3.08)"/><path class="cls-5" d="M261.57,268.32a1.56,1.56,0,0,0-1.56-1.56v-.47h11.8v.47a1.56,1.56,0,0,0-1.56,1.56v1.05h-8.68Z" transform="translate(0 -3.08)"/><path class="cls-5" d="M261.57,190.19v1.57a1.56,1.56,0,1,1-3.11,0v-1.57Z" transform="translate(0 -3.08)"/><path class="cls-5" d="M261.57,181.6v8.59h-3.11V181.6a1.56,1.56,0,1,1,3.11,0Z" transform="translate(0 -3.08)"/><path class="cls-5" d="M260,193.32H248.22a1.57,1.57,0,0,0,1.55-1.56v-1.57h8.69v1.57A1.57,1.57,0,0,0,260,193.32Z" transform="translate(0 -3.08)"/><path class="cls-5" d="M249.77,269.37v9.1a1.56,1.56,0,1,1-3.11,0v-9.1Z" transform="translate(0 -3.08)"/><path class="cls-5" d="M249.77,268.32v1.05h-3.11v-1.05a1.56,1.56,0,1,1,3.11,0Z" transform="translate(0 -3.08)"/><path class="cls-5" d="M248.22,266.29H260v.47a1.56,1.56,0,0,0-1.55,1.56v1.05h-8.69v-1.05a1.56,1.56,0,0,0-1.55-1.56Z" transform="translate(0 -3.08)"/><path class="cls-5" d="M249.77,190.19v1.57a1.56,1.56,0,1,1-3.11,0v-1.57Z" transform="translate(0 -3.08)"/><path class="cls-5" d="M249.77,181.6v8.59h-3.11V181.6a1.56,1.56,0,1,1,3.11,0Z" transform="translate(0 -3.08)"/><path class="cls-5" d="M248.14,197.85a5.26,5.26,0,0,1,0,7.38,5.18,5.18,0,0,1-7.35,0,5.22,5.22,0,0,1-1.51-3.69,5.28,5.28,0,0,1,1.51-3.69,5.2,5.2,0,0,1,7.35,0Zm-1.6,3.69a2.15,2.15,0,0,0-.6-1.48,2,2,0,0,0-1.47-.61,2.11,2.11,0,0,0-1.48.61,2.08,2.08,0,0,0-.6,1.48A2.15,2.15,0,0,0,243,203a2,2,0,0,0,1.48.61,2.11,2.11,0,0,0,1.47-.61A2.08,2.08,0,0,0,246.54,201.54Z" transform="translate(0 -3.08)"/><path class="cls-5" d="M233.58,243.16h.84a1.56,1.56,0,0,0,0-3.12h-.84v-8.73h.84a1.57,1.57,0,0,0,0-3.13h-.84v-8.73h.84a1.56,1.56,0,0,0,0-3.12h-.84V207.6h.84a1.57,1.57,0,0,0,0-3.13h-.84v-10.7l.45-.45,2.66-2.68.45-.45h9.52v1.57a1.57,1.57,0,0,0,1.56,1.56h-9.8l-1.75,1.76v58.37H236a1.57,1.57,0,0,0-1.55-1.56h-.84Z" transform="translate(0 -3.08)"/><path class="cls-5" d="M234.42,204.47a1.57,1.57,0,0,1,0,3.13h-.84v-3.13Z" transform="translate(0 -3.08)"/><path class="cls-5" d="M234.42,216.33a1.56,1.56,0,0,1,0,3.12h-.84v-3.12Z" transform="translate(0 -3.08)"/><path class="cls-5" d="M234.42,228.18a1.57,1.57,0,0,1,0,3.13h-.84v-3.13Z" transform="translate(0 -3.08)"/><path class="cls-5" d="M234.42,240a1.56,1.56,0,0,1,0,3.12h-.84V240Z" transform="translate(0 -3.08)"/><path class="cls-5" d="M234.42,251.89a1.57,1.57,0,0,1,0,3.13h-.84v-3.13Z" transform="translate(0 -3.08)"/><path class="cls-5" d="M238.42,266.29h9.8v.47a1.56,1.56,0,0,0-1.56,1.56v1.05h-9.52l-.45-.45L234,266.25l-.45-.45V255h.84a1.57,1.57,0,0,0,1.55-1.57h.7v11.08Z" transform="translate(0 -3.08)"/><path class="cls-5" d="M233.58,251.89V255h-9.27a1.57,1.57,0,0,1,0-3.13Z" transform="translate(0 -3.08)"/><path class="cls-5" d="M233.58,240v3.12h-9.27a1.56,1.56,0,0,1,0-3.12Z" transform="translate(0 -3.08)"/><path class="cls-5" d="M233.58,228.18v3.13h-9.27a1.57,1.57,0,0,1,0-3.13Z" transform="translate(0 -3.08)"/><path class="cls-5" d="M233.58,216.33v3.12h-9.27a1.56,1.56,0,0,1,0-3.12Z" transform="translate(0 -3.08)"/><path class="cls-5" d="M233.58,204.47v3.13h-9.27a1.57,1.57,0,0,1,0-3.13Z" transform="translate(0 -3.08)"/></g><path class="cls-2" d="M261.19,242a13.22,13.22,0,0,1-5.14-1,12.5,12.5,0,0,1-4.14-2.75,12.75,12.75,0,0,1-2.76-4.12,13.61,13.61,0,0,1,0-10.19,12.74,12.74,0,0,1,6.9-6.88,13.22,13.22,0,0,1,5.14-1,14.81,14.81,0,0,1,3.55.42,10.2,10.2,0,0,1,3.08,1.27,1.26,1.26,0,0,1,.54.53,1.43,1.43,0,0,1,.18.66,1.46,1.46,0,0,1-.42,1.05,1.29,1.29,0,0,1-.95.43,2.1,2.1,0,0,1-.43-.05,1.61,1.61,0,0,1-.4-.17,11.55,11.55,0,0,0-2.41-.91,10.6,10.6,0,0,0-2.74-.35,9.88,9.88,0,0,0-5.09,1.33,9.68,9.68,0,0,0-3.54,3.62,10.77,10.77,0,0,0,0,10.26,9.61,9.61,0,0,0,3.54,3.62,9.79,9.79,0,0,0,5.09,1.33,11.87,11.87,0,0,0,3-.39,11.1,11.1,0,0,0,2.59-1l-.22.86V231l.54.51h-5.47a1.42,1.42,0,0,1-1-.42,1.34,1.34,0,0,1-.44-1,1.43,1.43,0,0,1,.44-1.07,1.45,1.45,0,0,1,1-.41h6.55a1.37,1.37,0,0,1,1,.43,1.49,1.49,0,0,1,.41,1.05v8.31a1.46,1.46,0,0,1-.2.78,1.52,1.52,0,0,1-.52.55,14.49,14.49,0,0,1-3.58,1.66A13.59,13.59,0,0,1,261.19,242Z" transform="translate(0 -3.08)"/><path class="cls-2" d="M285.53,216.4a6.82,6.82,0,0,1,4.91,1.64,6.11,6.11,0,0,1,1.71,4.63,6,6,0,0,1-.72,2.91,5.37,5.37,0,0,1-2.1,2.13,7.4,7.4,0,0,1-3.44.86l0-1a10,10,0,0,1,2.6.36,7.62,7.62,0,0,1,2.44,1.16,6.09,6.09,0,0,1,1.84,2.08,6.57,6.57,0,0,1,.72,3.21,7.92,7.92,0,0,1-.68,3.45,6.06,6.06,0,0,1-1.82,2.24,7.47,7.47,0,0,1-2.52,1.18,11.26,11.26,0,0,1-2.83.36h-9.43a1.39,1.39,0,0,1-1-.43,1.41,1.41,0,0,1-.44-1V217.88a1.49,1.49,0,0,1,1.48-1.48Zm-.4,2.85h-7.74l.44-.61v8.92l-.4-.46h7.74a3.94,3.94,0,0,0,2.72-1,3.87,3.87,0,0,0,1.13-3,3.75,3.75,0,0,0-1-2.82A4,4,0,0,0,285.13,219.25Zm.26,10.73h-7.82l.26-.26v9.4l-.29-.33h8a5.28,5.28,0,0,0,3.44-1.08,4,4,0,0,0,1.35-3.34,4.34,4.34,0,0,0-.72-2.7,3.76,3.76,0,0,0-1.86-1.32A7.41,7.41,0,0,0,285.39,230Z" transform="translate(0 -3.08)"/><line class="cls-6" x1="197.76" y1="226.96" x2="220.59" y2="226.69"/><polygon class="cls-2" points="214.06 234.95 212.68 233.5 219.82 226.7 212.52 220.07 213.87 218.59 222.76 226.67 214.06 234.95"/><line class="cls-6" x1="100.35" y1="295.63" x2="248.21" y2="295.63"/><line class="cls-6" x1="248.21" y1="279.13" x2="248.21" y2="295.63"/><polygon class="cls-2" points="240.03 285.76 241.5 287.12 248.21 279.9 254.93 287.12 256.39 285.76 248.21 276.96 240.03 285.76"/><rect class="cls-7" x="377.12" y="180.72" width="30.35" height="92.48"/><line class="cls-6" x1="322.76" y1="226.67" x2="374.95" y2="226.67"/><polygon class="cls-2" points="368.32 234.85 366.95 233.38 374.18 226.67 366.95 219.96 368.32 218.49 377.12 226.67 368.32 234.85"/><rect class="cls-7" x="377.12" y="277" width="30.35" height="37.25"/><line class="cls-6" x1="322.76" y1="250.38" x2="322.76" y2="295.63"/><line class="cls-6" x1="374.95" y1="295.63" x2="322.76" y2="295.63"/><polygon class="cls-2" points="368.32 287.45 366.95 288.92 374.18 295.63 366.95 302.34 368.32 303.81 377.12 295.63 368.32 287.45"/><path class="cls-2" d="M18.67,372.39a1.16,1.16,0,0,1-.81-.31,1,1,0,0,1-.33-.78,1,1,0,0,1,.33-.77,1.19,1.19,0,0,1,.81-.29h13a1.2,1.2,0,0,1,.82.3,1,1,0,0,1,.33.79,1,1,0,0,1-.33.77,1.24,1.24,0,0,1-.82.29Zm6.5,17.45a1.14,1.14,0,0,1-.85-.34,1.1,1.1,0,0,1-.33-.81V371.41h2.38v17.28a1.1,1.1,0,0,1-.33.81A1.2,1.2,0,0,1,25.17,389.84Z" transform="translate(0 -3.08)"/><path class="cls-2" d="M35.25,389.84a1.09,1.09,0,0,1-.8-.34,1.13,1.13,0,0,1-.32-.81V376.51a1.15,1.15,0,0,1,.32-.83,1.11,1.11,0,0,1,.8-.32,1.07,1.07,0,0,1,.81.32,1.14,1.14,0,0,1,.31.83v3.67l-.34-.59a6.42,6.42,0,0,1,.61-1.7,5.88,5.88,0,0,1,1.1-1.48,5.23,5.23,0,0,1,1.54-1,4.78,4.78,0,0,1,1.91-.37,2.21,2.21,0,0,1,1.13.29.91.91,0,0,1,.52.83,1.15,1.15,0,0,1-.31.88,1,1,0,0,1-.7.29,1.45,1.45,0,0,1-.7-.17,1.88,1.88,0,0,0-.84-.16,2.79,2.79,0,0,0-1.39.39,4.84,4.84,0,0,0-1.26,1.08,5.64,5.64,0,0,0-.92,1.56,5.16,5.16,0,0,0-.35,1.89v6.81a1.13,1.13,0,0,1-.32.81A1.09,1.09,0,0,1,35.25,389.84Z" transform="translate(0 -3.08)"/><path class="cls-2" d="M56.81,375.22a1.07,1.07,0,0,1,.81.32,1.1,1.1,0,0,1,.31.8v12.35a1.13,1.13,0,0,1-.32.81,1.09,1.09,0,0,1-.8.34,1,1,0,0,1-.81-.34,1.12,1.12,0,0,1-.31-.81V386l.53-.06a2.71,2.71,0,0,1-.42,1.36,5.27,5.27,0,0,1-1.15,1.34,6,6,0,0,1-1.72,1,5.55,5.55,0,0,1-2.11.41,6.17,6.17,0,0,1-3.45-1,7,7,0,0,1-2.39-2.7,9.08,9.08,0,0,1,0-7.8A6.93,6.93,0,0,1,47.37,376a6.15,6.15,0,0,1,3.36-1,6.28,6.28,0,0,1,2.24.39,5.8,5.8,0,0,1,1.81,1.06,5.25,5.25,0,0,1,1.2,1.49,3.41,3.41,0,0,1,.44,1.62l-.73-.17v-3.05a1.1,1.1,0,0,1,.31-.8A1.07,1.07,0,0,1,56.81,375.22ZM51,388a4.35,4.35,0,0,0,2.48-.72,4.93,4.93,0,0,0,1.68-2,6.4,6.4,0,0,0,.6-2.81,6.23,6.23,0,0,0-.6-2.77,4.81,4.81,0,0,0-1.68-2,4.28,4.28,0,0,0-2.48-.73,4.39,4.39,0,0,0-2.45.71,4.94,4.94,0,0,0-1.69,2,6.17,6.17,0,0,0-.62,2.8,6.27,6.27,0,0,0,.62,2.81,5,5,0,0,0,1.69,2A4.32,4.32,0,0,0,51,388Z" transform="translate(0 -3.08)"/><path class="cls-2" d="M63.08,373.26a1.56,1.56,0,0,1-1-.28,1.06,1.06,0,0,1-.34-.87v-.39a1,1,0,0,1,.36-.87,1.74,1.74,0,0,1,1-.28,1.6,1.6,0,0,1,1,.28,1.09,1.09,0,0,1,.33.87v.39a1,1,0,0,1-.35.87A1.57,1.57,0,0,1,63.08,373.26Zm1.15,15.43a1.13,1.13,0,0,1-.32.81,1.09,1.09,0,0,1-.8.34A1.13,1.13,0,0,1,62,388.69V376.28a1.17,1.17,0,0,1,.32-.81,1.12,1.12,0,0,1,.83-.33,1.08,1.08,0,0,1,.8.33,1.17,1.17,0,0,1,.32.81Z" transform="translate(0 -3.08)"/><path class="cls-2" d="M75.46,375a5,5,0,0,1,3,.78,4.24,4.24,0,0,1,1.56,2.1,8.9,8.9,0,0,1,.46,3v7.84a1.13,1.13,0,0,1-.32.81,1.09,1.09,0,0,1-.8.34,1,1,0,0,1-.81-.34,1.12,1.12,0,0,1-.31-.81V380.9a5.62,5.62,0,0,0-.32-1.93,2.85,2.85,0,0,0-1.08-1.38,3.48,3.48,0,0,0-2-.52,4.47,4.47,0,0,0-2.15.52A4.13,4.13,0,0,0,71.09,379a3.38,3.38,0,0,0-.59,1.93v7.79a1.13,1.13,0,0,1-.32.81,1.07,1.07,0,0,1-.8.34,1.09,1.09,0,0,1-.8-.34,1.13,1.13,0,0,1-.32-.81V376.51a1.15,1.15,0,0,1,.32-.83,1.11,1.11,0,0,1,.8-.32,1.07,1.07,0,0,1,.81.32,1.14,1.14,0,0,1,.31.83v2l-.56.61a3.93,3.93,0,0,1,.65-1.47,5.84,5.84,0,0,1,1.26-1.33,6.24,6.24,0,0,1,1.68-.93A5.24,5.24,0,0,1,75.46,375Z" transform="translate(0 -3.08)"/><rect class="cls-3" x="1" y="428.03" width="99.35" height="37.25"/><path class="cls-2" d="M23.61,441.58a1.17,1.17,0,0,1-.81-.31,1,1,0,0,1-.34-.79,1,1,0,0,1,.34-.77,1.2,1.2,0,0,1,.81-.29h13a1.12,1.12,0,0,1,.81.31,1,1,0,0,1,.34.78,1,1,0,0,1-.34.77,1.16,1.16,0,0,1-.81.3ZM30.11,459a1.15,1.15,0,0,1-.86-.33,1.17,1.17,0,0,1-.32-.82V440.6h2.38v17.27a1.14,1.14,0,0,1-.33.82A1.21,1.21,0,0,1,30.11,459Z" transform="translate(0 -3.08)"/><path class="cls-2" d="M43.94,459.3a7.87,7.87,0,0,1-3.92-.95,6.87,6.87,0,0,1-2.62-2.62,7.76,7.76,0,0,1-.94-3.85,8.44,8.44,0,0,1,1-4.16A6.8,6.8,0,0,1,40,445.09a6.38,6.38,0,0,1,3.29-.91,6.67,6.67,0,0,1,2.51.48,6.17,6.17,0,0,1,2.12,1.4,6.84,6.84,0,0,1,1.5,2.18A7.36,7.36,0,0,1,50,451.1a1.05,1.05,0,0,1-.36.74,1.2,1.2,0,0,1-.79.29H37.75l-.5-1.93H48l-.45.39V450a3.7,3.7,0,0,0-.77-2,4.59,4.59,0,0,0-3.57-1.72,4.66,4.66,0,0,0-1.67.31,4.12,4.12,0,0,0-1.48,1A4.55,4.55,0,0,0,39,449.22a7.08,7.08,0,0,0-.39,2.49,6,6,0,0,0,.66,2.86,5,5,0,0,0,1.83,1.95,5.24,5.24,0,0,0,5.68-.17,5.46,5.46,0,0,0,.9-.77,1.24,1.24,0,0,1,.7-.26,1,1,0,0,1,.7.28.93.93,0,0,1,.28.68,1.15,1.15,0,0,1-.48.87,6.9,6.9,0,0,1-2.12,1.51A6.54,6.54,0,0,1,43.94,459.3Z" transform="translate(0 -3.08)"/><path class="cls-2" d="M52.34,456.73a1.37,1.37,0,0,1-.21-.78.91.91,0,0,1,.46-.71,1.11,1.11,0,0,1,.69-.17,1,1,0,0,1,.68.37,6.46,6.46,0,0,0,1.8,1.47,5.14,5.14,0,0,0,2.46.54,5.86,5.86,0,0,0,1.33-.22,2.46,2.46,0,0,0,1.15-.69,1.8,1.8,0,0,0,.46-1.3,1.66,1.66,0,0,0-.48-1.25,3.72,3.72,0,0,0-1.24-.75,15,15,0,0,0-1.64-.52c-.62-.17-1.22-.35-1.82-.56a6.37,6.37,0,0,1-1.61-.8,3.66,3.66,0,0,1-1.15-1.23,3.57,3.57,0,0,1-.43-1.83,3.63,3.63,0,0,1,.68-2.19,4.46,4.46,0,0,1,1.84-1.42,6.18,6.18,0,0,1,2.55-.51,7.89,7.89,0,0,1,1.63.18,6.26,6.26,0,0,1,1.67.62,4.62,4.62,0,0,1,1.43,1.19,1.13,1.13,0,0,1,.28.7.89.89,0,0,1-.37.75,1,1,0,0,1-.68.21.86.86,0,0,1-.63-.26,3.93,3.93,0,0,0-1.5-1.11,5,5,0,0,0-1.95-.38,4,4,0,0,0-1.28.21,2.69,2.69,0,0,0-1.08.66,1.87,1.87,0,0,0,.07,2.49,3.24,3.24,0,0,0,1.29.77c.54.2,1.13.39,1.79.58s1.17.32,1.72.52a5.9,5.9,0,0,1,1.5.77,3.35,3.35,0,0,1,1.06,1.21,4,4,0,0,1,.39,1.87,3.52,3.52,0,0,1-.72,2.22,4.63,4.63,0,0,1-1.92,1.43,6.63,6.63,0,0,1-2.56.49,8.63,8.63,0,0,1-3.06-.57A6,6,0,0,1,52.34,456.73Z" transform="translate(0 -3.08)"/><path class="cls-2" d="M65.89,444.63h6.58a1,1,0,0,1,.74.31,1,1,0,0,1,.3.75,1,1,0,0,1-.3.72,1,1,0,0,1-.74.29H65.89a1,1,0,0,1-.74-.31,1,1,0,0,1,0-1.47A1.08,1.08,0,0,1,65.89,444.63Zm2.94-3.81a1,1,0,0,1,.79.34,1.16,1.16,0,0,1,.3.81v13.49a2,2,0,0,0,.2,1,1,1,0,0,0,.52.47,1.76,1.76,0,0,0,.63.12,1.1,1.1,0,0,0,.49-.1,1.22,1.22,0,0,1,.49-.1.7.7,0,0,1,.52.27,1,1,0,0,1,.23.69,1,1,0,0,1-.58.85,2.61,2.61,0,0,1-1.32.35c-.26,0-.58,0-1-.06A2.72,2.72,0,0,1,69,458.6a2.35,2.35,0,0,1-.94-1,4.36,4.36,0,0,1-.38-2V442a1.11,1.11,0,0,1,.34-.81A1.07,1.07,0,0,1,68.83,440.82Z" transform="translate(0 -3.08)"/><rect class="cls-1" x="104.37" y="331.75" width="27.12" height="27.12"/><rect class="cls-3" x="104.37" y="397.11" width="27.12" height="27.12"/><rect class="cls-1" x="104.37" y="364.43" width="27.12" height="27.12"/><rect class="cls-1" x="136.43" y="331.75" width="27.12" height="27.12"/><rect class="cls-1" x="136.43" y="397.11" width="27.12" height="27.12"/><rect class="cls-3" x="136.43" y="364.43" width="27.12" height="27.12"/><rect class="cls-3" x="168.49" y="331.75" width="27.12" height="27.12"/><rect class="cls-1" x="168.49" y="397.11" width="27.12" height="27.12"/><rect class="cls-1" x="168.49" y="364.43" width="27.12" height="27.12"/><g id="_375176344-3" data-name=" 375176344"><path class="cls-4" d="M245.94,351.08a2.19,2.19,0,0,1,.6,1.49,2.09,2.09,0,0,1-.6,1.48,2.15,2.15,0,0,1-1.47.61,2.08,2.08,0,0,1-1.48-.61,2.15,2.15,0,0,1-.6-1.48,2.12,2.12,0,0,1,.6-1.49,2.15,2.15,0,0,1,1.48-.6A2.07,2.07,0,0,1,245.94,351.08Z" transform="translate(0 -3.08)"/><path class="cls-4" d="M244.47,347.35a5.22,5.22,0,1,0,3.67,8.91,5.28,5.28,0,0,0,1.51-3.69,5.19,5.19,0,0,0-5.18-5.22Zm-6.05-3h69.1l1.75,1.75v69.46l-1.75,1.76h-69.1l-1.75-1.76V346.1Z" transform="translate(0 -3.08)"/><path class="cls-5" d="M321.2,355.5a1.56,1.56,0,0,1,0,3.12h-8.84V355.5Z" transform="translate(0 -3.08)"/><path class="cls-5" d="M321.2,367.35a1.57,1.57,0,0,1,0,3.13h-8.84v-3.13Z" transform="translate(0 -3.08)"/><path class="cls-5" d="M321.2,379.21a1.56,1.56,0,1,1,0,3.12h-8.84v-3.12Z" transform="translate(0 -3.08)"/><path class="cls-5" d="M321.2,391.07a1.56,1.56,0,1,1,0,3.12h-8.84v-3.12Z" transform="translate(0 -3.08)"/><path class="cls-5" d="M321.2,402.92a1.57,1.57,0,0,1,0,3.13h-8.84v-3.13Z" transform="translate(0 -3.08)"/><path class="cls-5" d="M312.36,402.92v3.13H311.1a1.57,1.57,0,0,1,0-3.13Z" transform="translate(0 -3.08)"/><path class="cls-5" d="M312.36,391.07v3.12H311.1a1.56,1.56,0,0,1,0-3.12Z" transform="translate(0 -3.08)"/><path class="cls-5" d="M312.36,379.21v3.12H311.1a1.56,1.56,0,0,1,0-3.12Z" transform="translate(0 -3.08)"/><path class="cls-5" d="M312.36,367.35v3.13H311.1a1.57,1.57,0,0,1,0-3.13Z" transform="translate(0 -3.08)"/><path class="cls-5" d="M312.36,355.5v3.12H311.1a1.56,1.56,0,0,1,0-3.12Z" transform="translate(0 -3.08)"/><path class="cls-5" d="M312.36,345.44V355.5H311.1a1.55,1.55,0,0,0-1.55,1.56h-.28v-11l-1.75-1.75H295.4a1.57,1.57,0,0,0,1.55-1.57v-1.56h11.86l.44.45,2.67,2.68.44.45Z" transform="translate(0 -3.08)"/><path class="cls-5" d="M311.1,358.62h1.26v8.73H311.1a1.56,1.56,0,0,0-1.55,1.57h-.28V357.06h.28A1.55,1.55,0,0,0,311.1,358.62Z" transform="translate(0 -3.08)"/><path class="cls-5" d="M311.1,370.48h1.26v8.73H311.1a1.55,1.55,0,0,0-1.55,1.56h-.28V368.92h.28A1.55,1.55,0,0,0,311.1,370.48Z" transform="translate(0 -3.08)"/><path class="cls-5" d="M311.1,382.33h1.26v8.74H311.1a1.55,1.55,0,0,0-1.55,1.56h-.28V380.77h.28A1.55,1.55,0,0,0,311.1,382.33Z" transform="translate(0 -3.08)"/><path class="cls-5" d="M311.1,394.19h1.26v8.73H311.1a1.55,1.55,0,0,0-1.55,1.56h-.28V392.63h.28A1.55,1.55,0,0,0,311.1,394.19Z" transform="translate(0 -3.08)"/><path class="cls-5" d="M311.1,406.05h1.26v10.78l-.44.45L309.25,420l-.44.45H297v-1a1.57,1.57,0,0,0-1.55-1.57v-.46h12.12l1.75-1.76V404.48h.28A1.56,1.56,0,0,0,311.1,406.05Z" transform="translate(0 -3.08)"/><path class="cls-5" d="M297,420.4v9.1a1.56,1.56,0,1,1-3.11,0v-9.1Z" transform="translate(0 -3.08)"/><path class="cls-5" d="M297,420.4h-3.11v-1a1.56,1.56,0,1,1,3.11,0Z" transform="translate(0 -3.08)"/><path class="cls-5" d="M297,341.22v1.56a1.56,1.56,0,1,1-3.11,0v-1.56Z" transform="translate(0 -3.08)"/><path class="cls-5" d="M297,332.63v8.59h-3.11v-8.59a1.56,1.56,0,1,1,3.11,0Z" transform="translate(0 -3.08)"/><path class="cls-5" d="M295.4,344.35H283.6a1.57,1.57,0,0,0,1.56-1.57v-1.56h8.68v1.56A1.57,1.57,0,0,0,295.4,344.35Z" transform="translate(0 -3.08)"/><path class="cls-5" d="M285.16,420.4v9.1a1.56,1.56,0,1,1-3.11,0v-9.1Z" transform="translate(0 -3.08)"/><path class="cls-5" d="M285.16,419.35v1h-3.11v-1a1.56,1.56,0,1,1,3.11,0Z" transform="translate(0 -3.08)"/><path class="cls-5" d="M293.84,419.35v1h-8.68v-1a1.57,1.57,0,0,0-1.56-1.57v-.46h11.8v.46A1.57,1.57,0,0,0,293.84,419.35Z" transform="translate(0 -3.08)"/><path class="cls-5" d="M285.16,341.22v1.56a1.56,1.56,0,1,1-3.11,0v-1.56Z" transform="translate(0 -3.08)"/><path class="cls-5" d="M285.16,332.63v8.59h-3.11v-8.59a1.56,1.56,0,1,1,3.11,0Z" transform="translate(0 -3.08)"/><path class="cls-5" d="M283.6,344.35H271.81a1.57,1.57,0,0,0,1.55-1.57v-1.56h8.69v1.56A1.57,1.57,0,0,0,283.6,344.35Z" transform="translate(0 -3.08)"/><path class="cls-5" d="M273.36,420.4v9.1a1.56,1.56,0,1,1-3.11,0v-9.1Z" transform="translate(0 -3.08)"/><path class="cls-5" d="M273.36,419.35v1h-3.11v-1a1.56,1.56,0,1,1,3.11,0Z" transform="translate(0 -3.08)"/><path class="cls-5" d="M282.05,419.35v1h-8.69v-1a1.57,1.57,0,0,0-1.55-1.57v-.46H283.6v.46A1.57,1.57,0,0,0,282.05,419.35Z" transform="translate(0 -3.08)"/><path class="cls-5" d="M273.36,341.22v1.56a1.56,1.56,0,1,1-3.11,0v-1.56Z" transform="translate(0 -3.08)"/><path class="cls-5" d="M273.36,332.63v8.59h-3.11v-8.59a1.56,1.56,0,1,1,3.11,0Z" transform="translate(0 -3.08)"/><path class="cls-5" d="M271.81,344.35H260a1.57,1.57,0,0,0,1.56-1.57v-1.56h8.68v1.56A1.57,1.57,0,0,0,271.81,344.35Z" transform="translate(0 -3.08)"/><path class="cls-5" d="M261.57,420.4v9.1a1.56,1.56,0,1,1-3.11,0v-9.1Z" transform="translate(0 -3.08)"/><path class="cls-5" d="M261.57,419.35v1h-3.11v-1a1.56,1.56,0,1,1,3.11,0Z" transform="translate(0 -3.08)"/><path class="cls-5" d="M270.25,419.35v1h-8.68v-1a1.57,1.57,0,0,0-1.56-1.57v-.46h11.8v.46A1.57,1.57,0,0,0,270.25,419.35Z" transform="translate(0 -3.08)"/><path class="cls-5" d="M261.57,341.22v1.56a1.56,1.56,0,1,1-3.11,0v-1.56Z" transform="translate(0 -3.08)"/><path class="cls-5" d="M261.57,332.63v8.59h-3.11v-8.59a1.56,1.56,0,1,1,3.11,0Z" transform="translate(0 -3.08)"/><path class="cls-5" d="M260,344.35H248.22a1.57,1.57,0,0,0,1.55-1.57v-1.56h8.69v1.56A1.57,1.57,0,0,0,260,344.35Z" transform="translate(0 -3.08)"/><path class="cls-5" d="M249.77,420.4v9.1a1.56,1.56,0,1,1-3.11,0v-9.1Z" transform="translate(0 -3.08)"/><path class="cls-5" d="M249.77,420.4h-3.11v-1a1.56,1.56,0,1,1,3.11,0Z" transform="translate(0 -3.08)"/><path class="cls-5" d="M249.77,419.35a1.57,1.57,0,0,0-1.55-1.57v-.46H260v.46a1.57,1.57,0,0,0-1.55,1.57v1h-8.69Z" transform="translate(0 -3.08)"/><path class="cls-5" d="M249.77,341.22v1.56a1.56,1.56,0,1,1-3.11,0v-1.56Z" transform="translate(0 -3.08)"/><path class="cls-5" d="M249.77,332.63v8.59h-3.11v-8.59a1.56,1.56,0,1,1,3.11,0Z" transform="translate(0 -3.08)"/><path class="cls-5" d="M248.14,348.88a5.22,5.22,0,0,1,1.51,3.69,5.28,5.28,0,0,1-1.51,3.69,5.2,5.2,0,0,1-7.35,0,5.21,5.21,0,1,1,7.35-7.38Zm-1.6,3.69a2.19,2.19,0,0,0-.6-1.49,2.07,2.07,0,0,0-1.47-.6,2.15,2.15,0,0,0-1.48.6,2.12,2.12,0,0,0-.6,1.49,2.15,2.15,0,0,0,.6,1.48,2.08,2.08,0,0,0,1.48.61,2.15,2.15,0,0,0,1.47-.61A2.09,2.09,0,0,0,246.54,352.57Z" transform="translate(0 -3.08)"/><path class="cls-5" d="M233.58,394.19h.84a1.56,1.56,0,0,0,0-3.12h-.84v-8.74h.84a1.56,1.56,0,0,0,0-3.12h-.84v-8.73h.84a1.57,1.57,0,0,0,0-3.13h-.84v-8.73h.84a1.56,1.56,0,0,0,0-3.12h-.84V344.8l.45-.45,2.66-2.68.45-.45h9.52v1.56a1.57,1.57,0,0,0,1.56,1.57h-9.8l-1.75,1.75v58.38H236a1.56,1.56,0,0,0-1.55-1.56h-.84Z" transform="translate(0 -3.08)"/><path class="cls-5" d="M234.42,355.5a1.56,1.56,0,0,1,0,3.12h-.84V355.5Z" transform="translate(0 -3.08)"/><path class="cls-5" d="M234.42,367.35a1.57,1.57,0,0,1,0,3.13h-.84v-3.13Z" transform="translate(0 -3.08)"/><path class="cls-5" d="M234.42,379.21a1.56,1.56,0,0,1,0,3.12h-.84v-3.12Z" transform="translate(0 -3.08)"/><path class="cls-5" d="M234.42,391.07a1.56,1.56,0,0,1,0,3.12h-.84v-3.12Z" transform="translate(0 -3.08)"/><path class="cls-5" d="M234.42,402.92a1.57,1.57,0,0,1,0,3.13h-.84v-3.13Z" transform="translate(0 -3.08)"/><path class="cls-5" d="M233.58,406.05h.84a1.57,1.57,0,0,0,1.55-1.57h.7v11.08l1.75,1.76h9.8v.46a1.57,1.57,0,0,0-1.56,1.57v1h-9.52l-.45-.45L234,417.28l-.45-.45V406.05Z" transform="translate(0 -3.08)"/><path class="cls-5" d="M233.58,402.92v3.13h-9.27a1.57,1.57,0,0,1,0-3.13Z" transform="translate(0 -3.08)"/><path class="cls-5" d="M233.58,391.07v3.12h-9.27a1.56,1.56,0,0,1,0-3.12Z" transform="translate(0 -3.08)"/><path class="cls-5" d="M233.58,379.21v3.12h-9.27a1.56,1.56,0,0,1,0-3.12Z" transform="translate(0 -3.08)"/><path class="cls-5" d="M233.58,367.35v3.13h-9.27a1.57,1.57,0,0,1,0-3.13Z" transform="translate(0 -3.08)"/><path class="cls-5" d="M233.58,355.5v3.12h-9.27a1.56,1.56,0,0,1,0-3.12Z" transform="translate(0 -3.08)"/></g><path class="cls-2" d="M266.83,389.79a1.49,1.49,0,0,1,1.05.41,1.4,1.4,0,0,1,.43,1,1.34,1.34,0,0,1-.43,1,1.52,1.52,0,0,1-1.05.39H254.38a1.41,1.41,0,0,1-1.07-.43,1.48,1.48,0,0,1-.41-1V368.91a1.43,1.43,0,0,1,.43-1.05,1.55,1.55,0,0,1,1.12-.43,1.44,1.44,0,0,1,1,.43,1.43,1.43,0,0,1,.43,1.05v21.53l-.72-.65Z" transform="translate(0 -3.08)"/><path class="cls-2" d="M274.1,392.63a1.74,1.74,0,0,1-1.18-.43,1.33,1.33,0,0,1-.51-1V368.91a1.47,1.47,0,0,1,1.48-1.48h9.93a7.27,7.27,0,0,1,3.64.92,6.81,6.81,0,0,1,2.57,2.54,7.05,7.05,0,0,1,1,3.67,6.89,6.89,0,0,1-.58,2.83,7.12,7.12,0,0,1-1.58,2.28,6.34,6.34,0,0,1-2.31,1.44l-.79-.54a5.43,5.43,0,0,1,2.2,1,5.67,5.67,0,0,1,2.23,4.52c0,.89.11,1.6.18,2.12a4.41,4.41,0,0,0,.32,1.25,1.69,1.69,0,0,0,.62.7,1.52,1.52,0,0,1,.66.86,1.16,1.16,0,0,1-.2,1.05,1,1,0,0,1-.61.48,1.64,1.64,0,0,1-.79.07,2,2,0,0,1-.72-.23,4.86,4.86,0,0,1-1.1-.95,4.75,4.75,0,0,1-.9-1.82,12.09,12.09,0,0,1-.34-3.24,4.27,4.27,0,0,0-.38-1.89,3.26,3.26,0,0,0-1-1.23,3.82,3.82,0,0,0-1.35-.64,5.73,5.73,0,0,0-1.55-.2h-8l.44-.61v9.36a1.59,1.59,0,0,1-.36,1A1.21,1.21,0,0,1,274.1,392.63Zm.9-12.81h8.82a3.89,3.89,0,0,0,2-.72,4.84,4.84,0,0,0,1.49-1.8,6,6,0,0,0,.58-2.67,4.36,4.36,0,0,0-1.21-3.13,4,4,0,0,0-3-1.26h-8.49l.29-.72v10.94Z" transform="translate(0 -3.08)"/><line class="cls-6" x1="197.76" y1="377.99" x2="220.59" y2="377.72"/><polygon class="cls-2" points="214.06 385.98 212.68 384.53 219.82 377.73 212.52 371.1 213.87 369.62 222.76 377.7 214.06 385.98"/><line class="cls-6" x1="100.35" y1="446.66" x2="248.21" y2="446.66"/><line class="cls-6" x1="248.21" y1="430.16" x2="248.21" y2="446.66"/><polygon class="cls-2" points="240.03 436.79 241.5 438.15 248.21 430.93 254.93 438.15 256.39 436.79 248.21 427.99 240.03 436.79"/><rect class="cls-7" x="377.12" y="331.75" width="30.35" height="92.48"/><line class="cls-6" x1="322.76" y1="377.7" x2="374.95" y2="377.7"/><polygon class="cls-2" points="368.32 385.88 366.95 384.41 374.18 377.7 366.95 370.98 368.32 369.52 377.12 377.7 368.32 385.88"/><rect class="cls-7" x="377.12" y="428.03" width="30.35" height="37.25"/><line class="cls-6" x1="322.76" y1="401.41" x2="322.76" y2="446.66"/><line class="cls-6" x1="374.95" y1="446.66" x2="322.76" y2="446.66"/><polygon class="cls-2" points="368.32 438.48 366.95 439.94 374.18 446.66 366.95 453.37 368.32 454.84 377.12 446.66 368.32 438.48"/><rect class="cls-1" x="457.45" y="183.95" width="30.35" height="92.48"/><rect class="cls-3" x="457.45" y="276.43" width="30.35" height="37.25"/><rect class="cls-1" x="487.8" y="183.95" width="30.35" height="92.48"/><rect class="cls-3" x="487.8" y="276.43" width="30.35" height="37.25"/><rect class="cls-1" x="518.14" y="183.95" width="30.35" height="92.48"/><rect class="cls-3" x="518.14" y="276.43" width="30.35" height="37.25"/><line class="cls-6" x1="407.46" y1="295.06" x2="432.46" y2="295.63"/><line class="cls-6" x1="432.46" y1="228.23" x2="432.46" y2="295.63"/><line class="cls-6" x1="407.46" y1="144.43" x2="432.46" y2="144.43"/><line class="cls-6" x1="407.46" y1="75.47" x2="432.46" y2="75.77"/><line class="cls-6" x1="432.46" y1="228.23" x2="432.46" y2="75.77"/><line class="cls-6" x1="407.46" y1="446.66" x2="432.46" y2="446.66"/><line class="cls-6" x1="408.87" y1="377.99" x2="432.46" y2="377.7"/><line class="cls-6" x1="432.46" y1="446.66" x2="432.46" y2="295.63"/><line class="cls-6" x1="407.46" y1="226.73" x2="432.46" y2="226.67"/><line class="cls-6" x1="432.46" y1="259.64" x2="455.28" y2="259.64"/><polygon class="cls-2" points="448.65 267.82 447.29 266.36 454.51 259.64 447.29 252.93 448.65 251.46 457.45 259.64 448.65 267.82"/><path class="cls-2" d="M471,171.38a.6.6,0,0,1,.49.2.68.68,0,0,1,.18.48v11.16a.71.71,0,0,1-.22.55.73.73,0,0,1-.54.21.84.84,0,0,1-.3-.06.64.64,0,0,1-.26-.18l-7.7-10.18.36-.2v9.95a.65.65,0,0,1-.19.48.66.66,0,0,1-.49.19.63.63,0,0,1-.49-.19.68.68,0,0,1-.18-.48V172.12a.72.72,0,0,1,.72-.74,1,1,0,0,1,.33.06.46.46,0,0,1,.26.21l7.58,10-.21.29v-9.9a.68.68,0,0,1,.18-.48A.62.62,0,0,1,471,171.38Z" transform="translate(0 -3.08)"/><path class="cls-2" d="M484.13,171.38a.6.6,0,0,1,.49.2.68.68,0,0,1,.18.48v11.16a.71.71,0,0,1-.22.55.73.73,0,0,1-.54.21.84.84,0,0,1-.3-.06.64.64,0,0,1-.26-.18l-7.7-10.18.36-.2v9.95a.65.65,0,0,1-.19.48.66.66,0,0,1-.49.19.63.63,0,0,1-.49-.19.68.68,0,0,1-.18-.48V172.12a.72.72,0,0,1,.72-.74,1,1,0,0,1,.33.06.46.46,0,0,1,.26.21l7.58,10-.21.29v-9.9a.68.68,0,0,1,.18-.48A.62.62,0,0,1,484.13,171.38Z" transform="translate(0 -3.08)"/><path class="cls-2" d="M497.87,184a6.62,6.62,0,0,1-2.57-.5,6.5,6.5,0,0,1-2.07-1.37,6.43,6.43,0,0,1-1.38-2.06,6.88,6.88,0,0,1,0-5.1,6.43,6.43,0,0,1,1.38-2.06,6.36,6.36,0,0,1,2.07-1.38,6.61,6.61,0,0,1,2.57-.49,7.42,7.42,0,0,1,1.78.21,5,5,0,0,1,1.53.63.61.61,0,0,1,.28.27.82.82,0,0,1,.09.33.72.72,0,0,1-.21.52.67.67,0,0,1-.48.22l-.22,0-.19-.08a5.83,5.83,0,0,0-1.21-.46,5.53,5.53,0,0,0-1.37-.17,4.84,4.84,0,0,0-4.32,2.47,5.16,5.16,0,0,0-.64,2.57,5.09,5.09,0,0,0,.64,2.56,4.88,4.88,0,0,0,4.32,2.48,5.92,5.92,0,0,0,1.48-.2,5.34,5.34,0,0,0,1.29-.5l-.1.43v-3.78l.27.25h-2.74a.72.72,0,0,1-.52-.21.67.67,0,0,1-.22-.51.73.73,0,0,1,.74-.74h3.28a.67.67,0,0,1,.51.22.72.72,0,0,1,.21.52v4.16a.87.87,0,0,1-.1.39,1,1,0,0,1-.26.27,7.15,7.15,0,0,1-1.79.83A6.7,6.7,0,0,1,497.87,184Z" transform="translate(0 -3.08)"/><path class="cls-2" d="M510,171.2a3.4,3.4,0,0,1,2.46.82,3.39,3.39,0,0,1,.49,3.77,2.67,2.67,0,0,1-1.05,1.06,3.7,3.7,0,0,1-1.72.43l0-.5a5,5,0,0,1,1.3.18,3.89,3.89,0,0,1,1.22.57,3.12,3.12,0,0,1,.92,1.05,3.24,3.24,0,0,1,.36,1.6,3.92,3.92,0,0,1-.34,1.73,2.87,2.87,0,0,1-.91,1.11,3.66,3.66,0,0,1-1.26.6,5.56,5.56,0,0,1-1.41.18h-4.72a.69.69,0,0,1-.52-.22.67.67,0,0,1-.22-.52V171.94a.67.67,0,0,1,.22-.52.69.69,0,0,1,.52-.22Zm-.2,1.42H506l.22-.31v4.47l-.2-.24h3.87a2,2,0,0,0,1.36-.51,1.91,1.91,0,0,0,.57-1.5,1.84,1.84,0,0,0-.52-1.41A2,2,0,0,0,509.84,172.62ZM510,178h-3.91l.13-.12v4.7l-.14-.16h4a2.67,2.67,0,0,0,1.72-.55,2,2,0,0,0,.67-1.67,2.17,2.17,0,0,0-.36-1.35,1.92,1.92,0,0,0-.92-.66A3.89,3.89,0,0,0,510,178Z" transform="translate(0 -3.08)"/><path class="cls-2" d="M530.28,182.38a.75.75,0,0,1,.52.2.67.67,0,0,1,.22.52.63.63,0,0,1-.22.5.75.75,0,0,1-.52.2h-6.23a.73.73,0,0,1-.74-.74V171.94a.71.71,0,0,1,.22-.52.73.73,0,0,1,.56-.22.69.69,0,0,1,.52.22.71.71,0,0,1,.22.52V182.7l-.36-.32Z" transform="translate(0 -3.08)"/><path class="cls-2" d="M533.92,183.8a.87.87,0,0,1-.6-.22.64.64,0,0,1-.25-.52V171.94a.75.75,0,0,1,.74-.74h5a3.56,3.56,0,0,1,1.81.46,3.42,3.42,0,0,1,1.29,1.27,3.68,3.68,0,0,1,.19,3.25,3.76,3.76,0,0,1-.79,1.14,3.38,3.38,0,0,1-1.15.72l-.4-.27a2.74,2.74,0,0,1,1.1.49,2.83,2.83,0,0,1,1.11,2.26c0,.45.06.8.09,1.06a2,2,0,0,0,.17.63.85.85,0,0,0,.3.35.74.74,0,0,1,.33.43.58.58,0,0,1-.09.52.56.56,0,0,1-.31.24.78.78,0,0,1-.4,0,1.09,1.09,0,0,1-.36-.12,2.51,2.51,0,0,1-.55-.47,2.57,2.57,0,0,1-.45-.91,6.31,6.31,0,0,1-.17-1.62,2.09,2.09,0,0,0-.19-.95,1.56,1.56,0,0,0-.48-.61,1.78,1.78,0,0,0-.68-.32,2.86,2.86,0,0,0-.77-.1h-4l.21-.31v4.68a.77.77,0,0,1-.18.52A.58.58,0,0,1,533.92,183.8Zm.45-6.41h4.41a1.87,1.87,0,0,0,1-.36,2.38,2.38,0,0,0,.74-.9,3,3,0,0,0,.29-1.33,2.18,2.18,0,0,0-.6-1.57,2,2,0,0,0-1.51-.63h-4.24l.14-.36v5.47Z" transform="translate(0 -3.08)"/><g id="_375176344-4" data-name=" 375176344"><path class="cls-4" d="M602,203.28a2.17,2.17,0,0,1,.6,1.49,2.09,2.09,0,0,1-.6,1.48,2.16,2.16,0,0,1-1.48.61,2.08,2.08,0,0,1-1.47-.61,2.18,2.18,0,0,1-.61-1.48,2.07,2.07,0,0,1,2.08-2.09A2.08,2.08,0,0,1,602,203.28Z" transform="translate(0 -3.08)"/><path class="cls-4" d="M600.54,199.55a5.17,5.17,0,0,0-3.67,1.53,5.24,5.24,0,0,0,0,7.38,5.2,5.2,0,0,0,7.35,0,5.28,5.28,0,0,0,1.51-3.69,5.19,5.19,0,0,0-5.19-5.22Zm-6-3h69.1l1.75,1.75v69.46l-1.75,1.75H594.5l-1.75-1.75V198.3Z" transform="translate(0 -3.08)"/><path class="cls-5" d="M677.28,207.7a1.56,1.56,0,1,1,0,3.12h-8.84V207.7Z" transform="translate(0 -3.08)"/><path class="cls-5" d="M677.28,219.55a1.57,1.57,0,0,1,0,3.13h-8.84v-3.13Z" transform="translate(0 -3.08)"/><path class="cls-5" d="M677.28,231.41a1.56,1.56,0,1,1,0,3.12h-8.84v-3.12Z" transform="translate(0 -3.08)"/><path class="cls-5" d="M677.28,243.26a1.57,1.57,0,0,1,0,3.13h-8.84v-3.13Z" transform="translate(0 -3.08)"/><path class="cls-5" d="M677.28,255.12a1.56,1.56,0,1,1,0,3.12h-8.84v-3.12Z" transform="translate(0 -3.08)"/><path class="cls-5" d="M668.44,255.12v3.12h-1.26a1.56,1.56,0,1,1,0-3.12Z" transform="translate(0 -3.08)"/><path class="cls-5" d="M668.44,243.26v3.13h-1.26a1.57,1.57,0,0,1,0-3.13Z" transform="translate(0 -3.08)"/><path class="cls-5" d="M668.44,231.41v3.12h-1.26a1.56,1.56,0,1,1,0-3.12Z" transform="translate(0 -3.08)"/><path class="cls-5" d="M668.44,219.55v3.13h-1.26a1.57,1.57,0,0,1,0-3.13Z" transform="translate(0 -3.08)"/><path class="cls-5" d="M668.44,207.7v3.12h-1.26a1.56,1.56,0,1,1,0-3.12Z" transform="translate(0 -3.08)"/><path class="cls-5" d="M668.44,197.64V207.7h-1.26a1.56,1.56,0,0,0-1.56,1.56h-.27v-11l-1.75-1.75H651.48A1.57,1.57,0,0,0,653,195v-1.56h11.85l.45.45,2.66,2.68.45.44Z" transform="translate(0 -3.08)"/><path class="cls-5" d="M667.18,210.82h1.26v8.73h-1.26a1.57,1.57,0,0,0-1.56,1.57h-.27V209.26h.27A1.56,1.56,0,0,0,667.18,210.82Z" transform="translate(0 -3.08)"/><path class="cls-5" d="M667.18,222.68h1.26v8.73h-1.26a1.56,1.56,0,0,0-1.56,1.56h-.27V221.12h.27A1.56,1.56,0,0,0,667.18,222.68Z" transform="translate(0 -3.08)"/><path class="cls-5" d="M667.18,234.53h1.26v8.73h-1.26a1.57,1.57,0,0,0-1.56,1.57h-.27V233h.27A1.56,1.56,0,0,0,667.18,234.53Z" transform="translate(0 -3.08)"/><path class="cls-5" d="M667.18,246.39h1.26v8.73h-1.26a1.56,1.56,0,0,0-1.56,1.56h-.27V244.83h.27A1.56,1.56,0,0,0,667.18,246.39Z" transform="translate(0 -3.08)"/><path class="cls-5" d="M651.48,269.51H663.6l1.75-1.75V256.68h.27a1.56,1.56,0,0,0,1.56,1.56h1.26V269l-.45.45-2.66,2.67-.45.45H653v-1.05a1.57,1.57,0,0,0-1.55-1.57Z" transform="translate(0 -3.08)"/><path class="cls-5" d="M653,272.6v9.1a1.56,1.56,0,1,1-3.11,0v-9.1Z" transform="translate(0 -3.08)"/><path class="cls-5" d="M653,271.55v1.05h-3.11v-1.05a1.56,1.56,0,1,1,3.11,0Z" transform="translate(0 -3.08)"/><path class="cls-5" d="M653,193.42V195a1.56,1.56,0,1,1-3.11,0v-1.56Z" transform="translate(0 -3.08)"/><path class="cls-5" d="M653,184.83v8.59h-3.11v-8.59a1.56,1.56,0,1,1,3.11,0Z" transform="translate(0 -3.08)"/><path class="cls-5" d="M651.48,196.55h-11.8a1.56,1.56,0,0,0,1.55-1.57v-1.56h8.69V195A1.57,1.57,0,0,0,651.48,196.55Z" transform="translate(0 -3.08)"/><path class="cls-5" d="M641.23,272.6v9.1a1.55,1.55,0,1,1-3.1,0v-9.1Z" transform="translate(0 -3.08)"/><path class="cls-5" d="M641.23,271.55v1.05h-3.1v-1.05a1.55,1.55,0,1,1,3.1,0Z" transform="translate(0 -3.08)"/><path class="cls-5" d="M649.92,271.55v1.05h-8.69v-1.05a1.56,1.56,0,0,0-1.55-1.57v-.47h11.8V270A1.57,1.57,0,0,0,649.92,271.55Z" transform="translate(0 -3.08)"/><path class="cls-5" d="M641.23,193.42V195a1.55,1.55,0,1,1-3.1,0v-1.56Z" transform="translate(0 -3.08)"/><path class="cls-5" d="M641.23,184.83v8.59h-3.1v-8.59a1.55,1.55,0,1,1,3.1,0Z" transform="translate(0 -3.08)"/><path class="cls-5" d="M639.68,196.55h-11.8a1.57,1.57,0,0,0,1.56-1.57v-1.56h8.69V195A1.57,1.57,0,0,0,639.68,196.55Z" transform="translate(0 -3.08)"/><path class="cls-5" d="M629.44,272.6v9.1a1.56,1.56,0,1,1-3.11,0v-9.1Z" transform="translate(0 -3.08)"/><path class="cls-5" d="M629.44,271.55v1.05h-3.11v-1.05a1.56,1.56,0,1,1,3.11,0Z" transform="translate(0 -3.08)"/><path class="cls-5" d="M638.13,271.55v1.05h-8.69v-1.05a1.57,1.57,0,0,0-1.56-1.57v-.47h11.8V270A1.57,1.57,0,0,0,638.13,271.55Z" transform="translate(0 -3.08)"/><path class="cls-5" d="M629.44,193.42V195a1.56,1.56,0,1,1-3.11,0v-1.56Z" transform="translate(0 -3.08)"/><path class="cls-5" d="M629.44,184.83v8.59h-3.11v-8.59a1.56,1.56,0,1,1,3.11,0Z" transform="translate(0 -3.08)"/><path class="cls-5" d="M627.88,196.55H616.09a1.57,1.57,0,0,0,1.55-1.57v-1.56h8.69V195A1.57,1.57,0,0,0,627.88,196.55Z" transform="translate(0 -3.08)"/><path class="cls-5" d="M617.64,272.6v9.1a1.56,1.56,0,1,1-3.11,0v-9.1Z" transform="translate(0 -3.08)"/><path class="cls-5" d="M617.64,272.6h-3.11v-1.05a1.56,1.56,0,1,1,3.11,0Z" transform="translate(0 -3.08)"/><path class="cls-5" d="M617.64,271.55a1.57,1.57,0,0,0-1.55-1.57v-.47h11.79V270a1.57,1.57,0,0,0-1.55,1.57v1.05h-8.69Z" transform="translate(0 -3.08)"/><path class="cls-5" d="M617.64,193.42V195a1.56,1.56,0,1,1-3.11,0v-1.56Z" transform="translate(0 -3.08)"/><path class="cls-5" d="M617.64,184.83v8.59h-3.11v-8.59a1.56,1.56,0,1,1,3.11,0Z" transform="translate(0 -3.08)"/><path class="cls-5" d="M616.09,196.55h-11.8a1.57,1.57,0,0,0,1.56-1.57v-1.56h8.68V195A1.57,1.57,0,0,0,616.09,196.55Z" transform="translate(0 -3.08)"/><path class="cls-5" d="M605.85,272.6v9.1a1.56,1.56,0,1,1-3.11,0v-9.1Z" transform="translate(0 -3.08)"/><path class="cls-5" d="M605.85,271.55v1.05h-3.11v-1.05a1.56,1.56,0,1,1,3.11,0Z" transform="translate(0 -3.08)"/><path class="cls-5" d="M614.53,271.55v1.05h-8.68v-1.05a1.57,1.57,0,0,0-1.56-1.57v-.47h11.8V270A1.57,1.57,0,0,0,614.53,271.55Z" transform="translate(0 -3.08)"/><path class="cls-5" d="M605.85,193.42V195a1.56,1.56,0,1,1-3.11,0v-1.56Z" transform="translate(0 -3.08)"/><path class="cls-5" d="M605.85,184.83v8.59h-3.11v-8.59a1.56,1.56,0,1,1,3.11,0Z" transform="translate(0 -3.08)"/><path class="cls-5" d="M604.22,201.08a5.21,5.21,0,0,1,1.51,3.69,5.28,5.28,0,0,1-1.51,3.69,5.2,5.2,0,0,1-7.35,0,5.24,5.24,0,0,1,0-7.38,5.17,5.17,0,0,1,3.67-1.53A5.23,5.23,0,0,1,604.22,201.08Zm-1.6,3.69a2.17,2.17,0,0,0-.6-1.49,2.08,2.08,0,0,0-1.48-.6,2.07,2.07,0,0,0-2.08,2.09,2.18,2.18,0,0,0,.61,1.48,2.08,2.08,0,0,0,1.47.61,2.16,2.16,0,0,0,1.48-.61A2.09,2.09,0,0,0,602.62,204.77Z" transform="translate(0 -3.08)"/><path class="cls-5" d="M590.5,207.7h-.84V197l.45-.44,2.66-2.68.45-.45h9.52V195a1.57,1.57,0,0,0,1.55,1.57H594.5l-1.75,1.75v58.38h-.7a1.56,1.56,0,0,0-1.55-1.56h-.84v-8.73h.84a1.57,1.57,0,0,0,0-3.13h-.84v-8.73h.84a1.56,1.56,0,0,0,0-3.12h-.84v-8.73h.84a1.57,1.57,0,0,0,0-3.13h-.84v-8.73h.84a1.56,1.56,0,0,0,0-3.12Z" transform="translate(0 -3.08)"/><path class="cls-5" d="M590.5,207.7a1.56,1.56,0,0,1,0,3.12h-.84V207.7Z" transform="translate(0 -3.08)"/><path class="cls-5" d="M590.5,219.55a1.57,1.57,0,0,1,0,3.13h-.84v-3.13Z" transform="translate(0 -3.08)"/><path class="cls-5" d="M590.5,231.41a1.56,1.56,0,0,1,0,3.12h-.84v-3.12Z" transform="translate(0 -3.08)"/><path class="cls-5" d="M590.5,243.26a1.57,1.57,0,0,1,0,3.13h-.84v-3.13Z" transform="translate(0 -3.08)"/><path class="cls-5" d="M590.5,255.12a1.56,1.56,0,0,1,0,3.12h-.84v-3.12Z" transform="translate(0 -3.08)"/><path class="cls-5" d="M590.5,258.24a1.56,1.56,0,0,0,1.55-1.56h.7v11.08l1.75,1.75h9.79V270a1.57,1.57,0,0,0-1.55,1.57v1.05h-9.52l-.45-.45-2.66-2.67-.45-.45V258.24Z" transform="translate(0 -3.08)"/><path class="cls-5" d="M589.66,255.12v3.12h-9.27a1.56,1.56,0,0,1,0-3.12Z" transform="translate(0 -3.08)"/><path class="cls-5" d="M589.66,243.26v3.13h-9.27a1.57,1.57,0,0,1,0-3.13Z" transform="translate(0 -3.08)"/><path class="cls-5" d="M589.66,231.41v3.12h-9.27a1.56,1.56,0,0,1,0-3.12Z" transform="translate(0 -3.08)"/><path class="cls-5" d="M589.66,219.55v3.13h-9.27a1.57,1.57,0,0,1,0-3.13Z" transform="translate(0 -3.08)"/><path class="cls-5" d="M589.66,207.7v3.12h-9.27a1.56,1.56,0,0,1,0-3.12Z" transform="translate(0 -3.08)"/></g><path class="cls-2" d="M624.44,219.63a1.24,1.24,0,0,1,1,.4,1.39,1.39,0,0,1,.36,1v22.32a1.48,1.48,0,0,1-.43,1.1,1.53,1.53,0,0,1-1.08.41,1.79,1.79,0,0,1-.62-.12,1.25,1.25,0,0,1-.5-.35L607.73,224l.72-.4V243.5a1.26,1.26,0,0,1-.38.95,1.3,1.3,0,0,1-1,.38,1.26,1.26,0,0,1-1-.38,1.32,1.32,0,0,1-.36-.95V221.11a1.41,1.41,0,0,1,.43-1.08,1.44,1.44,0,0,1,1-.4,1.81,1.81,0,0,1,.67.13,1,1,0,0,1,.52.41l15.16,20.05-.44.58V221a1.36,1.36,0,0,1,.38-1A1.25,1.25,0,0,1,624.44,219.63Z" transform="translate(0 -3.08)"/><path class="cls-2" d="M650.72,219.63a1.24,1.24,0,0,1,1,.4,1.39,1.39,0,0,1,.36,1v22.32a1.48,1.48,0,0,1-.43,1.1,1.53,1.53,0,0,1-1.08.41,1.79,1.79,0,0,1-.62-.12,1.25,1.25,0,0,1-.5-.35L634,224l.72-.4V243.5a1.26,1.26,0,0,1-.38.95,1.3,1.3,0,0,1-1,.38,1.26,1.26,0,0,1-1-.38,1.32,1.32,0,0,1-.36-.95V221.11a1.41,1.41,0,0,1,.43-1.08,1.44,1.44,0,0,1,1-.4,1.81,1.81,0,0,1,.67.13,1,1,0,0,1,.52.41l15.16,20.05-.44.58V221a1.36,1.36,0,0,1,.38-1A1.25,1.25,0,0,1,650.72,219.63Z" transform="translate(0 -3.08)"/><line class="cls-6" x1="548.49" y1="229.9" x2="576.67" y2="229.9"/><polygon class="cls-2" points="570.04 238.08 568.67 236.61 575.9 229.9 568.67 223.18 570.04 221.72 578.84 229.9 570.04 238.08"/><line class="cls-6" x1="548.49" y1="295.06" x2="604.29" y2="295.63"/><line class="cls-6" x1="604.29" y1="282.36" x2="604.29" y2="295.63"/><polygon class="cls-2" points="596.11 288.99 597.58 290.35 604.29 283.13 611 290.35 612.47 288.99 604.29 280.19 596.11 288.99"/><line class="cls-6" x1="678.83" y1="229.9" x2="733.05" y2="230.18"/><polygon class="cls-2" points="726.38 238.32 725.03 236.85 732.28 230.18 725.1 223.42 726.47 221.97 735.22 230.19 726.38 238.32"/><path class="cls-2" d="M695.69,183.08a5.16,5.16,0,0,1,2.76.76,5.35,5.35,0,0,1,2,2.07,6.67,6.67,0,0,1,0,6,5.62,5.62,0,0,1-2,2.14,5,5,0,0,1-2.76.8H690l.19-.36v7.05a1.16,1.16,0,0,1-.31.82,1,1,0,0,1-.78.33,1.06,1.06,0,0,1-.81-.33,1.16,1.16,0,0,1-.31-.82v-17.3a1.16,1.16,0,0,1,1.15-1.15Zm0,9.58a2.68,2.68,0,0,0,1.61-.51,3.34,3.34,0,0,0,1.13-1.35,4.1,4.1,0,0,0,.42-1.89,4,4,0,0,0-.42-1.87,3.25,3.25,0,0,0-1.13-1.3,2.87,2.87,0,0,0-1.61-.47H690l.19-.34v8l-.19-.28Z" transform="translate(0 -3.08)"/><path class="cls-2" d="M705.52,202.68a1.08,1.08,0,0,1-.8-.33,1.17,1.17,0,0,1-.32-.82V189.35a1.12,1.12,0,0,1,.32-.82,1.07,1.07,0,0,1,.8-.32,1,1,0,0,1,.81.32,1.12,1.12,0,0,1,.31.82V193l-.34-.59a6.48,6.48,0,0,1,.61-1.69,5.65,5.65,0,0,1,1.1-1.48,5,5,0,0,1,1.54-1,4.75,4.75,0,0,1,1.91-.38,2.22,2.22,0,0,1,1.13.3.91.91,0,0,1,.52.82,1.18,1.18,0,0,1-.31.88,1,1,0,0,1-.7.3,1.57,1.57,0,0,1-.7-.17,1.9,1.9,0,0,0-.84-.17,2.79,2.79,0,0,0-1.39.39,5.25,5.25,0,0,0-1.26,1.08,5.69,5.69,0,0,0-.92,1.57,5.16,5.16,0,0,0-.35,1.89v6.8a1.17,1.17,0,0,1-.32.82A1.08,1.08,0,0,1,705.52,202.68Z" transform="translate(0 -3.08)"/><path class="cls-2" d="M721.56,203a7.77,7.77,0,0,1-3.92-1,6.8,6.8,0,0,1-2.62-2.62,7.75,7.75,0,0,1-.93-3.85,8.44,8.44,0,0,1,1-4.16,7,7,0,0,1,2.52-2.63,6.51,6.51,0,0,1,3.29-.91,6.63,6.63,0,0,1,2.51.48,6.46,6.46,0,0,1,2.13,1.4A7,7,0,0,1,727,191.9a7.19,7.19,0,0,1,.59,2.86,1.05,1.05,0,0,1-.36.74,1.15,1.15,0,0,1-.79.29h-11l-.51-1.93h10.78l-.45.39v-.61a3.65,3.65,0,0,0-.77-2,4.55,4.55,0,0,0-3.57-1.72,4.83,4.83,0,0,0-1.66.31,4.3,4.3,0,0,0-1.49.95,4.55,4.55,0,0,0-1.05,1.68,7.08,7.08,0,0,0-.39,2.49,6,6,0,0,0,.66,2.86,5.05,5.05,0,0,0,1.83,2,5.27,5.27,0,0,0,5.69-.17,5.81,5.81,0,0,0,.89-.77,1.25,1.25,0,0,1,.7-.25.93.93,0,0,1,.7.28.89.89,0,0,1,.28.67,1.13,1.13,0,0,1-.47.87,6.91,6.91,0,0,1-2.13,1.51A6.54,6.54,0,0,1,721.56,203Z" transform="translate(0 -3.08)"/><path class="cls-2" d="M742.59,182a1.07,1.07,0,0,1,.81.32,1.14,1.14,0,0,1,.31.83v18.42a1.17,1.17,0,0,1-.32.82,1.08,1.08,0,0,1-.8.33,1.06,1.06,0,0,1-.81-.33,1.16,1.16,0,0,1-.31-.82v-2.66l.53-.16a2.8,2.8,0,0,1-.42,1.38,5.49,5.49,0,0,1-1.15,1.4,5.63,5.63,0,0,1-1.72,1.07,5.5,5.5,0,0,1-2.11.4,6.16,6.16,0,0,1-3.43-1,6.84,6.84,0,0,1-2.41-2.69,8.29,8.29,0,0,1-.88-3.89,8.41,8.41,0,0,1,.88-3.92,6.82,6.82,0,0,1,2.39-2.67,6.08,6.08,0,0,1,3.36-1,6.24,6.24,0,0,1,2.22.39,6,6,0,0,1,1.8,1.07,5.44,5.44,0,0,1,1.22,1.48,3.35,3.35,0,0,1,.45,1.63l-.73-.17v-9.13a1.12,1.12,0,0,1,.31-.81A1,1,0,0,1,742.59,182Zm-5.77,18.93a4.41,4.41,0,0,0,2.49-.71,4.86,4.86,0,0,0,1.67-2,6.9,6.9,0,0,0,0-5.63,4.74,4.74,0,0,0-1.68-2,4.58,4.58,0,0,0-4.93,0,4.84,4.84,0,0,0-1.69,2,6.63,6.63,0,0,0,0,5.6,4.93,4.93,0,0,0,1.69,2A4.26,4.26,0,0,0,736.82,200.89Z" transform="translate(0 -3.08)"/><path class="cls-2" d="M748.86,186.11a1.62,1.62,0,0,1-1-.28,1.06,1.06,0,0,1-.34-.87v-.39a1,1,0,0,1,.36-.87,1.67,1.67,0,0,1,1-.28,1.54,1.54,0,0,1,1,.28,1.07,1.07,0,0,1,.33.87V185a1,1,0,0,1-.35.87A1.63,1.63,0,0,1,748.86,186.11ZM750,201.53a1.17,1.17,0,0,1-.32.82,1.08,1.08,0,0,1-.8.33,1.13,1.13,0,0,1-.83-.33,1.17,1.17,0,0,1-.32-.82v-12.4a1.13,1.13,0,0,1,.32-.81,1.1,1.1,0,0,1,.83-.34,1.05,1.05,0,0,1,.8.34,1.13,1.13,0,0,1,.32.81Z" transform="translate(0 -3.08)"/><path class="cls-2" d="M760.34,187.84a10.25,10.25,0,0,1,2.58.31,5.22,5.22,0,0,1,1.82.84,1.53,1.53,0,0,1,.67,1.2,1.21,1.21,0,0,1-.24.73.78.78,0,0,1-.68.34,1,1,0,0,1-.63-.16,2.54,2.54,0,0,1-.45-.36,2.64,2.64,0,0,0-.58-.41,3.88,3.88,0,0,0-1-.29,7,7,0,0,0-1.28-.13,5,5,0,0,0-2.69.73,5.1,5.1,0,0,0-1.84,2,5.84,5.84,0,0,0-.65,2.8,5.93,5.93,0,0,0,.64,2.8,5.05,5.05,0,0,0,1.79,2,4.83,4.83,0,0,0,2.66.73,5.8,5.8,0,0,0,1.54-.17,4.34,4.34,0,0,0,1-.39,3.2,3.2,0,0,0,.77-.56.94.94,0,0,1,.72-.28.91.91,0,0,1,.75.31,1.13,1.13,0,0,1,.25.75,1.51,1.51,0,0,1-.7,1.1,5.74,5.74,0,0,1-1.89.93,8.63,8.63,0,0,1-2.7.38,6.89,6.89,0,0,1-3.72-1,6.72,6.72,0,0,1-2.48-2.72,8.3,8.3,0,0,1-.88-3.85,8,8,0,0,1,.91-3.83,6.89,6.89,0,0,1,6.31-3.73Z" transform="translate(0 -3.08)"/><path class="cls-2" d="M767.87,188.29h6.58a1,1,0,0,1,.75.31,1.07,1.07,0,0,1,.29.75,1,1,0,0,1-.29.72,1.05,1.05,0,0,1-.75.29h-6.58a1,1,0,0,1-.74-.31,1,1,0,0,1-.32-.72,1,1,0,0,1,.32-.75A1.12,1.12,0,0,1,767.87,188.29Zm2.94-3.81a1,1,0,0,1,.79.34,1.17,1.17,0,0,1,.31.81v13.5a2,2,0,0,0,.19,1,1.07,1.07,0,0,0,.52.47,1.84,1.84,0,0,0,.63.12,1.07,1.07,0,0,0,.49-.1,1.22,1.22,0,0,1,.49-.09.71.71,0,0,1,.52.26,1,1,0,0,1-.35,1.54,2.46,2.46,0,0,1-1.32.35c-.26,0-.58,0-1-.05a2.93,2.93,0,0,1-1.14-.37,2.41,2.41,0,0,1-.94-1,4.37,4.37,0,0,1-.37-2V185.63a1.14,1.14,0,0,1,1.14-1.15Z" transform="translate(0 -3.08)"/><path class="cls-2" d="M779.61,186.11a1.64,1.64,0,0,1-1-.28,1.09,1.09,0,0,1-.34-.87v-.39a1,1,0,0,1,.37-.87,1.64,1.64,0,0,1,1-.28,1.52,1.52,0,0,1,1,.28,1,1,0,0,1,.34.87V185a1.07,1.07,0,0,1-.35.87A1.67,1.67,0,0,1,779.61,186.11Zm1.14,15.42a1.13,1.13,0,0,1-.32.82,1.06,1.06,0,0,1-.8.33,1.09,1.09,0,0,1-.82-.33,1.13,1.13,0,0,1-.32-.82v-12.4a1.09,1.09,0,0,1,.32-.81,1.06,1.06,0,0,1,.82-.34,1,1,0,0,1,.8.34,1.09,1.09,0,0,1,.32.81Z" transform="translate(0 -3.08)"/><path class="cls-2" d="M798.39,195.4a7.76,7.76,0,0,1-.95,3.89,7.3,7.3,0,0,1-10,2.69,7.13,7.13,0,0,1-2.62-2.69,8.29,8.29,0,0,1,0-7.78,7.2,7.2,0,0,1,2.62-2.69,7.18,7.18,0,0,1,10,2.69A7.81,7.81,0,0,1,798.39,195.4Zm-2.24,0a6,6,0,0,0-.65-2.84,5.07,5.07,0,0,0-1.8-1.93,4.66,4.66,0,0,0-2.56-.72,4.73,4.73,0,0,0-2.55.72,5.07,5.07,0,0,0-1.8,1.93,6.42,6.42,0,0,0,0,5.67,5.13,5.13,0,0,0,1.8,2,4.8,4.8,0,0,0,2.55.71,4.74,4.74,0,0,0,2.56-.71,5.13,5.13,0,0,0,1.8-2A6,6,0,0,0,796.15,195.4Z" transform="translate(0 -3.08)"/><path class="cls-2" d="M808.84,187.84a5,5,0,0,1,3,.79,4.24,4.24,0,0,1,1.56,2.1,8.8,8.8,0,0,1,.46,3v7.84a1.17,1.17,0,0,1-.32.82,1.08,1.08,0,0,1-.8.33,1,1,0,0,1-.81-.33,1.16,1.16,0,0,1-.31-.82v-7.78a5.62,5.62,0,0,0-.32-1.93,2.92,2.92,0,0,0-1.08-1.39,3.55,3.55,0,0,0-2-.52,4.58,4.58,0,0,0-2.15.52,4.24,4.24,0,0,0-1.57,1.39,3.38,3.38,0,0,0-.59,1.93v7.78a1.17,1.17,0,0,1-.32.82,1.06,1.06,0,0,1-.8.33,1.08,1.08,0,0,1-.8-.33,1.17,1.17,0,0,1-.32-.82V189.35a1.12,1.12,0,0,1,.32-.82,1.07,1.07,0,0,1,.8-.32,1,1,0,0,1,.81.32,1.12,1.12,0,0,1,.31.82v2l-.56.62a3.93,3.93,0,0,1,.65-1.47,5.64,5.64,0,0,1,1.26-1.33,6.55,6.55,0,0,1,1.68-.94A5.46,5.46,0,0,1,808.84,187.84Z" transform="translate(0 -3.08)"/><path class="cls-2" d="M817.15,200.39a1.36,1.36,0,0,1-.21-.77.94.94,0,0,1,.47-.72,1.13,1.13,0,0,1,.68-.17,1,1,0,0,1,.69.37,6.42,6.42,0,0,0,1.79,1.47,5.14,5.14,0,0,0,2.46.54,5.28,5.28,0,0,0,1.33-.22,2.46,2.46,0,0,0,1.15-.69,1.8,1.8,0,0,0,.46-1.3,1.66,1.66,0,0,0-.47-1.24,3.73,3.73,0,0,0-1.25-.76,14.34,14.34,0,0,0-1.64-.52c-.61-.17-1.22-.35-1.82-.56a6.54,6.54,0,0,1-1.61-.8,3.63,3.63,0,0,1-1.14-1.23,3.91,3.91,0,0,1,.25-4,4.42,4.42,0,0,1,1.83-1.42,6.24,6.24,0,0,1,2.55-.51,8,8,0,0,1,1.64.18,6.56,6.56,0,0,1,1.66.62,4.76,4.76,0,0,1,1.43,1.19,1.13,1.13,0,0,1,.28.7.91.91,0,0,1-.36.76,1.08,1.08,0,0,1-.69.21.91.91,0,0,1-.63-.27,4.14,4.14,0,0,0-1.5-1.11,4.86,4.86,0,0,0-1.94-.37,4.15,4.15,0,0,0-1.29.21,2.67,2.67,0,0,0-1.08.65,1.74,1.74,0,0,0-.43,1.26,1.77,1.77,0,0,0,.5,1.24,3.65,3.65,0,0,0,1.29.77c.54.19,1.14.38,1.79.57a17.28,17.28,0,0,1,1.72.52,5.9,5.9,0,0,1,1.5.77,3.5,3.5,0,0,1,1.07,1.22,3.94,3.94,0,0,1,.39,1.86,3.53,3.53,0,0,1-.73,2.22,4.54,4.54,0,0,1-1.92,1.43,6.6,6.6,0,0,1-2.56.49,8.54,8.54,0,0,1-3-.57A5.9,5.9,0,0,1,817.15,200.39Z" transform="translate(0 -3.08)"/></g></g></svg>