<svg xmlns="http://www.w3.org/2000/svg" viewBox="0 0 480.36 308.59"><defs><style>.cls-1{fill:#b4b4b5;}.cls-2{fill:#010101;}.cls-3{fill:#231f20;}.cls-4{fill:none;stroke:#231f20;stroke-miterlimit:10;stroke-width:3px;}</style></defs><g id="Layer_2" data-name="Layer 2"><g id="Layer_1-2" data-name="Layer 1"><g id="_375176344" data-name=" 375176344"><path class="cls-1" d="M20.23,20a2.13,2.13,0,0,1,1.47-.61,2.08,2.08,0,0,1,1.48.61,2.17,2.17,0,0,1,.6,1.48,2.1,2.1,0,0,1-.6,1.49,2.15,2.15,0,0,1-1.48.6,2.07,2.07,0,0,1-1.47-.6,2.18,2.18,0,0,1-.61-1.49A2.1,2.1,0,0,1,20.23,20Z"/><path class="cls-1" d="M13.91,73.42V15l1.75-1.76h69.1L86.51,15V84.49l-1.75,1.76H15.66l-1.75-1.76Zm2.6-51.92a5.2,5.2,0,1,0,5.19-5.21A5.14,5.14,0,0,0,18,17.81,5.29,5.29,0,0,0,16.51,21.5Z"/><path class="cls-2" d="M98.44,24.43a1.57,1.57,0,0,1,0,3.13H89.6V24.43Z"/><path class="cls-2" d="M98.44,36.29a1.56,1.56,0,0,1,0,3.12H89.6V36.29Z"/><path class="cls-2" d="M98.44,48.14a1.57,1.57,0,0,1,0,3.13H89.6V48.14Z"/><path class="cls-2" d="M98.44,60a1.56,1.56,0,0,1,0,3.12H89.6V60Z"/><path class="cls-2" d="M98.44,71.85a1.57,1.57,0,0,1,0,3.13H89.6V71.85Z"/><path class="cls-2" d="M89.6,71.85V75H88.34a1.57,1.57,0,0,1,0-3.13Z"/><path class="cls-2" d="M89.6,60v3.12H88.34a1.56,1.56,0,0,1,0-3.12Z"/><path class="cls-2" d="M89.6,48.14v3.13H88.34a1.57,1.57,0,0,1,0-3.13Z"/><path class="cls-2" d="M89.6,36.29v3.12H88.34a1.56,1.56,0,0,1,0-3.12Z"/><path class="cls-2" d="M89.6,24.43v3.13H88.34a1.57,1.57,0,0,1,0-3.13Z"/><path class="cls-2" d="M89.6,14.37V24.43H88.34A1.56,1.56,0,0,0,86.78,26h-.27V15l-1.75-1.76H72.64a1.56,1.56,0,0,0,1.55-1.56V10.15H86l.45.45,2.66,2.68.45.45Z"/><path class="cls-2" d="M86.51,37.85V26h.27a1.57,1.57,0,0,0,1.56,1.57H89.6v8.73H88.34a1.56,1.56,0,0,0-1.56,1.56Z"/><path class="cls-2" d="M86.51,49.71V37.85h.27a1.56,1.56,0,0,0,1.56,1.56H89.6v8.73H88.34a1.57,1.57,0,0,0-1.56,1.57Z"/><path class="cls-2" d="M86.51,61.56V49.71h.27a1.57,1.57,0,0,0,1.56,1.56H89.6V60H88.34a1.56,1.56,0,0,0-1.56,1.56Z"/><path class="cls-2" d="M86.51,73.42V61.56h.27a1.56,1.56,0,0,0,1.56,1.56H89.6v8.73H88.34a1.57,1.57,0,0,0-1.56,1.57Z"/><path class="cls-2" d="M86.51,84.49V73.42h.27A1.56,1.56,0,0,0,88.34,75H89.6V85.76l-.45.45-2.66,2.67-.45.45H74.19v-1a1.56,1.56,0,0,0-1.55-1.56v-.47H84.76Z"/><path class="cls-2" d="M74.19,89.33v9.11a1.56,1.56,0,1,1-3.11,0V89.33Z"/><path class="cls-2" d="M74.19,88.28v1H71.08v-1a1.56,1.56,0,1,1,3.11,0Z"/><path class="cls-2" d="M74.19,10.15v1.57a1.56,1.56,0,1,1-3.11,0V10.15Z"/><path class="cls-2" d="M74.19,1.56v8.59H71.08V1.56a1.56,1.56,0,1,1,3.11,0Z"/><path class="cls-2" d="M72.64,13.28H60.84a1.55,1.55,0,0,0,1.55-1.56V10.15h8.69v1.57A1.56,1.56,0,0,0,72.64,13.28Z"/><path class="cls-2" d="M62.39,89.33v9.11a1.55,1.55,0,1,1-3.1,0V89.33Z"/><path class="cls-2" d="M62.39,88.28v1h-3.1v-1a1.55,1.55,0,1,1,3.1,0Z"/><path class="cls-2" d="M71.08,88.28v1H62.39v-1a1.55,1.55,0,0,0-1.55-1.56v-.47h11.8v.47A1.56,1.56,0,0,0,71.08,88.28Z"/><path class="cls-2" d="M62.39,10.15v1.57a1.55,1.55,0,1,1-3.1,0V10.15Z"/><path class="cls-2" d="M62.39,1.56v8.59h-3.1V1.56a1.55,1.55,0,1,1,3.1,0Z"/><path class="cls-2" d="M60.84,13.28H49a1.56,1.56,0,0,0,1.56-1.56V10.15h8.69v1.57A1.56,1.56,0,0,0,60.84,13.28Z"/><path class="cls-2" d="M50.6,89.33v9.11a1.56,1.56,0,1,1-3.11,0V89.33Z"/><path class="cls-2" d="M50.6,88.28v1H47.49v-1a1.56,1.56,0,1,1,3.11,0Z"/><path class="cls-2" d="M59.29,88.28v1H50.6v-1A1.56,1.56,0,0,0,49,86.72v-.47h11.8v.47A1.56,1.56,0,0,0,59.29,88.28Z"/><path class="cls-2" d="M50.6,10.15v1.57a1.56,1.56,0,1,1-3.11,0V10.15Z"/><path class="cls-2" d="M50.6,1.56v8.59H47.49V1.56a1.56,1.56,0,1,1,3.11,0Z"/><path class="cls-2" d="M49,13.28H37.25a1.56,1.56,0,0,0,1.55-1.56V10.15h8.69v1.57A1.56,1.56,0,0,0,49,13.28Z"/><path class="cls-2" d="M38.8,89.33v9.11a1.56,1.56,0,1,1-3.11,0V89.33Z"/><path class="cls-2" d="M38.8,88.28v1H35.69v-1a1.56,1.56,0,1,1,3.11,0Z"/><path class="cls-2" d="M47.49,88.28v1H38.8v-1a1.56,1.56,0,0,0-1.55-1.56v-.47H49v.47A1.56,1.56,0,0,0,47.49,88.28Z"/><path class="cls-2" d="M38.8,10.15v1.57a1.56,1.56,0,1,1-3.11,0V10.15Z"/><path class="cls-2" d="M38.8,1.56v8.59H35.69V1.56a1.56,1.56,0,1,1,3.11,0Z"/><path class="cls-2" d="M37.25,13.28H25.45A1.56,1.56,0,0,0,27,11.72V10.15h8.68v1.57A1.56,1.56,0,0,0,37.25,13.28Z"/><path class="cls-2" d="M27,89.33v9.11a1.56,1.56,0,1,1-3.11,0V89.33Z"/><path class="cls-2" d="M27,88.28v1H23.9v-1a1.56,1.56,0,1,1,3.11,0Z"/><path class="cls-2" d="M35.69,88.28v1H27v-1a1.56,1.56,0,0,0-1.56-1.56v-.47h11.8v.47A1.56,1.56,0,0,0,35.69,88.28Z"/><path class="cls-2" d="M27,10.15v1.57a1.56,1.56,0,1,1-3.11,0V10.15Z"/><path class="cls-2" d="M27,1.56v8.59H23.9V1.56a1.56,1.56,0,1,1,3.11,0Z"/><path class="cls-2" d="M25.38,17.81a5.22,5.22,0,0,1-3.68,8.91,5.21,5.21,0,0,1-5.19-5.22A5.29,5.29,0,0,1,18,17.81a5.14,5.14,0,0,1,3.67-1.52A5.22,5.22,0,0,1,25.38,17.81Zm-1.6,3.69a2.17,2.17,0,0,0-.6-1.48,2.08,2.08,0,0,0-1.48-.61,2.13,2.13,0,0,0-1.47.61,2.1,2.1,0,0,0-.61,1.48A2.18,2.18,0,0,0,20.23,23a2.07,2.07,0,0,0,1.47.6,2.15,2.15,0,0,0,1.48-.6A2.1,2.1,0,0,0,23.78,21.5Z"/><path class="cls-2" d="M13.91,15V73.42h-.7a1.57,1.57,0,0,0-1.55-1.57h-.84V63.12h.84a1.56,1.56,0,0,0,0-3.12h-.84V51.27h.84a1.57,1.57,0,0,0,0-3.13h-.84V39.41h.84a1.56,1.56,0,0,0,0-3.12h-.84V27.56h.84a1.57,1.57,0,0,0,0-3.13h-.84V13.73l.45-.45,2.66-2.68.45-.45H23.9v1.57a1.56,1.56,0,0,0,1.55,1.56H15.66Z"/><path class="cls-2" d="M11.66,24.43a1.57,1.57,0,0,1,0,3.13h-.84V24.43Z"/><path class="cls-2" d="M11.66,36.29a1.56,1.56,0,0,1,0,3.12h-.84V36.29Z"/><path class="cls-2" d="M11.66,48.14a1.57,1.57,0,0,1,0,3.13h-.84V48.14Z"/><path class="cls-2" d="M11.66,60a1.56,1.56,0,0,1,0,3.12h-.84V60Z"/><path class="cls-2" d="M11.66,71.85a1.57,1.57,0,0,1,0,3.13h-.84V71.85Z"/><path class="cls-2" d="M23.9,88.28v1H14.38l-.45-.45-2.66-2.67-.45-.45V75h.84a1.56,1.56,0,0,0,1.55-1.56h.7V84.49l1.75,1.76h9.79v.47A1.56,1.56,0,0,0,23.9,88.28Z"/><path class="cls-2" d="M10.82,71.85V75H1.55a1.57,1.57,0,0,1,0-3.13Z"/><path class="cls-2" d="M10.82,60v3.12H1.55a1.56,1.56,0,0,1,0-3.12Z"/><path class="cls-2" d="M10.82,48.14v3.13H1.55a1.57,1.57,0,0,1,0-3.13Z"/><path class="cls-2" d="M10.82,36.29v3.12H1.55a1.56,1.56,0,0,1,0-3.12Z"/><path class="cls-2" d="M10.82,24.43v3.13H1.55a1.57,1.57,0,0,1,0-3.13Z"/></g><path class="cls-3" d="M45.6,36.36a1.22,1.22,0,0,1,1,.4,1.37,1.37,0,0,1,.36,1V60.05a1.46,1.46,0,0,1-.43,1.1,1.53,1.53,0,0,1-1.08.41,1.56,1.56,0,0,1-.61-.13,1.12,1.12,0,0,1-.51-.34L28.89,40.72l.72-.4V60.23a1.29,1.29,0,0,1-.37,1,1.37,1.37,0,0,1-1,.38,1.3,1.3,0,0,1-1-.38,1.32,1.32,0,0,1-.36-1V37.84a1.38,1.38,0,0,1,.44-1.08,1.4,1.4,0,0,1,1-.4,1.81,1.81,0,0,1,.67.13,1,1,0,0,1,.52.41L44.7,57l-.43.58V37.73a1.34,1.34,0,0,1,.37-1A1.26,1.26,0,0,1,45.6,36.36Z"/><path class="cls-3" d="M71.88,36.36a1.22,1.22,0,0,1,1,.4,1.37,1.37,0,0,1,.36,1V60.05a1.46,1.46,0,0,1-.43,1.1,1.53,1.53,0,0,1-1.08.41,1.56,1.56,0,0,1-.61-.13,1.12,1.12,0,0,1-.51-.34L55.17,40.72l.72-.4V60.23a1.29,1.29,0,0,1-.37,1,1.37,1.37,0,0,1-1,.38,1.3,1.3,0,0,1-1-.38,1.32,1.32,0,0,1-.36-1V37.84a1.38,1.38,0,0,1,.44-1.08,1.4,1.4,0,0,1,1-.4,1.81,1.81,0,0,1,.67.13,1,1,0,0,1,.52.41L71,57l-.43.58V37.73a1.34,1.34,0,0,1,.37-1A1.26,1.26,0,0,1,71.88,36.36Z"/><g id="_375176344-2" data-name=" 375176344"><path class="cls-1" d="M23.39,124.32A2.16,2.16,0,0,1,24,125.8a2.08,2.08,0,0,1-.61,1.48,2.11,2.11,0,0,1-1.47.61,2,2,0,0,1-1.48-.61,2.15,2.15,0,0,1-.6-1.48,2.08,2.08,0,0,1,.6-1.48,2.11,2.11,0,0,1,1.48-.61A2,2,0,0,1,23.39,124.32Z"/><path class="cls-1" d="M21.92,120.58a5.19,5.19,0,0,0-3.68,1.53,5.21,5.21,0,0,0,3.68,8.9,5.16,5.16,0,0,0,3.67-1.52,5.24,5.24,0,0,0,0-7.38A5.2,5.2,0,0,0,21.92,120.58Zm-6.05-3H85l1.74,1.75v69.46L85,190.55H15.87l-1.75-1.76V119.33Z"/><path class="cls-2" d="M98.66,128.73a1.56,1.56,0,0,1,0,3.12H89.81v-3.12Z"/><path class="cls-2" d="M98.66,140.58a1.57,1.57,0,0,1,0,3.13H89.81v-3.13Z"/><path class="cls-2" d="M98.66,152.44a1.57,1.57,0,0,1,0,3.13H89.81v-3.13Z"/><path class="cls-2" d="M98.66,164.3a1.56,1.56,0,0,1,0,3.12H89.81V164.3Z"/><path class="cls-2" d="M98.66,176.15a1.57,1.57,0,0,1,0,3.13H89.81v-3.13Z"/><path class="cls-2" d="M89.81,176.15v3.13H88.55a1.57,1.57,0,0,1,0-3.13Z"/><path class="cls-2" d="M89.81,164.3v3.12H88.55a1.56,1.56,0,0,1,0-3.12Z"/><path class="cls-2" d="M89.81,152.44v3.13H88.55a1.57,1.57,0,0,1,0-3.13Z"/><path class="cls-2" d="M89.81,140.58v3.13H88.55a1.57,1.57,0,0,1,0-3.13Z"/><path class="cls-2" d="M89.81,128.73v3.12H88.55a1.56,1.56,0,0,1,0-3.12Z"/><path class="cls-2" d="M89.81,118.67v10.06H88.55A1.56,1.56,0,0,0,87,130.29h-.28v-11L85,117.58H72.85A1.57,1.57,0,0,0,74.4,116v-1.56H86.26l.44.45,2.67,2.68.44.45Z"/><path class="cls-2" d="M88.55,131.85h1.26v8.73H88.55A1.57,1.57,0,0,0,87,142.15h-.28V130.29H87A1.56,1.56,0,0,0,88.55,131.85Z"/><path class="cls-2" d="M88.55,143.71h1.26v8.73H88.55A1.56,1.56,0,0,0,87,154h-.28V142.15H87A1.56,1.56,0,0,0,88.55,143.71Z"/><path class="cls-2" d="M88.55,155.57h1.26v8.73H88.55A1.56,1.56,0,0,0,87,165.86h-.28V154H87A1.57,1.57,0,0,0,88.55,155.57Z"/><path class="cls-2" d="M88.55,167.42h1.26v8.73H88.55A1.56,1.56,0,0,0,87,177.71h-.28V165.86H87A1.56,1.56,0,0,0,88.55,167.42Z"/><path class="cls-2" d="M88.55,179.28h1.26v10.78l-.44.45-2.67,2.67-.44.45H74.4v-1A1.57,1.57,0,0,0,72.85,191v-.46H85l1.74-1.76V177.71H87A1.57,1.57,0,0,0,88.55,179.28Z"/><path class="cls-2" d="M74.4,193.63v9.1a1.56,1.56,0,1,1-3.11,0v-9.1Z"/><path class="cls-2" d="M74.4,192.58v1H71.29v-1a1.56,1.56,0,1,1,3.11,0Z"/><path class="cls-2" d="M74.4,114.45V116a1.56,1.56,0,1,1-3.11,0v-1.56Z"/><path class="cls-2" d="M74.4,105.86v8.59H71.29v-8.59a1.56,1.56,0,1,1,3.11,0Z"/><path class="cls-2" d="M72.85,117.58H61.05A1.57,1.57,0,0,0,62.61,116v-1.56h8.68V116A1.57,1.57,0,0,0,72.85,117.58Z"/><path class="cls-2" d="M62.61,193.63v9.1a1.56,1.56,0,1,1-3.11,0v-9.1Z"/><path class="cls-2" d="M62.61,193.63H59.5v-1a1.56,1.56,0,1,1,3.11,0Z"/><path class="cls-2" d="M71.29,192.58v1H62.61v-1A1.57,1.57,0,0,0,61.05,191v-.46h11.8V191A1.57,1.57,0,0,0,71.29,192.58Z"/><path class="cls-2" d="M62.61,114.45V116a1.56,1.56,0,1,1-3.11,0v-1.56Z"/><path class="cls-2" d="M62.61,105.86v8.59H59.5v-8.59a1.56,1.56,0,1,1,3.11,0Z"/><path class="cls-2" d="M61.05,117.58H49.26A1.57,1.57,0,0,0,50.81,116v-1.56H59.5V116A1.57,1.57,0,0,0,61.05,117.58Z"/><path class="cls-2" d="M50.81,193.63v9.1a1.56,1.56,0,1,1-3.11,0v-9.1Z"/><path class="cls-2" d="M50.81,192.58v1H47.7v-1a1.56,1.56,0,1,1,3.11,0Z"/><path class="cls-2" d="M59.5,192.58v1H50.81v-1A1.57,1.57,0,0,0,49.26,191v-.46H61.05V191A1.57,1.57,0,0,0,59.5,192.58Z"/><path class="cls-2" d="M50.81,114.45V116a1.56,1.56,0,1,1-3.11,0v-1.56Z"/><path class="cls-2" d="M50.81,105.86v8.59H47.7v-8.59a1.56,1.56,0,1,1,3.11,0Z"/><path class="cls-2" d="M49.26,117.58H37.46A1.57,1.57,0,0,0,39,116v-1.56H47.7V116A1.57,1.57,0,0,0,49.26,117.58Z"/><path class="cls-2" d="M39,193.63v9.1a1.56,1.56,0,1,1-3.11,0v-9.1Z"/><path class="cls-2" d="M39,192.58v1H35.91v-1a1.56,1.56,0,1,1,3.11,0Z"/><path class="cls-2" d="M47.7,192.58v1H39v-1A1.57,1.57,0,0,0,37.46,191v-.46h11.8V191A1.57,1.57,0,0,0,47.7,192.58Z"/><path class="cls-2" d="M39,114.45V116a1.56,1.56,0,1,1-3.11,0v-1.56Z"/><path class="cls-2" d="M39,105.86v8.59H35.91v-8.59a1.56,1.56,0,1,1,3.11,0Z"/><path class="cls-2" d="M37.46,117.58H25.67A1.57,1.57,0,0,0,27.22,116v-1.56h8.69V116A1.57,1.57,0,0,0,37.46,117.58Z"/><path class="cls-2" d="M27.22,193.63v9.1a1.56,1.56,0,1,1-3.11,0v-9.1Z"/><path class="cls-2" d="M27.22,192.58v1H24.11v-1a1.56,1.56,0,1,1,3.11,0Z"/><path class="cls-2" d="M35.91,192.58v1H27.22v-1A1.57,1.57,0,0,0,25.67,191v-.46H37.46V191A1.57,1.57,0,0,0,35.91,192.58Z"/><path class="cls-2" d="M27.22,114.45V116a1.56,1.56,0,1,1-3.11,0v-1.56Z"/><path class="cls-2" d="M27.22,105.86v8.59H24.11v-8.59a1.56,1.56,0,1,1,3.11,0Z"/><path class="cls-2" d="M25.59,122.11a5.24,5.24,0,0,1,0,7.38A5.16,5.16,0,0,1,21.92,131a5.22,5.22,0,1,1,3.67-8.9ZM24,125.8a2.16,2.16,0,0,0-.61-1.48,2,2,0,0,0-1.47-.61,2.11,2.11,0,0,0-1.48.61,2.08,2.08,0,0,0-.6,1.48,2.15,2.15,0,0,0,.6,1.48,2,2,0,0,0,1.48.61,2.11,2.11,0,0,0,1.47-.61A2.08,2.08,0,0,0,24,125.8Z"/><path class="cls-2" d="M14.12,119.33v58.38h-.7a1.55,1.55,0,0,0-1.55-1.56H11v-8.73h.84a1.56,1.56,0,0,0,0-3.12H11v-8.73h.84a1.57,1.57,0,0,0,0-3.13H11v-8.73h.84a1.57,1.57,0,0,0,0-3.13H11v-8.73h.84a1.56,1.56,0,0,0,0-3.12H11V118l.45-.45,2.66-2.68.45-.45h9.52V116a1.57,1.57,0,0,0,1.56,1.57h-9.8Z"/><path class="cls-2" d="M11.87,128.73a1.56,1.56,0,0,1,0,3.12H11v-3.12Z"/><path class="cls-2" d="M11.87,140.58a1.57,1.57,0,0,1,0,3.13H11v-3.13Z"/><path class="cls-2" d="M11.87,152.44a1.57,1.57,0,0,1,0,3.13H11v-3.13Z"/><path class="cls-2" d="M11.87,164.3a1.56,1.56,0,0,1,0,3.12H11V164.3Z"/><path class="cls-2" d="M11.87,176.15a1.57,1.57,0,0,1,0,3.13H11v-3.13Z"/><path class="cls-2" d="M24.11,192.58v1H14.59l-.45-.45-2.66-2.67-.45-.45V179.28h.84a1.56,1.56,0,0,0,1.55-1.57h.7v11.08l1.75,1.76h9.8V191A1.57,1.57,0,0,0,24.11,192.58Z"/><path class="cls-2" d="M11,176.15v3.13H1.77a1.57,1.57,0,0,1,0-3.13Z"/><path class="cls-2" d="M11,164.3v3.12H1.77a1.56,1.56,0,1,1,0-3.12Z"/><path class="cls-2" d="M11,152.44v3.13H1.77a1.57,1.57,0,0,1,0-3.13Z"/><path class="cls-2" d="M11,140.58v3.13H1.77a1.57,1.57,0,0,1,0-3.13Z"/><path class="cls-2" d="M11,128.73v3.12H1.77a1.56,1.56,0,0,1,0-3.12Z"/></g><path class="cls-3" d="M38.65,166.22a13.24,13.24,0,0,1-5.15-1,12.67,12.67,0,0,1-6.89-6.88,13.61,13.61,0,0,1,0-10.19A12.72,12.72,0,0,1,29.36,144a12.86,12.86,0,0,1,4.14-2.75,13.24,13.24,0,0,1,5.15-1,15.31,15.31,0,0,1,3.54.41A10.22,10.22,0,0,1,45.27,142a1.18,1.18,0,0,1,.54.52,1.43,1.43,0,0,1,.18.67,1.47,1.47,0,0,1-.41,1,1.29,1.29,0,0,1-1,.43,1.63,1.63,0,0,1-.43-.05,1.68,1.68,0,0,1-.39-.16,11.66,11.66,0,0,0-2.42-.92,10.53,10.53,0,0,0-2.73-.34,9.8,9.8,0,0,0-5.1,1.33A9.61,9.61,0,0,0,30,148.13a10.77,10.77,0,0,0,0,10.26A9.68,9.68,0,0,0,33.55,162a9.9,9.9,0,0,0,5.1,1.33,11.37,11.37,0,0,0,3-.4,10.52,10.52,0,0,0,2.59-1l-.21.87v-7.56l.54.5H39a1.48,1.48,0,0,1-1-.41,1.37,1.37,0,0,1-.43-1,1.4,1.4,0,0,1,.43-1.06,1.48,1.48,0,0,1,1-.41H45.6a1.35,1.35,0,0,1,1,.43,1.43,1.43,0,0,1,.42,1v8.32a1.52,1.52,0,0,1-.2.77,1.65,1.65,0,0,1-.52.56,14.56,14.56,0,0,1-3.59,1.66A13.85,13.85,0,0,1,38.65,166.22Z"/><path class="cls-3" d="M63,140.66a6.8,6.8,0,0,1,4.92,1.64,6.77,6.77,0,0,1,1,7.54A5.38,5.38,0,0,1,66.78,152a7.37,7.37,0,0,1-3.44.87l0-1a9.91,9.91,0,0,1,2.59.36,7.64,7.64,0,0,1,2.45,1.15,6.21,6.21,0,0,1,1.83,2.09,6.5,6.5,0,0,1,.72,3.2,7.82,7.82,0,0,1-.68,3.46,5.93,5.93,0,0,1-1.82,2.23,7.31,7.31,0,0,1-2.52,1.19,11.18,11.18,0,0,1-2.82.36H53.62a1.46,1.46,0,0,1-1-.43,1.43,1.43,0,0,1-.43-1.05V142.13a1.47,1.47,0,0,1,1.47-1.47Zm-.39,2.84H54.85l.43-.61v8.93l-.4-.47h7.74a3.88,3.88,0,0,0,2.72-1,3.82,3.82,0,0,0,1.14-3,3.76,3.76,0,0,0-1-2.83A4,4,0,0,0,62.59,143.5Zm.25,10.73H55l.25-.25v9.39l-.29-.32h8A5.32,5.32,0,0,0,66.42,162a4,4,0,0,0,1.35-3.35,4.38,4.38,0,0,0-.72-2.7,3.83,3.83,0,0,0-1.85-1.31A7.48,7.48,0,0,0,62.84,154.23Z"/><g id="_375176344-3" data-name=" 375176344"><path class="cls-1" d="M23.39,228.61A2.18,2.18,0,0,1,24,230.1a2.1,2.1,0,0,1-.61,1.48,2.15,2.15,0,0,1-1.47.61,2.08,2.08,0,0,1-1.48-.61,2.17,2.17,0,0,1-.6-1.48,2.1,2.1,0,0,1,.6-1.49,2.15,2.15,0,0,1,1.48-.6A2.07,2.07,0,0,1,23.39,228.61Z"/><path class="cls-1" d="M14.12,282V223.63l1.75-1.76H85l1.74,1.76v69.46L85,294.84H15.87l-1.75-1.75Zm2.61-51.91a5.17,5.17,0,0,0,5.19,5.21,5.16,5.16,0,0,0,3.67-1.52,5.29,5.29,0,0,0,1.52-3.69,5.19,5.19,0,1,0-10.38,0Z"/><path class="cls-2" d="M98.66,233a1.56,1.56,0,0,1,0,3.12H89.81V233Z"/><path class="cls-2" d="M98.66,244.88a1.57,1.57,0,0,1,0,3.13H89.81v-3.13Z"/><path class="cls-2" d="M98.66,256.74a1.56,1.56,0,0,1,0,3.12H89.81v-3.12Z"/><path class="cls-2" d="M98.66,268.59a1.57,1.57,0,0,1,0,3.13H89.81v-3.13Z"/><path class="cls-2" d="M98.66,280.45a1.56,1.56,0,0,1,0,3.12H89.81v-3.12Z"/><path class="cls-2" d="M89.81,280.45v3.12H88.55a1.56,1.56,0,0,1,0-3.12Z"/><path class="cls-2" d="M89.81,268.59v3.13H88.55a1.57,1.57,0,0,1,0-3.13Z"/><path class="cls-2" d="M89.81,256.74v3.12H88.55a1.56,1.56,0,0,1,0-3.12Z"/><path class="cls-2" d="M89.81,244.88V248H88.55a1.57,1.57,0,0,1,0-3.13Z"/><path class="cls-2" d="M89.81,233v3.12H88.55a1.56,1.56,0,0,1,0-3.12Z"/><path class="cls-2" d="M89.81,223V233H88.55A1.56,1.56,0,0,0,87,234.59h-.28v-11L85,221.87H72.85a1.56,1.56,0,0,0,1.55-1.56v-1.56H86.26l.44.45,2.67,2.67.44.45Z"/><path class="cls-2" d="M88.55,236.15h1.26v8.73H88.55A1.57,1.57,0,0,0,87,246.45h-.28V234.59H87A1.56,1.56,0,0,0,88.55,236.15Z"/><path class="cls-2" d="M88.55,248h1.26v8.73H88.55A1.56,1.56,0,0,0,87,258.3h-.28V246.45H87A1.57,1.57,0,0,0,88.55,248Z"/><path class="cls-2" d="M88.55,259.86h1.26v8.73H88.55A1.57,1.57,0,0,0,87,270.16h-.28V258.3H87A1.56,1.56,0,0,0,88.55,259.86Z"/><path class="cls-2" d="M88.55,271.72h1.26v8.73H88.55A1.56,1.56,0,0,0,87,282h-.28V270.16H87A1.56,1.56,0,0,0,88.55,271.72Z"/><path class="cls-2" d="M88.55,283.57h1.26v10.79l-.44.44-2.67,2.68-.44.45H74.4v-1.06a1.57,1.57,0,0,0-1.55-1.56v-.47H85l1.74-1.75V282H87A1.56,1.56,0,0,0,88.55,283.57Z"/><path class="cls-2" d="M74.4,297.93V307a1.56,1.56,0,1,1-3.11,0v-9.1Z"/><path class="cls-2" d="M74.4,296.87v1.06H71.29v-1.06a1.56,1.56,0,1,1,3.11,0Z"/><path class="cls-2" d="M74.4,218.75v1.56a1.56,1.56,0,1,1-3.11,0v-1.56Z"/><path class="cls-2" d="M74.4,210.16v8.59H71.29v-8.59a1.56,1.56,0,1,1,3.11,0Z"/><path class="cls-2" d="M72.85,221.87H61.05a1.56,1.56,0,0,0,1.56-1.56v-1.56h8.68v1.56A1.56,1.56,0,0,0,72.85,221.87Z"/><path class="cls-2" d="M62.61,297.93V307a1.56,1.56,0,1,1-3.11,0v-9.1Z"/><path class="cls-2" d="M62.61,296.87v1.06H59.5v-1.06a1.56,1.56,0,1,1,3.11,0Z"/><path class="cls-2" d="M71.29,296.87v1.06H62.61v-1.06a1.57,1.57,0,0,0-1.56-1.56v-.47h11.8v.47A1.57,1.57,0,0,0,71.29,296.87Z"/><path class="cls-2" d="M62.61,218.75v1.56a1.56,1.56,0,1,1-3.11,0v-1.56Z"/><path class="cls-2" d="M62.61,210.16v8.59H59.5v-8.59a1.56,1.56,0,1,1,3.11,0Z"/><path class="cls-2" d="M61.05,221.87H49.26a1.56,1.56,0,0,0,1.55-1.56v-1.56H59.5v1.56A1.56,1.56,0,0,0,61.05,221.87Z"/><path class="cls-2" d="M50.81,297.93V307a1.56,1.56,0,1,1-3.11,0v-9.1Z"/><path class="cls-2" d="M50.81,296.87v1.06H47.7v-1.06a1.56,1.56,0,1,1,3.11,0Z"/><path class="cls-2" d="M59.5,296.87v1.06H50.81v-1.06a1.57,1.57,0,0,0-1.55-1.56v-.47H61.05v.47A1.57,1.57,0,0,0,59.5,296.87Z"/><path class="cls-2" d="M50.81,218.75v1.56a1.56,1.56,0,1,1-3.11,0v-1.56Z"/><path class="cls-2" d="M50.81,210.16v8.59H47.7v-8.59a1.56,1.56,0,1,1,3.11,0Z"/><path class="cls-2" d="M49.26,221.87H37.46A1.56,1.56,0,0,0,39,220.31v-1.56H47.7v1.56A1.56,1.56,0,0,0,49.26,221.87Z"/><path class="cls-2" d="M39,297.93V307a1.56,1.56,0,1,1-3.11,0v-9.1Z"/><path class="cls-2" d="M39,296.87v1.06H35.91v-1.06a1.56,1.56,0,1,1,3.11,0Z"/><path class="cls-2" d="M47.7,296.87v1.06H39v-1.06a1.57,1.57,0,0,0-1.56-1.56v-.47h11.8v.47A1.57,1.57,0,0,0,47.7,296.87Z"/><path class="cls-2" d="M39,218.75v1.56a1.56,1.56,0,1,1-3.11,0v-1.56Z"/><path class="cls-2" d="M39,210.16v8.59H35.91v-8.59a1.56,1.56,0,1,1,3.11,0Z"/><path class="cls-2" d="M37.46,221.87H25.67a1.56,1.56,0,0,0,1.55-1.56v-1.56h8.69v1.56A1.56,1.56,0,0,0,37.46,221.87Z"/><path class="cls-2" d="M27.22,297.93V307a1.56,1.56,0,1,1-3.11,0v-9.1Z"/><path class="cls-2" d="M27.22,296.87v1.06H24.11v-1.06a1.56,1.56,0,1,1,3.11,0Z"/><path class="cls-2" d="M35.91,296.87v1.06H27.22v-1.06a1.57,1.57,0,0,0-1.55-1.56v-.47H37.46v.47A1.57,1.57,0,0,0,35.91,296.87Z"/><path class="cls-2" d="M27.22,218.75v1.56a1.56,1.56,0,1,1-3.11,0v-1.56Z"/><path class="cls-2" d="M27.22,210.16v8.59H24.11v-8.59a1.56,1.56,0,1,1,3.11,0Z"/><path class="cls-2" d="M25.59,226.41a5.21,5.21,0,0,1,1.52,3.69,5.29,5.29,0,0,1-1.52,3.69,5.16,5.16,0,0,1-3.67,1.52,5.22,5.22,0,1,1,3.67-8.9ZM24,230.1a2.18,2.18,0,0,0-.61-1.49,2.07,2.07,0,0,0-1.47-.6,2.15,2.15,0,0,0-1.48.6,2.1,2.1,0,0,0-.6,1.49,2.17,2.17,0,0,0,.6,1.48,2.08,2.08,0,0,0,1.48.61,2.15,2.15,0,0,0,1.47-.61A2.1,2.1,0,0,0,24,230.1Z"/><path class="cls-2" d="M14.12,223.63V282h-.7a1.55,1.55,0,0,0-1.55-1.56H11v-8.73h.84a1.57,1.57,0,0,0,0-3.13H11v-8.73h.84a1.56,1.56,0,0,0,0-3.12H11V248h.84a1.57,1.57,0,0,0,0-3.13H11v-8.73h.84a1.56,1.56,0,0,0,0-3.12H11V222.32l.45-.45,2.66-2.67.45-.45h9.52v1.56a1.56,1.56,0,0,0,1.56,1.56h-9.8Z"/><path class="cls-2" d="M11.87,233a1.56,1.56,0,0,1,0,3.12H11V233Z"/><path class="cls-2" d="M11.87,244.88a1.57,1.57,0,0,1,0,3.13H11v-3.13Z"/><path class="cls-2" d="M11.87,256.74a1.56,1.56,0,0,1,0,3.12H11v-3.12Z"/><path class="cls-2" d="M11.87,268.59a1.57,1.57,0,0,1,0,3.13H11v-3.13Z"/><path class="cls-2" d="M11.87,280.45a1.56,1.56,0,0,1,0,3.12H11v-3.12Z"/><path class="cls-2" d="M24.11,296.87v1.06H14.59l-.45-.45-2.66-2.68-.45-.44V283.57h.84A1.55,1.55,0,0,0,13.42,282h.7v11.08l1.75,1.75h9.8v.47A1.57,1.57,0,0,0,24.11,296.87Z"/><path class="cls-2" d="M11,280.45v3.12H1.77a1.56,1.56,0,1,1,0-3.12Z"/><path class="cls-2" d="M11,268.59v3.13H1.77a1.57,1.57,0,0,1,0-3.13Z"/><path class="cls-2" d="M11,256.74v3.12H1.77a1.56,1.56,0,0,1,0-3.12Z"/><path class="cls-2" d="M11,244.88V248H1.77a1.57,1.57,0,0,1,0-3.13Z"/><path class="cls-2" d="M11,233v3.12H1.77a1.56,1.56,0,0,1,0-3.12Z"/></g><path class="cls-3" d="M44.29,267.31a1.45,1.45,0,0,1,1,.42,1.33,1.33,0,0,1,.43,1,1.29,1.29,0,0,1-.43,1,1.52,1.52,0,0,1-1,.4H31.83a1.39,1.39,0,0,1-1.06-.44,1.42,1.42,0,0,1-.42-1V246.43a1.41,1.41,0,0,1,.44-1A1.48,1.48,0,0,1,31.9,245a1.43,1.43,0,0,1,1.05.43,1.44,1.44,0,0,1,.43,1V268l-.72-.65Z"/><path class="cls-3" d="M51.56,270.16a1.75,1.75,0,0,1-1.19-.44,1.29,1.29,0,0,1-.5-1V246.43A1.47,1.47,0,0,1,51.34,245h9.94a7.25,7.25,0,0,1,3.63.91,7,7,0,0,1,2.58,2.54,7.17,7.17,0,0,1,1,3.67,7,7,0,0,1-.57,2.83,7.24,7.24,0,0,1-1.59,2.29,6.67,6.67,0,0,1-2.3,1.44l-.79-.54a5.19,5.19,0,0,1,2.19,1A5.68,5.68,0,0,1,67,261a5.81,5.81,0,0,1,.64,2.64q.08,1.33.18,2.13a4.29,4.29,0,0,0,.33,1.24,1.6,1.6,0,0,0,.61.7,1.55,1.55,0,0,1,.67.87,1.17,1.17,0,0,1-.2,1,1.13,1.13,0,0,1-.61.49,2,2,0,0,1-.8.07,2.18,2.18,0,0,1-.72-.24A4.6,4.6,0,0,1,66,269a4.49,4.49,0,0,1-.9-1.82,12,12,0,0,1-.35-3.24,4.33,4.33,0,0,0-.37-1.89,3.43,3.43,0,0,0-1-1.22,3.68,3.68,0,0,0-1.35-.65,6.14,6.14,0,0,0-1.54-.2h-8l.43-.61v9.36a1.55,1.55,0,0,1-.36,1A1.19,1.19,0,0,1,51.56,270.16Zm.9-12.82h8.82a3.85,3.85,0,0,0,2-.72,4.69,4.69,0,0,0,1.49-1.8,5.82,5.82,0,0,0,.58-2.66A4.35,4.35,0,0,0,64.1,249a4,4,0,0,0-3-1.26H52.6l.29-.72v11Z"/><g id="_375176344-4" data-name=" 375176344"><path class="cls-1" d="M230.35,124a2.14,2.14,0,0,1,1.47-.6,2.08,2.08,0,0,1,1.48.6,2.17,2.17,0,0,1,.6,1.49,2.09,2.09,0,0,1-.6,1.48,2.16,2.16,0,0,1-1.48.61,2.08,2.08,0,0,1-1.47-.61,2.17,2.17,0,0,1-.6-1.48A2.1,2.1,0,0,1,230.35,124Z"/><path class="cls-1" d="M224,177.42V119l1.75-1.76h69.1l1.75,1.76V188.5l-1.75,1.75h-69.1L224,188.5Zm2.61-51.91a5.17,5.17,0,0,0,5.18,5.21,5.18,5.18,0,0,0,3.68-1.52,5.28,5.28,0,0,0,1.51-3.69,5.19,5.19,0,1,0-10.37,0Z"/><path class="cls-2" d="M308.56,128.44a1.56,1.56,0,1,1,0,3.12h-8.84v-3.12Z"/><path class="cls-2" d="M308.56,140.29a1.57,1.57,0,0,1,0,3.13h-8.84v-3.13Z"/><path class="cls-2" d="M308.56,152.15a1.56,1.56,0,1,1,0,3.12h-8.84v-3.12Z"/><path class="cls-2" d="M308.56,164a1.57,1.57,0,0,1,0,3.13h-8.84V164Z"/><path class="cls-2" d="M308.56,175.86a1.56,1.56,0,1,1,0,3.12h-8.84v-3.12Z"/><path class="cls-2" d="M299.72,175.86V179h-1.26a1.56,1.56,0,0,1,0-3.12Z"/><path class="cls-2" d="M299.72,164v3.13h-1.26a1.57,1.57,0,0,1,0-3.13Z"/><path class="cls-2" d="M299.72,152.15v3.12h-1.26a1.56,1.56,0,1,1,0-3.12Z"/><path class="cls-2" d="M299.72,140.29v3.13h-1.26a1.57,1.57,0,0,1,0-3.13Z"/><path class="cls-2" d="M299.72,128.44v3.12h-1.26a1.56,1.56,0,1,1,0-3.12Z"/><path class="cls-2" d="M299.72,118.38v10.06h-1.26A1.56,1.56,0,0,0,296.9,130h-.27V119l-1.75-1.76H282.76a1.56,1.56,0,0,0,1.55-1.56v-1.56h11.86l.44.45,2.67,2.67.44.45Z"/><path class="cls-2" d="M298.46,131.56h1.26v8.73h-1.26a1.57,1.57,0,0,0-1.56,1.56h-.27V130h.27A1.56,1.56,0,0,0,298.46,131.56Z"/><path class="cls-2" d="M298.46,143.42h1.26v8.73h-1.26a1.56,1.56,0,0,0-1.56,1.56h-.27V141.85h.27A1.57,1.57,0,0,0,298.46,143.42Z"/><path class="cls-2" d="M298.46,155.27h1.26V164h-1.26a1.57,1.57,0,0,0-1.56,1.57h-.27V153.71h.27A1.56,1.56,0,0,0,298.46,155.27Z"/><path class="cls-2" d="M298.46,167.13h1.26v8.73h-1.26a1.56,1.56,0,0,0-1.56,1.56h-.27V165.57h.27A1.57,1.57,0,0,0,298.46,167.13Z"/><path class="cls-2" d="M282.76,190.25h12.12l1.75-1.75V177.42h.27a1.56,1.56,0,0,0,1.56,1.56h1.26v10.78l-.44.45-2.67,2.68-.44.45H284.31v-1.06a1.56,1.56,0,0,0-1.55-1.56Z"/><path class="cls-2" d="M284.31,193.34v9.1a1.56,1.56,0,1,1-3.11,0v-9.1Z"/><path class="cls-2" d="M284.31,192.28v1.06H281.2v-1.06a1.56,1.56,0,1,1,3.11,0Z"/><path class="cls-2" d="M284.31,114.16v1.56a1.56,1.56,0,1,1-3.11,0v-1.56Z"/><path class="cls-2" d="M284.31,105.57v8.59H281.2v-8.59a1.56,1.56,0,1,1,3.11,0Z"/><path class="cls-2" d="M282.76,117.28H271a1.56,1.56,0,0,0,1.56-1.56v-1.56h8.68v1.56A1.56,1.56,0,0,0,282.76,117.28Z"/><path class="cls-2" d="M272.52,193.34v9.1a1.56,1.56,0,1,1-3.11,0v-9.1Z"/><path class="cls-2" d="M272.52,192.28v1.06h-3.11v-1.06a1.56,1.56,0,1,1,3.11,0Z"/><path class="cls-2" d="M281.2,192.28v1.06h-8.68v-1.06a1.56,1.56,0,0,0-1.56-1.56v-.47h11.8v.47A1.56,1.56,0,0,0,281.2,192.28Z"/><path class="cls-2" d="M272.52,114.16v1.56a1.56,1.56,0,1,1-3.11,0v-1.56Z"/><path class="cls-2" d="M272.52,105.57v8.59h-3.11v-8.59a1.56,1.56,0,1,1,3.11,0Z"/><path class="cls-2" d="M271,117.28H259.17a1.56,1.56,0,0,0,1.55-1.56v-1.56h8.69v1.56A1.56,1.56,0,0,0,271,117.28Z"/><path class="cls-2" d="M260.72,193.34v9.1a1.56,1.56,0,1,1-3.11,0v-9.1Z"/><path class="cls-2" d="M260.72,192.28v1.06h-3.11v-1.06a1.56,1.56,0,1,1,3.11,0Z"/><path class="cls-2" d="M269.41,192.28v1.06h-8.69v-1.06a1.56,1.56,0,0,0-1.55-1.56v-.47H271v.47A1.56,1.56,0,0,0,269.41,192.28Z"/><path class="cls-2" d="M260.72,114.16v1.56a1.56,1.56,0,1,1-3.11,0v-1.56Z"/><path class="cls-2" d="M260.72,105.57v8.59h-3.11v-8.59a1.56,1.56,0,1,1,3.11,0Z"/><path class="cls-2" d="M259.17,117.28h-11.8a1.56,1.56,0,0,0,1.56-1.56v-1.56h8.68v1.56A1.56,1.56,0,0,0,259.17,117.28Z"/><path class="cls-2" d="M248.93,193.34v9.1a1.56,1.56,0,1,1-3.11,0v-9.1Z"/><path class="cls-2" d="M248.93,193.34h-3.11v-1.06a1.56,1.56,0,1,1,3.11,0Z"/><path class="cls-2" d="M257.61,192.28v1.06h-8.68v-1.06a1.56,1.56,0,0,0-1.56-1.56v-.47h11.8v.47A1.56,1.56,0,0,0,257.61,192.28Z"/><path class="cls-2" d="M248.93,114.16v1.56a1.56,1.56,0,1,1-3.11,0v-1.56Z"/><path class="cls-2" d="M248.93,105.57v8.59h-3.11v-8.59a1.56,1.56,0,1,1,3.11,0Z"/><path class="cls-2" d="M247.37,117.28H235.58a1.56,1.56,0,0,0,1.55-1.56v-1.56h8.69v1.56A1.56,1.56,0,0,0,247.37,117.28Z"/><path class="cls-2" d="M237.13,193.34v9.1a1.56,1.56,0,1,1-3.11,0v-9.1Z"/><path class="cls-2" d="M237.13,192.28v1.06H234v-1.06a1.56,1.56,0,1,1,3.11,0Z"/><path class="cls-2" d="M235.58,190.25h11.79v.47a1.56,1.56,0,0,0-1.55,1.56v1.06h-8.69v-1.06a1.56,1.56,0,0,0-1.55-1.56Z"/><path class="cls-2" d="M237.13,114.16v1.56a1.56,1.56,0,1,1-3.11,0v-1.56Z"/><path class="cls-2" d="M237.13,105.57v8.59H234v-8.59a1.56,1.56,0,1,1,3.11,0Z"/><path class="cls-2" d="M235.5,121.82a5.21,5.21,0,0,1,1.51,3.69,5.28,5.28,0,0,1-1.51,3.69,5.2,5.2,0,0,1-7.35,0,5.26,5.26,0,0,1,0-7.38,5.18,5.18,0,0,1,7.35,0Zm-1.6,3.69a2.17,2.17,0,0,0-.6-1.49,2.08,2.08,0,0,0-1.48-.6,2.14,2.14,0,0,0-1.47.6,2.1,2.1,0,0,0-.6,1.49,2.17,2.17,0,0,0,.6,1.48,2.08,2.08,0,0,0,1.47.61,2.16,2.16,0,0,0,1.48-.61A2.09,2.09,0,0,0,233.9,125.51Z"/><path class="cls-2" d="M224,119v58.38h-.7a1.56,1.56,0,0,0-1.55-1.56h-.84v-8.73h.84a1.57,1.57,0,0,0,0-3.13h-.84v-8.73h.84a1.56,1.56,0,0,0,0-3.12h-.84v-8.73h.84a1.57,1.57,0,0,0,0-3.13h-.84v-8.73h.84a1.56,1.56,0,0,0,0-3.12h-.84V117.73l.45-.45,2.66-2.67.45-.45H234v1.56a1.56,1.56,0,0,0,1.56,1.56h-9.8Z"/><path class="cls-2" d="M221.78,128.44a1.56,1.56,0,0,1,0,3.12h-.84v-3.12Z"/><path class="cls-2" d="M221.78,140.29a1.57,1.57,0,0,1,0,3.13h-.84v-3.13Z"/><path class="cls-2" d="M221.78,152.15a1.56,1.56,0,0,1,0,3.12h-.84v-3.12Z"/><path class="cls-2" d="M221.78,164a1.57,1.57,0,0,1,0,3.13h-.84V164Z"/><path class="cls-2" d="M221.78,175.86a1.56,1.56,0,0,1,0,3.12h-.84v-3.12Z"/><path class="cls-2" d="M234,192.28v1.06H224.5l-.45-.45-2.66-2.68-.45-.45V179h.84a1.56,1.56,0,0,0,1.55-1.56h.7V188.5l1.75,1.75h9.8v.47A1.56,1.56,0,0,0,234,192.28Z"/><path class="cls-2" d="M220.94,175.86V179h-9.27a1.56,1.56,0,0,1,0-3.12Z"/><path class="cls-2" d="M220.94,164v3.13h-9.27a1.57,1.57,0,0,1,0-3.13Z"/><path class="cls-2" d="M220.94,152.15v3.12h-9.27a1.56,1.56,0,0,1,0-3.12Z"/><path class="cls-2" d="M220.94,140.29v3.13h-9.27a1.57,1.57,0,0,1,0-3.13Z"/><path class="cls-2" d="M220.94,128.44v3.12h-9.27a1.56,1.56,0,0,1,0-3.12Z"/></g><path class="cls-3" d="M252,155.65a1.36,1.36,0,0,1-1-.4,1.31,1.31,0,0,1-.39-1,1.27,1.27,0,0,1,.39-.95,1.42,1.42,0,0,1,1-.38h14.76a1.36,1.36,0,0,1,1,.4,1.33,1.33,0,0,1,.39,1,1.27,1.27,0,0,1-.39,1,1.42,1.42,0,0,1-1,.38Zm7.34,7.52a1.5,1.5,0,0,1-1.09-.43,1.44,1.44,0,0,1-.45-1.08V146.79a1.48,1.48,0,0,1,.45-1.11,1.55,1.55,0,0,1,1.13-.43,1.45,1.45,0,0,1,1.1.43,1.57,1.57,0,0,1,.41,1.11v14.84a1.47,1.47,0,0,1-1.55,1.54Z"/><line class="cls-4" x1="100" y1="49.71" x2="232.56" y2="102.79"/><polygon class="cls-3" points="218.77 110.49 217.68 107.69 231.49 102.37 225.17 88.99 227.89 87.71 235.57 104.01 218.77 110.49"/><line class="cls-4" x1="100.21" y1="154" x2="206.87" y2="153.72"/><polygon class="cls-3" points="196.96 166.01 194.91 163.82 205.71 153.72 194.85 143.68 196.89 141.48 210.12 153.71 196.96 166.01"/><line class="cls-4" x1="100.21" y1="258.3" x2="231.02" y2="203.69"/><polygon class="cls-3" points="226.57 218.85 223.84 217.61 229.96 204.14 216.08 199.02 217.12 196.2 234.02 202.44 226.57 218.85"/><path class="cls-3" d="M154.82,66.52a5.91,5.91,0,0,1-3.13-2.67,8,8,0,0,1-.84-4.22,17.48,17.48,0,0,1,3.84-9.6,7.88,7.88,0,0,1,3.52-2.45,6.38,6.38,0,0,1,7.21,2.88,7.93,7.93,0,0,1,.84,4.2,17.59,17.59,0,0,1-3.84,9.61,8.16,8.16,0,0,1-3.51,2.47A5.82,5.82,0,0,1,154.82,66.52Zm.84-2.11a3.55,3.55,0,0,0,2.66,0,6.22,6.22,0,0,0,2.46-1.93,14,14,0,0,0,2.05-3.65,14.42,14.42,0,0,0,1-4.09,6,6,0,0,0-.46-3.08,3.51,3.51,0,0,0-1.95-1.79,3.56,3.56,0,0,0-2.68-.06,5.9,5.9,0,0,0-2.45,1.91,14.06,14.06,0,0,0-2.06,3.68,13.8,13.8,0,0,0-1,4.06,6,6,0,0,0,.45,3.1A3.52,3.52,0,0,0,155.66,64.41Z"/><path class="cls-3" d="M165.28,70.37a1.15,1.15,0,0,1-.72-.65,1.27,1.27,0,0,1,0-1l.21-.52a1.34,1.34,0,0,1,.65-.77,1.18,1.18,0,0,1,1,0l.21.08a1.15,1.15,0,0,1,.73.66,1.36,1.36,0,0,1-.06,1l-.21.51a1.34,1.34,0,0,1-.63.75,1.2,1.2,0,0,1-1,0Z"/><path class="cls-3" d="M178.81,75.82a1.07,1.07,0,0,1-.62-.61,1.14,1.14,0,0,1,0-.87l5.69-14.22.34.35-9.45,5.6,0-.36,9.52,3.81a1,1,0,0,1,.59.57,1.06,1.06,0,0,1,0,.82,1,1,0,0,1-.56.57,1,1,0,0,1-.81,0l-10.95-4.38a1.17,1.17,0,0,1-.61-1.48,1.06,1.06,0,0,1,.53-.57l12.56-7.34a1.21,1.21,0,0,1,.54-.14,1.19,1.19,0,0,1,.51.08,1,1,0,0,1,.6.6,1.14,1.14,0,0,1,0,.87l-6.43,16.06a1.14,1.14,0,0,1-.6.64A1.06,1.06,0,0,1,178.81,75.82Z"/><path class="cls-3" d="M139,148.67a5.81,5.81,0,0,1-3.89-1.31,8,8,0,0,1-2.36-3.6,17.52,17.52,0,0,1,0-10.34,8,8,0,0,1,2.36-3.59,6.42,6.42,0,0,1,7.77,0,8,8,0,0,1,2.33,3.59,17.31,17.31,0,0,1,0,10.34,8,8,0,0,1-2.33,3.6A5.79,5.79,0,0,1,139,148.67Zm0-2.26a3.54,3.54,0,0,0,2.48-.95,6.09,6.09,0,0,0,1.56-2.71,13.77,13.77,0,0,0,.55-4.15,14,14,0,0,0-.55-4.19,6,6,0,0,0-1.56-2.69,3.78,3.78,0,0,0-5,0,6.06,6.06,0,0,0-1.57,2.69,14.31,14.31,0,0,0-.54,4.19,14.12,14.12,0,0,0,.54,4.15,6.19,6.19,0,0,0,1.57,2.71A3.56,3.56,0,0,0,139,146.41Z"/><path class="cls-3" d="M150.13,148.37a1.19,1.19,0,0,1-.91-.34,1.29,1.29,0,0,1-.32-.92v-.56a1.33,1.33,0,0,1,.32-1,1.19,1.19,0,0,1,.91-.34h.23a1.17,1.17,0,0,1,.92.34,1.37,1.37,0,0,1,.31,1v.56a1.33,1.33,0,0,1-.31.92,1.17,1.17,0,0,1-.92.34Z"/><path class="cls-3" d="M155.68,145.15a1.09,1.09,0,0,1,.37.07,1.3,1.3,0,0,1,.47.29,4.25,4.25,0,0,0,1.31.81,4.5,4.5,0,0,0,1.74.31,4.6,4.6,0,0,0,2.21-.54,4.33,4.33,0,0,0,1.62-1.56,4.37,4.37,0,0,0,.62-2.32,4.06,4.06,0,0,0-.62-2.33,3.87,3.87,0,0,0-1.58-1.34,4.74,4.74,0,0,0-2-.45,3.41,3.41,0,0,0-.73.07l-.63.14a2.22,2.22,0,0,1-.57.07.84.84,0,0,1-.7-.31,1.11,1.11,0,0,1-.25-.75.93.93,0,0,1,.1-.45,1.87,1.87,0,0,1,.29-.42l5.46-6.05.48.51h-8a1.06,1.06,0,0,1-1.06-1.07,1,1,0,0,1,.31-.74,1,1,0,0,1,.75-.29h9.13a1.08,1.08,0,0,1,.9.36,1.29,1.29,0,0,1,.28.78,1.06,1.06,0,0,1-.11.45,1.46,1.46,0,0,1-.34.42l-5.43,6.05-.65-.56a1.6,1.6,0,0,1,.65-.21,4.11,4.11,0,0,1,.84-.1,5.69,5.69,0,0,1,5,2.9,6.25,6.25,0,0,1,.79,3.18,6.46,6.46,0,0,1-.93,3.5,6.16,6.16,0,0,1-2.53,2.29,8,8,0,0,1-3.63.81,7.47,7.47,0,0,1-2.2-.33,5.07,5.07,0,0,1-1.86-1,1.39,1.39,0,0,1-.49-.47,1.19,1.19,0,0,1-.12-.51,1.23,1.23,0,0,1,.32-.81A1,1,0,0,1,155.68,145.15Z"/><path class="cls-3" d="M170.26,145.15a1.1,1.1,0,0,1,.38.07,1.2,1.2,0,0,1,.46.29,4.46,4.46,0,0,0,3.06,1.12,4.6,4.6,0,0,0,2.21-.54,4.33,4.33,0,0,0,1.62-1.56,4.37,4.37,0,0,0,.62-2.32,4.06,4.06,0,0,0-.62-2.33,3.94,3.94,0,0,0-1.58-1.34,4.74,4.74,0,0,0-2-.45,3.41,3.41,0,0,0-.73.07l-.63.14a2.28,2.28,0,0,1-.57.07.84.84,0,0,1-.7-.31,1.11,1.11,0,0,1-.25-.75,1.06,1.06,0,0,1,.09-.45,2.38,2.38,0,0,1,.3-.42l5.46-6.05.47.51h-7.95a1.06,1.06,0,0,1-1.06-1.07,1,1,0,0,1,.31-.74,1,1,0,0,1,.75-.29H179a1.08,1.08,0,0,1,.9.36,1.29,1.29,0,0,1,.28.78,1,1,0,0,1-.12.45,1.27,1.27,0,0,1-.33.42l-5.43,6.05-.65-.56a1.54,1.54,0,0,1,.65-.21,4.11,4.11,0,0,1,.84-.1,5.69,5.69,0,0,1,5,2.9,6.25,6.25,0,0,1,.78,3.18,6.46,6.46,0,0,1-.92,3.5,6.23,6.23,0,0,1-2.53,2.29,8,8,0,0,1-3.63.81,7.47,7.47,0,0,1-2.2-.33,5.07,5.07,0,0,1-1.86-1,1.31,1.31,0,0,1-.49-.47,1.2,1.2,0,0,1-.13-.51,1.24,1.24,0,0,1,.33-.81A1,1,0,0,1,170.26,145.15Z"/><path class="cls-3" d="M157.6,229.2a5.82,5.82,0,0,1-4.1.28,7.92,7.92,0,0,1-3.56-2.41,17.42,17.42,0,0,1-4-9.55,7.9,7.9,0,0,1,.79-4.21,6.39,6.39,0,0,1,7.17-3,8.06,8.06,0,0,1,3.54,2.4,16.1,16.1,0,0,1,2.72,4.48,15.82,15.82,0,0,1,1.26,5.07,7.9,7.9,0,0,1-.77,4.22A5.81,5.81,0,0,1,157.6,229.2Zm-.88-2.09a3.5,3.5,0,0,0,1.92-1.84,6,6,0,0,0,.41-3.09,16.29,16.29,0,0,0-3.21-7.7,6,6,0,0,0-2.49-1.88,3.46,3.46,0,0,0-2.64.09,3.56,3.56,0,0,0-2,1.83,6.09,6.09,0,0,0-.41,3.08,14.58,14.58,0,0,0,1.11,4.08,13.82,13.82,0,0,0,2.11,3.62,6,6,0,0,0,2.49,1.89A3.49,3.49,0,0,0,156.72,227.11Z"/><path class="cls-3" d="M167.76,224.62a1.18,1.18,0,0,1-1,0,1.25,1.25,0,0,1-.65-.73l-.21-.51a1.29,1.29,0,0,1-.07-1,1.2,1.2,0,0,1,.71-.66l.2-.08a1.2,1.2,0,0,1,1,0,1.39,1.39,0,0,1,.65.76l.21.52a1.28,1.28,0,0,1,.07,1,1.17,1.17,0,0,1-.72.67Z"/><path class="cls-3" d="M182.05,216.41a1.06,1.06,0,0,1,1.4.57,1,1,0,0,1,0,.81,1.08,1.08,0,0,1-.59.56l-9.38,3.91a1.1,1.1,0,0,1-.85,0,1,1,0,0,1-.6-.61,1.3,1.3,0,0,1,0-.87l3.2-8.83a15,15,0,0,0,.86-3.32,5,5,0,0,0-.28-2.57,4,4,0,0,0-1.19-1.62,3.28,3.28,0,0,0-1.76-.69,4.28,4.28,0,0,0-2.09.35,4.18,4.18,0,0,0-1.72,1.37,4.09,4.09,0,0,0-.77,2.31,1.44,1.44,0,0,1-.24.56,1,1,0,0,1-.4.32,1.21,1.21,0,0,1-.84,0,.88.88,0,0,1-.61-.5,1.05,1.05,0,0,1-.06-.61,5,5,0,0,1,.2-.72,5.85,5.85,0,0,1,1.32-2.89,6.34,6.34,0,0,1,2.44-1.84,6.67,6.67,0,0,1,3.31-.58,5.2,5.2,0,0,1,2.7,1.08,5.82,5.82,0,0,1,1.81,2.46,6.44,6.44,0,0,1,.48,2.15,10.88,10.88,0,0,1-.2,2.54,21.72,21.72,0,0,1-.87,3l-2.44,6.87-.37-.15Z"/><path class="cls-3" d="M189.78,215.58a1.19,1.19,0,0,1-.87,0,1,1,0,0,1-.64-.58,1.44,1.44,0,0,1-.09-.51l.31-18,.5.34-8.32,3.47a1,1,0,0,1-.81,0,1,1,0,0,1-.58-.59,1,1,0,0,1,0-.81,1.1,1.1,0,0,1,.58-.56l9.33-3.89a1.11,1.11,0,0,1,.89,0,1.06,1.06,0,0,1,.59.6,1.44,1.44,0,0,1,.09.51l-.3,19a1.06,1.06,0,0,1-.17.65A1.1,1.1,0,0,1,189.78,215.58Z"/><line class="cls-4" x1="310.12" y1="153.71" x2="332.08" y2="153.71"/><polygon class="cls-3" points="322.14 165.98 320.09 163.78 330.93 153.71 320.09 143.64 322.14 141.44 335.33 153.71 322.14 165.98"/><path class="cls-3" d="M348,143.57a5.25,5.25,0,0,1,2.76.76,5.49,5.49,0,0,1,2,2.07,6.16,6.16,0,0,1,.71,3,6.27,6.27,0,0,1-.71,3,5.69,5.69,0,0,1-2,2.14,5,5,0,0,1-2.76.8h-5.68l.19-.37V162a1.2,1.2,0,0,1-.3.81,1,1,0,0,1-.79.33,1.07,1.07,0,0,1-.81-.33,1.16,1.16,0,0,1-.31-.81V144.72a1.09,1.09,0,0,1,.34-.81,1.11,1.11,0,0,1,.81-.34Zm0,9.58a2.74,2.74,0,0,0,1.61-.5,3.54,3.54,0,0,0,1.14-1.36,4.23,4.23,0,0,0,.42-1.89,4,4,0,0,0-.42-1.86,3.29,3.29,0,0,0-1.14-1.3,2.8,2.8,0,0,0-1.61-.48h-5.68l.19-.34v8l-.19-.28Z"/><path class="cls-3" d="M357.86,163.17a1.08,1.08,0,0,1-.8-.33,1.17,1.17,0,0,1-.32-.81V149.85a1.15,1.15,0,0,1,.32-.83,1.11,1.11,0,0,1,.8-.32,1.07,1.07,0,0,1,.81.32,1.14,1.14,0,0,1,.31.83v3.66l-.34-.58a6.42,6.42,0,0,1,.61-1.7,5.88,5.88,0,0,1,1.1-1.48,5.23,5.23,0,0,1,1.54-1,4.78,4.78,0,0,1,1.91-.37,2.21,2.21,0,0,1,1.13.29.89.89,0,0,1,.52.82,1.16,1.16,0,0,1-.31.89,1,1,0,0,1-.7.29,1.57,1.57,0,0,1-.7-.17,1.88,1.88,0,0,0-.84-.16,2.79,2.79,0,0,0-1.39.39,5,5,0,0,0-1.26,1.07,5.69,5.69,0,0,0-.92,1.57,5.16,5.16,0,0,0-.35,1.89V162a1.17,1.17,0,0,1-.32.81A1.08,1.08,0,0,1,357.86,163.17Z"/><path class="cls-3" d="M373.9,163.45a7.77,7.77,0,0,1-3.92-.95,6.64,6.64,0,0,1-2.61-2.62,7.65,7.65,0,0,1-.94-3.85,8.4,8.4,0,0,1,1-4.15,7,7,0,0,1,2.52-2.64,6.49,6.49,0,0,1,3.29-.9,6.63,6.63,0,0,1,2.51.47,6.46,6.46,0,0,1,2.13,1.4,7.22,7.22,0,0,1,1.5,2.19,7.35,7.35,0,0,1,.58,2.85,1,1,0,0,1-.36.74,1.14,1.14,0,0,1-.78.3H367.72l-.51-1.93H378l-.45.39v-.62a3.62,3.62,0,0,0-.77-2,4.48,4.48,0,0,0-1.59-1.28,4.55,4.55,0,0,0-2-.45,4.83,4.83,0,0,0-1.66.31,4.45,4.45,0,0,0-1.49.95,4.78,4.78,0,0,0-1.05,1.69,7.08,7.08,0,0,0-.39,2.49,5.94,5.94,0,0,0,.66,2.85,5.05,5.05,0,0,0,1.83,1.95,5.74,5.74,0,0,0,4.44.46,5.22,5.22,0,0,0,1.25-.63,5.81,5.81,0,0,0,.89-.77,1.25,1.25,0,0,1,.7-.25.93.93,0,0,1,.7.28.91.91,0,0,1,.28.67,1.1,1.1,0,0,1-.47.87,6.68,6.68,0,0,1-2.13,1.51A6.54,6.54,0,0,1,373.9,163.45Z"/><path class="cls-3" d="M394.93,142.45a1,1,0,0,1,.81.33,1.12,1.12,0,0,1,.31.82V162a1.17,1.17,0,0,1-.32.81,1.15,1.15,0,0,1-1.61,0,1.2,1.2,0,0,1-.31-.81v-2.66l.54-.17a2.89,2.89,0,0,1-.43,1.39,5.85,5.85,0,0,1-1.14,1.4,6.08,6.08,0,0,1-1.72,1.06,5.59,5.59,0,0,1-2.12.4,6.16,6.16,0,0,1-3.43-1,6.81,6.81,0,0,1-2.41-2.68,9.13,9.13,0,0,1,0-7.82,6.83,6.83,0,0,1,2.4-2.67,6.1,6.1,0,0,1,3.36-1,6.23,6.23,0,0,1,2.21.39,5.75,5.75,0,0,1,1.8,1.06,5.33,5.33,0,0,1,1.22,1.49,3.31,3.31,0,0,1,.45,1.62l-.73-.17V143.6a1.19,1.19,0,0,1,.31-.81A1.08,1.08,0,0,1,394.93,142.45Zm-5.77,18.93a4.34,4.34,0,0,0,2.5-.71,4.84,4.84,0,0,0,1.66-2,6.9,6.9,0,0,0,0-5.63,4.81,4.81,0,0,0-1.68-2,4.63,4.63,0,0,0-4.93,0,5,5,0,0,0-1.69,2,6.28,6.28,0,0,0-.62,2.82,6.2,6.2,0,0,0,.62,2.78,5,5,0,0,0,1.69,2A4.26,4.26,0,0,0,389.16,161.38Z"/><path class="cls-3" d="M401.2,146.6a1.56,1.56,0,0,1-1-.28,1.06,1.06,0,0,1-.34-.87v-.39a1,1,0,0,1,.37-.87,1.62,1.62,0,0,1,1-.28,1.52,1.52,0,0,1,1,.28,1.09,1.09,0,0,1,.34.87v.39a1.07,1.07,0,0,1-.35.87A1.62,1.62,0,0,1,401.2,146.6ZM402.35,162a1.17,1.17,0,0,1-.32.81,1.06,1.06,0,0,1-.8.33,1.09,1.09,0,0,1-.82-.33,1.13,1.13,0,0,1-.33-.81V149.62a1.12,1.12,0,0,1,.33-.81,1.1,1.1,0,0,1,.82-.34,1.07,1.07,0,0,1,.8.34,1.15,1.15,0,0,1,.32.81Z"/><path class="cls-3" d="M412.68,148.34a10.21,10.21,0,0,1,2.58.3,5.22,5.22,0,0,1,1.82.84,1.53,1.53,0,0,1,.67,1.21,1.25,1.25,0,0,1-.24.73.78.78,0,0,1-.68.33,1.18,1.18,0,0,1-.63-.15,3.16,3.16,0,0,1-.45-.37,2.46,2.46,0,0,0-.57-.4,4.44,4.44,0,0,0-1-.3,7,7,0,0,0-1.29-.12,5,5,0,0,0-4.52,2.68,6.36,6.36,0,0,0,0,5.6,5,5,0,0,0,1.79,2,4.85,4.85,0,0,0,2.66.73,5.86,5.86,0,0,0,1.54-.16,4.61,4.61,0,0,0,1-.4,2.79,2.79,0,0,0,.77-.56,1,1,0,0,1,.72-.28.92.92,0,0,1,.75.31,1.17,1.17,0,0,1,.26.76,1.53,1.53,0,0,1-.7,1.09,6.16,6.16,0,0,1-1.89.94,9.06,9.06,0,0,1-2.71.37,6.92,6.92,0,0,1-3.72-1,6.79,6.79,0,0,1-2.48-2.72,8.26,8.26,0,0,1-.88-3.84,8,8,0,0,1,.91-3.84,6.86,6.86,0,0,1,6.31-3.72Z"/><path class="cls-3" d="M420.22,148.78h6.58a1,1,0,0,1,.74.31,1.09,1.09,0,0,1,.29.76,1,1,0,0,1-.29.71,1,1,0,0,1-.74.3h-6.58a1.1,1.1,0,0,1-.75-.31,1,1,0,0,1-.32-.73,1,1,0,0,1,.32-.74A1.08,1.08,0,0,1,420.22,148.78Zm2.94-3.81a1,1,0,0,1,.78.34,1.19,1.19,0,0,1,.31.81v13.5a2.08,2.08,0,0,0,.19,1,1,1,0,0,0,.52.46,1.87,1.87,0,0,0,.63.13,1.22,1.22,0,0,0,.49-.1,1.1,1.1,0,0,1,.49-.1.71.71,0,0,1,.52.26,1,1,0,0,1-.35,1.54,2.46,2.46,0,0,1-1.32.35,9.06,9.06,0,0,1-1,0,3.09,3.09,0,0,1-1.14-.36,2.42,2.42,0,0,1-.93-1,4.21,4.21,0,0,1-.38-2V146.12a1.12,1.12,0,0,1,.33-.81A1.15,1.15,0,0,1,423.16,145Z"/><path class="cls-3" d="M432,146.6a1.59,1.59,0,0,1-1-.28,1.09,1.09,0,0,1-.33-.87v-.39a1,1,0,0,1,.36-.87,1.65,1.65,0,0,1,1-.28,1.51,1.51,0,0,1,1,.28,1.06,1.06,0,0,1,.34.87v.39a1.07,1.07,0,0,1-.35.87A1.57,1.57,0,0,1,432,146.6ZM433.1,162a1.13,1.13,0,0,1-.33.81,1.06,1.06,0,0,1-.79.33,1.1,1.1,0,0,1-.83-.33,1.12,1.12,0,0,1-.32-.81V149.62a1.13,1.13,0,0,1,1.15-1.15,1.07,1.07,0,0,1,.79.34,1.12,1.12,0,0,1,.33.81Z"/><path class="cls-3" d="M450.73,155.9a7.81,7.81,0,0,1-1,3.89,7,7,0,0,1-2.59,2.68,7.47,7.47,0,0,1-7.4,0,7.1,7.1,0,0,1-2.62-2.68,8.31,8.31,0,0,1,0-7.79,7.1,7.1,0,0,1,2.62-2.68,7.47,7.47,0,0,1,7.4,0,7,7,0,0,1,2.59,2.68A7.82,7.82,0,0,1,450.73,155.9Zm-2.23,0a5.88,5.88,0,0,0-.66-2.85,5.2,5.2,0,0,0-1.79-1.93,5,5,0,0,0-5.12,0,5.14,5.14,0,0,0-1.8,1.93,6.42,6.42,0,0,0,0,5.67,5.13,5.13,0,0,0,1.8,1.95,5,5,0,0,0,5.12,0,5.18,5.18,0,0,0,1.79-1.95A5.87,5.87,0,0,0,448.5,155.9Z"/><path class="cls-3" d="M461.18,148.34a5,5,0,0,1,3,.78,4.24,4.24,0,0,1,1.56,2.1,8.9,8.9,0,0,1,.46,3V162a1.17,1.17,0,0,1-.32.81,1.08,1.08,0,0,1-.8.33,1,1,0,0,1-.81-.33A1.16,1.16,0,0,1,464,162v-7.79a5.62,5.62,0,0,0-.32-1.93,2.92,2.92,0,0,0-1.08-1.39,3.56,3.56,0,0,0-2-.51,4.58,4.58,0,0,0-2.15.51,4.24,4.24,0,0,0-1.57,1.39,3.38,3.38,0,0,0-.59,1.93V162a1.17,1.17,0,0,1-.32.81,1.06,1.06,0,0,1-.8.33,1.08,1.08,0,0,1-.8-.33A1.17,1.17,0,0,1,454,162V149.85a1.15,1.15,0,0,1,.32-.83,1.11,1.11,0,0,1,.8-.32,1.07,1.07,0,0,1,.81.32,1.14,1.14,0,0,1,.31.83v2l-.56.61a4.1,4.1,0,0,1,.65-1.47,5.64,5.64,0,0,1,1.26-1.33,6.55,6.55,0,0,1,1.68-.94A5.45,5.45,0,0,1,461.18,148.34Z"/><path class="cls-3" d="M469.5,160.88a1.34,1.34,0,0,1-.21-.77.87.87,0,0,1,.46-.71,1,1,0,0,1,.68-.17,1.06,1.06,0,0,1,.69.36,6.09,6.09,0,0,0,1.79,1.47,5.15,5.15,0,0,0,2.47.55,6,6,0,0,0,1.33-.23,2.49,2.49,0,0,0,1.14-.68,1.81,1.81,0,0,0,.46-1.3,1.64,1.64,0,0,0-.47-1.25,3.63,3.63,0,0,0-1.25-.76,14.82,14.82,0,0,0-1.63-.51c-.62-.17-1.23-.36-1.82-.56a7.19,7.19,0,0,1-1.62-.8,3.87,3.87,0,0,1-1.14-1.24,3.89,3.89,0,0,1,.25-4,4.43,4.43,0,0,1,1.83-1.43,6.24,6.24,0,0,1,2.55-.5,8,8,0,0,1,1.64.18,6.17,6.17,0,0,1,1.66.61,4.64,4.64,0,0,1,1.43,1.19,1.13,1.13,0,0,1,.28.7.91.91,0,0,1-.36.76,1.08,1.08,0,0,1-.69.21.91.91,0,0,1-.63-.27,4.05,4.05,0,0,0-1.49-1.1,4.78,4.78,0,0,0-2-.38,4.15,4.15,0,0,0-1.29.21,2.59,2.59,0,0,0-1.08.66,1.74,1.74,0,0,0-.43,1.26,1.81,1.81,0,0,0,.5,1.23,3.51,3.51,0,0,0,1.29.77c.54.2,1.14.39,1.79.57a17.28,17.28,0,0,1,1.72.52,5.89,5.89,0,0,1,1.5.77,3.41,3.41,0,0,1,1.07,1.22,3.94,3.94,0,0,1,.39,1.86,3.52,3.52,0,0,1-.73,2.23,4.59,4.59,0,0,1-1.92,1.43,6.74,6.74,0,0,1-2.56.48,8.58,8.58,0,0,1-3-.57A5.82,5.82,0,0,1,469.5,160.88Z"/></g></g></svg>